<svg xmlns="http://www.w3.org/2000/svg" width="270" height="242" viewBox="0 0 270 242"><g fill="none" transform="translate(.929 .581)"><rect width="259.272" height="54.627" x="4.436" y="172.383" fill="#FFF"/><path fill="#D1D3D4" d="M263.70715,227.487586 L4.43555,227.487586 C4.17768825,227.487586 3.96865,227.27854 3.96865,227.020678 L3.96865,172.433978 C3.96865,172.310148 4.01784111,172.191391 4.10540184,172.10383 C4.19296258,172.016269 4.31172042,171.967078 4.43555,171.967078 L263.70715,171.967078 C263.83098,171.967078 263.949737,172.016269 264.037298,172.10383 C264.124859,172.191391 264.17405,172.310148 264.17405,172.433978 L264.17405,227.071428 C264.148045,227.309291 263.946426,227.488995 263.70715,227.487586 L263.70715,227.487586 Z M4.88215,226.553778 L263.24025,226.553778 L263.24025,172.850128 L4.90245,172.850128 L4.88215,226.553778 Z"/><rect width="267.209" height="8.81" x=".467" y="172.383" fill="#FFF" rx="4.019"/><path fill="#D1D3D4" d="M263.6564,181.660328 L4.4863,181.660328 C2.00858493,181.660328 0,179.651743 0,177.174028 L0,176.412778 C0,173.933416 2.00694398,171.921925 4.4863,171.916328 L263.6564,171.916328 C266.135756,171.921925 268.1427,173.933416 268.1427,176.412778 L268.1427,177.174028 C268.1427,179.651743 266.134115,181.660328 263.6564,181.660328 Z M4.4863,172.850128 C2.52266772,172.855722 0.9338,174.449138 0.9338,176.412778 L0.9338,177.174028 C0.9338,179.13602 2.52430843,180.726528 4.4863,180.726528 L263.6564,180.726528 C265.618392,180.726528 267.2089,179.13602 267.2089,177.174028 L267.2089,176.412778 C267.2089,174.449138 265.620032,172.855722 263.6564,172.850128 L4.4863,172.850128 Z"/><rect width="81.19" height="13.571" x="22.523" y="158.336" fill="#231F20"/><path fill="#231F20" d="M103.7127,172.352778 L22.5127,172.352778 C22.2660496,172.352778 22.0661,172.152828 22.0661,171.906178 L22.0661,158.335628 C22.0661,158.088978 22.2660496,157.889028 22.5127,157.889028 L103.7127,157.889028 C103.95935,157.889028 104.1593,158.088978 104.1593,158.335628 L104.1593,171.906178 C104.1593,172.152828 103.95935,172.352778 103.7127,172.352778 L103.7127,172.352778 Z M22.96945,171.418978 L103.2661,171.418978 L103.2661,158.782228 L22.96945,158.782228 L22.96945,171.418978 Z"/><rect width="44.244" height="13.571" x="59.459" y="158.336" fill="#FFF"/><path fill="#231F20" d="M103.7127,172.373078 L59.4587,172.373078 C59.2048106,172.367557 59.00195,172.160127 59.00195,171.906178 L59.00195,158.335628 C59.00195,158.083372 59.2064439,157.878878 59.4587,157.878878 L103.7127,157.878878 C103.964956,157.878878 104.16945,158.083372 104.16945,158.335628 L104.16945,171.906178 C104.16945,172.160127 103.966589,172.367557 103.7127,172.373078 Z M59.97635,171.418978 L103.29655,171.418978 L103.29655,158.802528 L59.97635,158.802528 L59.97635,171.418978 Z"/><rect width="65.742" height="10.059" x="36.794" y="148.51" fill="#231F20"/><path fill="#231F20" d="M102.5353,159.015678 L36.79375,159.015678 C36.5470996,159.015678 36.34715,158.815728 36.34715,158.569078 L36.34715,148.510428 C36.34715,148.263778 36.5470996,148.063828 36.79375,148.063828 L102.5353,148.063828 C102.783645,148.063828 102.986531,148.262145 102.99205,148.510428 L102.99205,158.569078 C102.99205,158.689303 102.943638,158.804464 102.857676,158.888515 C102.771714,158.972567 102.655494,159.01841 102.5353,159.015678 L102.5353,159.015678 Z M37.24035,158.122478 L102.0887,158.122478 L102.0887,148.987478 L37.24035,148.987478 L37.24035,158.122478 Z"/><rect width="28.065" height="10.059" x="74.471" y="148.51" fill="#FFF"/><path fill="#231F20" d="M102.5353,159.035978 L74.47055,159.035978 C74.2126883,159.035978 74.00365,158.82694 74.00365,158.569078 L74.00365,148.510428 C74.0090328,148.254829 74.2149511,148.048911 74.47055,148.043528 L102.5353,148.043528 C102.793162,148.043528 103.002316,148.252566 103.002316,148.510428 L103.002316,158.569078 C103.005003,158.693746 102.956712,158.814139 102.868536,158.902314 C102.780361,158.99049 102.659968,159.038781 102.5353,159.035978 L102.5353,159.035978 Z M74.93745,158.112328 L102.07855,158.112328 L102.07855,148.977328 L74.93745,148.977328 L74.93745,158.112328 Z"/><rect width="65.742" height="10.059" x="27.517" y="138.736" fill="#231F20"/><path fill="#231F20" d="M93.26835,149.241228 L27.49635,149.241228 C27.2496996,149.241228 27.04975,149.041278 27.04975,148.794628 L27.04975,138.735978 C27.04975,138.489328 27.2496996,138.289378 27.49635,138.289378 L93.26835,138.289378 C93.5150004,138.289378 93.71495,138.489328 93.71495,138.735978 L93.71495,148.794628 C93.71495,149.041278 93.5150004,149.241228 93.26835,149.241228 L93.26835,149.241228 Z M27.96325,148.348028 L92.82175,148.348028 L92.82175,139.213028 L27.96325,139.213028 L27.96325,148.348028 Z"/><rect width="28.065" height="10.059" x="65.193" y="138.736" fill="#FFF"/><path fill="#231F20" d="M93.26835,149.261528 L65.19345,149.261528 C65.0705331,149.261528 64.9527919,149.212046 64.8668368,149.124181 C64.7808817,149.036315 64.7339685,148.917515 64.7365871,148.794628 L64.7365871,138.735978 C64.7365871,138.482029 64.9395606,138.274599 65.19345,138.269078 L93.26835,138.269078 C93.5222394,138.274599 93.7252129,138.482029 93.7252129,138.735978 L93.7252129,148.794628 C93.7278315,148.917515 93.6809183,149.036315 93.5949632,149.124181 C93.5090081,149.212046 93.3912669,149.261528 93.26835,149.261528 Z M65.66035,148.337878 L92.80145,148.337878 L92.80145,139.202878 L65.66035,139.202878 L65.66035,148.337878 Z"/><circle cx="60.19" cy="143.862" r="2.121" fill="#FFF"/><path fill="#231F20" d="M60.1895,146.449978 C58.760049,146.449978 57.60125,145.291179 57.60125,143.861728 C57.60125,142.432277 58.760049,141.273478 60.1895,141.273478 C61.618951,141.273478 62.77775,142.432277 62.77775,143.861728 C62.77775,145.291179 61.618951,146.449978 60.1895,146.449978 L60.1895,146.449978 Z M60.1895,142.207278 C59.2757725,142.207278 58.53505,142.948001 58.53505,143.861728 C58.53505,144.775456 59.2757725,145.516178 60.1895,145.516178 C61.1032275,145.516178 61.84395,144.775456 61.84395,143.861728 C61.8384093,142.950305 61.1009226,142.212819 60.1895,142.207278 L60.1895,142.207278 Z"/><path fill="#FFF" d="M43.20855 157.330786C42.9529511 157.325395 42.7470328 157.119477 42.74165 156.863878L42.74165 150.103978C42.74165 149.980148 42.7908411 149.861391 42.8784018 149.77383 42.9659626 149.686269 43.0847204 149.637078 43.20855 149.637078 43.3332176 149.634275 43.4536108 149.682566 43.5417864 149.770742 43.629962 149.858917 43.6782526 149.97931 43.67545 150.103978L43.67545 156.914628C43.6494454 157.152491 43.4478264 157.332195 43.20855 157.330786ZM52.0086 170.779639C51.8847704 170.779639 51.7660126 170.730337 51.6784518 170.642776 51.5908911 170.555215 51.5417 170.436458 51.5417 170.312628L51.5417 159.685578C51.5761288 159.451434 51.777013 159.277928 52.013675 159.277928 52.250337 159.277928 52.4512212 159.451434 52.48565 159.685578L52.48565 170.312628C52.4856797 170.438236 52.4350977 170.558559 52.3453293 170.646417 52.2555609 170.734276 52.1341787 170.782259 52.0086 170.779639L52.0086 170.779639Z"/><polygon fill="#E6E7E8" points="64.402 20.022 67.944 17.281 82.875 23.503 113.213 13.252 115.954 17.443 84.215 35.642"/><polygon fill="#FFF" points="75.516 68.833 63.275 18.722 82.783 27.116 118.004 14.358 127.068 64.966 94.618 76.151"/><path fill="#231F20" d="M94.6183,76.617978 C94.5646013,76.627679 94.5095987,76.627679 94.4559,76.617978 L75.3536,69.299828 C75.2125087,69.2430532 75.1069434,69.1224072 75.0694,68.975028 L62.81835,18.834028 C62.7782237,18.6652183 62.8372131,18.48825 62.9706,18.377278 C63.1041016,18.2581309 63.2958311,18.2301704 63.4578,18.306228 L82.7428,26.619078 L117.83135,13.921428 C117.953909,13.8658428 118.094491,13.8658428 118.21705,13.921428 C118.336772,13.9903548 118.418865,14.1097635 118.44035,14.246228 L127.5246,64.843978 C127.566755,65.0683827 127.436719,65.2894432 127.2201,65.361628 L94.7401,76.526628 L94.6183,76.617978 Z M75.91185,68.497978 L94.62845,75.674028 L126.5502,64.671428 L117.64865,14.997328 L82.93565,27.563028 C82.82767,27.6035127 82.70868,27.6035127 82.6007,27.563028 L63.945,19.544528 L75.91185,68.497978 Z"/><line x1="82.783" x2="91.786" y1="27.116" y2="73.502" fill="#FFF"/><path fill="#231F20" d="M91.78645,73.978978 C91.5656189,73.9746271 91.3766516,73.819254 91.3297,73.603428 L82.30635,27.197628 C82.2826059,27.077744 82.3078962,26.9533449 82.3765655,26.8522485 C82.4452348,26.751152 82.5515546,26.6817918 82.67175,26.659678 C82.791634,26.635934 82.9160332,26.6612243 83.0171296,26.7298935 C83.118226,26.7985628 83.1875862,26.9048826 83.2097,27.025078 L92.2229,73.420728 C92.2466441,73.540612 92.2213538,73.6650112 92.1526845,73.7661076 C92.0840152,73.867204 91.9776954,73.9365642 91.8575,73.958678 L91.78645,73.978978 Z"/><path fill="#FFF" d="M104.748,85.143978 C104.748,85.143978 101.1752,79.520878 101.703,78.038978 C102.114008,76.5714367 102.392557,75.0699879 102.5353,73.552678 L98.7189,74.466178 C98.7189,74.466178 94.7807,64.620678 94.38485,61.200128 C93.989,57.779578 86.6404,60.936228 86.3765,63.565078 C86.1126,66.193928 85.98065,73.024878 88.0817,76.963078 C90.18275,80.901278 96.09005,90.350928 96.09005,90.350928"/><path fill="#231F20" d="M96.0799 90.858428C95.9186933 90.8556706 95.7697872 90.7716723 95.68405 90.635128 95.62315 90.543778 89.7463 81.124578 87.66555 77.216828 85.5848 73.309078 85.63555 66.579628 85.89945 63.565078 86.1126 61.464028 89.83765 59.302078 92.35485 59.281778L92.35485 59.281778C92.9338021 59.2015316 93.5205774 59.3591193 93.9814282 59.7186212 94.4422791 60.0781231 94.7379331 60.6089035 94.801 61.189978 95.1461 64.133478 98.24185 72.141828 98.9625 73.958678L102.3932 73.146678C102.536971 73.1071849 102.690928 73.1456742 102.7992 73.248178 102.911477 73.3480265 102.971403 73.4940952 102.9616 73.644028 102.808355 75.1988625 102.519676 76.737352 102.09885 78.241978 101.8248 78.993078 103.4488 82.301978 105.14385 84.890228 105.24413 85.1029211 105.170587 85.3570006 104.972202 85.4832457 104.773817 85.6094907 104.512503 85.5685017 104.3623 85.387578 103.74315 84.423328 100.69815 79.500578 101.26655 77.917178 101.625002 76.7042635 101.869659 75.4605881 101.99735 74.202278L98.8204 74.963528C98.5961022 75.0102688 98.3702531 74.8909522 98.28245 74.679328 98.12005 74.273328 94.32395 64.732328 93.91795 61.291478 93.91795 61.027578 93.79615 60.215578 92.4056 60.215578L92.4056 60.215578C90.1726 60.215578 87.01595 62.245578 86.8637 63.656428 86.5795 66.569478 86.5389 73.075628 88.51815 76.780378 90.54815 80.657678 96.45545 90.056578 96.51635 90.147928 96.6496563 90.3667457 96.5817119 90.6521123 96.3641 90.787378 96.2807338 90.8438894 96.180052 90.8690598 96.0799 90.858428L96.0799 90.858428ZM217.30135 90.7569773C217.148632 90.7580656 217.00545 90.6827999 216.919796 90.5563581 216.834142 90.4299163 216.817351 90.2690315 216.87505 90.127628 220.641388 80.0584257 218.454511 68.7282062 211.21135 60.783978 210.84595 60.398278 210.4704 60.012578 210.0847 59.626878 207.7502 57.272078 205.1112 54.551878 205.2736 51.161778 205.326809 50.4478802 205.449183 49.7408321 205.639 49.050578 205.780409 48.4826745 205.885505 47.9063413 205.95365 47.325078 206.2886 43.640628 203.2436 40.575328 200.63505 38.656978 200.00575 38.190078 199.346 37.743478 198.6964 37.286728 196.25025 35.601828 193.7229 33.866178 192.2004 31.257628 190.38355 28.212628 190.1704 24.629678 189.89635 21.198978 189.67305 18.153978 189.44975 14.936428 188.08965 12.124878 185.505535 6.73809752 180.618772 2.81315699 174.801356 1.45201168 168.983939.0908663584 162.863097 1.44027374 158.1573 5.12137802 155.761821 6.92131548 153.87634 9.31402235 152.68645 12.063978 151.57058 15.1987492 150.99735 18.5008282 150.9914 21.828278 150.63615 28.760728 149.9764 35.449578 146.1803 41.113278 144.994269 42.7706282 143.695372 44.3442268 142.29285 45.822878 139.69445 48.705478 137.21785 51.425678 136.4566 54.957878 135.674702 58.8247052 137.125144 62.8036221 140.2121 65.260128 140.310437 65.3344913 140.374536 65.4454503 140.389828 65.567787 140.40512 65.6901237 140.370307 65.8134468 140.2933 65.909728 140.135184 66.1094894 139.846123 66.1456222 139.6437 65.990928 136.292312 63.3063851 134.724821 58.9722716 135.5837 54.765028 136.40585 50.948628 139.06515 48.005128 141.6737 45.163128 143.044538 43.713522 144.312961 42.1703868 145.4698 40.544878 149.1644 35.104478 149.78355 28.557728 150.1185 21.767378 150.131195 18.3309917 150.731952 14.9221276 151.89475 11.688428 153.134597 8.79026427 155.103206 6.26219327 157.6092 4.34997802 162.532309.52029499 168.922904-.87837577 174.995655.544709691 181.068406 1.96779515 186.172255 6.06006805 188.88135 11.678278 190.32265 14.642078 190.5561 17.920528 190.7794 21.087328 191.023 24.558628 191.25645 27.837078 192.96165 30.739978 194.38265 33.165828 196.81865 34.850728 199.17345 36.474728 199.84335 36.931478 200.5031 37.388228 201.14255 37.855128 203.94395 39.885128 207.23255 43.234628 206.8367 47.355528 206.769649 47.9826379 206.654273 48.6036339 206.4916 49.212978 206.322533 49.8513932 206.210443 50.5035502 206.15665 51.161778 206.01455 54.206778 208.3998 56.592028 210.70385 58.926528 211.08955 59.322378 211.47525 59.708078 211.84065 60.093778 219.451484 68.260467 221.740383 80.051647 217.7378 90.472728 217.663576 90.6473419 217.491065 90.7596748 217.30135 90.7569773Z"/><path fill="#E0E0E0" d="M145.23635,61.971528 L126.13405,103.819978 L107.53925,83.002328 L92.0402,90.310328 C92.0402,90.310328 126.266,141.963678 135.6852,137.264228 C145.1044,132.564778 158.6039,90.868578 158.6039,90.868578 L145.23635,61.971528 Z"/><path fill="#E0E0E0" d="M169.88055,50.339628 C169.88055,50.339628 149.17455,52.613228 144.30255,62.631278 C139.43055,72.649328 140.5369,119.105878 140.5369,119.105878 L216.93595,127.296928 C216.93595,127.296928 214.9973,89.102478 211.39405,72.151978 C207.7908,55.201478 196.77805,44.026328 169.88055,50.339628 Z"/><polygon fill="#231F20" points="163.75 55.404 171.444 96.847 182.081 51.436"/><path fill="#231F20" d="M171.44365,97.3239992 L171.44365,97.3239992 C171.236007,97.3107685 171.062161,97.1617578 171.01735,96.958578 L163.30335,55.485678 C163.264922,55.2493468 163.415518,55.0234528 163.64845,54.968028 L181.9895,50.999378 C182.139634,50.9726094 182.293641,51.0176846 182.40565,51.121178 C182.505516,51.235006 182.546777,51.3887981 182.5173,51.537328 L171.8801,96.948428 C171.849532,97.1654315 171.662785,97.3261204 171.44365,97.3239992 L171.44365,97.3239992 Z M164.2676,55.708978 L171.4944,94.624078 L181.482,51.994078 L164.2676,55.708978 Z"/><path fill="#FFF" d="M163.821,43.325978 L163.74995,55.404478 C163.74995,55.404478 164.96795,62.164378 172.31655,60.103928 C176.707951,58.8276382 180.293072,55.6450043 182.08085,51.435828 L181.24855,30.516678 C181.24855,29.633628 177.6453,26.284128 177.7874,18.600578 C172.554051,18.5579252 167.5804,16.3142556 164.0849,12.419228 C164.0849,12.419228 161.0399,17.027328 159.6798,18.509228 C158.609535,19.6025447 157.681902,20.8268839 156.919,22.153078 C155.67055,24.477428 155.7213,27.380328 155.7822,29.958428 C155.809311,33.0248154 156.115068,36.0823928 156.6957,39.093428 C157.8731,44.726678 163.821,43.325978 163.821,43.325978 Z"/><path fill="#231F20" d="M169.708,60.956528 C168.512554,60.9818986 167.335261,60.6611393 166.3179,60.032878 C164.752263,58.9687383 163.660643,57.3385857 163.2729,55.485678 L163.3338,43.874078 C161.733407,44.1152844 160.098492,43.8076198 158.69525,43.001178 C157.365647,42.1101674 156.468027,40.7048763 156.21865,39.123878 C155.631582,36.1136016 155.322399,33.0557432 155.295,29.988878 C155.24425,27.502128 155.1732,24.416528 156.48255,21.950078 C157.268441,20.5688819 158.226851,19.2932755 159.3347,18.153978 C160.6339,16.743128 163.66875,12.185778 163.6992,12.145178 C163.778569,12.0197928 163.91621,11.9433259 164.0646,11.942178 C164.212256,11.9245925 164.357312,11.9912398 164.44015,12.114728 C167.863287,15.8919219 172.700548,18.0789813 177.79755,18.153978 C177.921045,18.1532591 178.039063,18.2048922 178.12235,18.296078 C178.210876,18.3804128 178.25893,18.4986987 178.2543,18.620878 C178.098247,22.3443731 179.090372,26.0258649 181.0963,29.166728 C181.397104,29.5671038 181.608263,30.0275007 181.71545,30.516678 L181.71545,30.516678 C181.71545,30.516678 181.71545,30.983578 182.54775,51.435828 C182.557404,51.4929396 182.557404,51.5512664 182.54775,51.608378 C180.727229,55.9720179 177.016758,59.2677241 172.4688,60.560678 C171.57152,60.8208413 170.642232,60.9540848 169.708,60.956528 Z M164.2067,55.404478 C164.580797,56.9607322 165.507888,58.327921 166.81525,59.251328 C168.465567,60.1574355 170.427131,60.3054781 172.19475,59.657328 C176.402869,58.4158474 179.849274,55.3816742 181.61395,51.364778 C181.55305,49.821978 180.7918,30.699378 180.78165,30.536978 C180.652419,30.2223161 180.489041,29.9227893 180.29445,29.643778 C178.284712,26.4837212 177.250348,22.8016683 177.3205,19.057328 C172.324473,18.8923442 167.590164,16.7837558 164.1255,13.180478 C162.854281,15.1252714 161.482154,17.0022048 160.01475,18.803578 C158.977246,19.8704115 158.073971,21.0600079 157.325,22.345928 C156.1273,24.599228 156.1882,27.420928 156.2491,29.917828 C156.2747,32.9463612 156.573646,35.9664005 157.1423,38.941178 C157.340451,40.2662452 158.074449,41.4516507 159.1723,42.219628 C160.552688,42.9665188 162.154127,43.1968381 163.68905,42.869228 C163.824827,42.8361756 163.968221,42.8701373 164.07475,42.960578 C164.18736,43.0488206 164.254422,43.1829443 164.25745,43.325978 L164.17625,55.404478 L164.2067,55.404478 Z"/><path fill="#231F20" d="M163.89205,49.253578 C163.89205,49.253578 168.7945,49.476878 171.95115,46.208578 C173.777538,44.5247331 174.772118,42.1236387 174.67135,39.641528 C174.67135,39.641528 169.37305,43.204178 163.8616,43.325978 L163.89205,49.253578 Z"/><path fill="#231F20" d="M164.1052,49.710328 L163.87175,49.710328 C163.634678,49.7048132 163.445386,49.5110139 163.44545,49.273878 L163.3744,43.336128 C163.3744,43.0933877 163.568172,42.8950448 163.81085,42.889528 C169.1193,42.767728 174.3364,39.316728 174.38715,39.286278 C174.519048,39.2101269 174.681552,39.2101269 174.81345,39.286278 C174.95521,39.3478917 175.055031,39.4784272 175.07735,39.631378 C175.07735,39.773478 175.5341,43.183878 172.2658,46.563828 C170.04995,48.6206694 167.128316,49.7471697 164.1052,49.710328 Z M164.2676,43.752278 L164.3285,48.827278 C167.040029,48.7849555 169.639823,47.7399757 171.62635,45.893928 C173.101549,44.4555876 174.012582,42.5362975 174.1943,40.483978 C171.173432,42.3063725 167.78025,43.4235552 164.2676,43.752278 L164.2676,43.752278 Z"/><path fill="#FFF" d="M165.1811,25.583778 C165.1811,25.583778 161.29365,31.348978 162.2173,32.363978 C163.14095,33.378978 165.7292,32.709078 165.7292,32.709078"/><path fill="#231F20" d="M164.01385,33.378978 C163.237926,33.4429541 162.469118,33.1903457 161.88235,32.678628 C160.86735,31.572278 163.28305,27.603628 164.80555,25.309728 C164.891124,25.1697216 165.046583,25.0879177 165.210437,25.0966728 C165.374291,25.1054278 165.520147,25.2033315 165.590315,25.3516595 C165.660483,25.4999876 165.64366,25.6748482 165.5465,25.807078 C163.62815,28.679528 162.22745,31.602728 162.55225,32.069628 C163.1511,32.729378 165.00855,32.435028 165.59725,32.282778 C165.828194,32.2393233 166.053304,32.382273 166.112187,32.6097729 C166.171069,32.8372728 166.043577,33.0714845 165.82055,33.145528 C165.229173,33.2918988 164.623009,33.3702234 164.01385,33.378978 L164.01385,33.378978 Z"/><path fill="#FFF" d="M161.0399,35.652578 C161.0399,35.652578 164.52135,40.808778 170.65195,35.845428"/><path fill="#231F20" d="M165.53635 38.4539791C165.247687 38.4541507 164.959377 38.4337993 164.6736 38.393078 163.045617 38.1242701 161.58795 37.227805 160.6136 35.896178 160.476497 35.6915229 160.530993 35.4145009 160.7354 35.277028 160.832824 35.208392 160.954078 35.1825792 161.07101 35.2055823 161.187943 35.2285854 161.290384 35.2984037 161.35455 35.398828 162.195682 36.5078353 163.424627 37.258253 164.7954 37.499878 166.5006 37.753628 168.3682 37.073578 170.317 35.469878 170.409748 35.395536 170.528306 35.3612351 170.646421 35.3745706 170.764536 35.3879062 170.872462 35.4477779 170.9463 35.540928 171.024503 35.6312618 171.062252 35.7497063 171.050743 35.8686322 171.039234 35.9875582 170.979473 36.0965661 170.8854 36.170228 169.416331 37.5212765 167.528202 38.3274037 165.53635 38.4539791L165.53635 38.4539791ZM149.611 118.55826 149.611 118.55826C149.362665 118.541457 149.173103 118.329329 149.1847 118.080728L152.0673 70.132128C152.069585 70.0134402 152.121255 69.9010802 152.209874 69.8220941 152.298492 69.7431081 152.416032 69.7046503 152.5342 69.715978 152.655571 69.7182727 152.770503 69.7710125 152.851391 69.8615299 152.932279 69.9520473 152.971814 70.0721635 152.9605 70.193028L150.0779 118.131478C150.072637 118.249967 150.020457 118.361495 149.932869 118.441467 149.84528 118.52144 149.729478 118.563286 149.611 118.55826L149.611 118.55826Z"/><path fill="#231F20" d="M204.53265,124.201178 C204.8879,125.216178 216.36755,158.406678 203.203,170.261878 C189.16555,182.888478 118.1663,176.240228 118.1663,176.240228 L110.4117,152.316678 C109.54895,143.821128 109.1125,137.832628 125.7179,136.279678 L148.9614,131.519328 L149.611,118.111178 L204.53265,124.201178 Z"/><path fill="#231F20" d="M157.0002,178.432628 L155.38635,178.432628 C136.10135,178.351428 118.2678,176.696978 118.09525,176.686828 C117.914734,176.669958 117.76233,176.545628 117.70955,176.372178 L109.9651,152.458778 C109.4982,148.002928 109.0719,143.882028 111.5485,140.867478 C113.8018,138.116828 118.2881,136.523278 125.64685,135.792478 L148.50465,131.113328 L149.13395,118.040128 C149.141195,117.91701 149.200192,117.802705 149.29635,117.725478 C149.386937,117.642787 149.51005,117.60548 149.6313,117.623978 L204.55295,123.713978 C204.727001,123.733082 204.873833,123.852134 204.9285,124.018478 L204.5022,124.160578 L204.9488,124.089528 C206.1465,127.631878 216.2762,159.025828 203.47705,170.546078 C197.722,175.793628 182.0707,178.432628 157.0002,178.432628 Z M118.50125,175.813928 C123.4849,176.260528 189.6223,181.903928 202.90865,169.926928 C215.08865,158.964928 205.62885,128.910778 204.1977,124.607178 L150.0373,118.638978 L149.41815,131.570078 C149.403925,131.775237 149.254347,131.94559 149.05275,131.986228 L125.80925,136.746578 C118.6535,137.416478 114.36005,138.918678 112.26915,141.466328 C110.026,144.186528 110.432,148.134878 110.8583,152.306528 L118.50125,175.813928 Z"/><path fill="#FFF" d="M129.95045,154.620728 C129.95045,154.620728 126.266,136.868378 112.868,140.887778 C99.47,144.907178 129.28055,210.922778 129.28055,215.256828 C129.28055,219.590878 117.89225,232.674228 117.89225,232.674228 C121.145157,232.500069 124.387158,232.161302 127.6058,231.659228 C131.12785,230.989328 140.8008,216.921428 141.17635,215.419228 C141.5519,213.917028 134.47735,167.358978 129.95045,154.620728 Z"/><path fill="#231F20" d="M117.89225,233.141128 C117.714627,233.139485 117.553323,233.037194 117.4761,232.877228 C117.396538,232.709017 117.424453,232.509623 117.54715,232.369728 C120.6835,228.766478 128.8238,218.687528 128.8238,215.256828 C128.8238,214.241828 126.88515,209.116078 124.42885,202.599778 C117.32385,183.720778 105.40775,152.113678 109.95495,142.917778 C110.487008,141.733873 111.498638,140.833006 112.73605,140.441178 C115.861226,139.35881 119.302567,139.688497 122.1654,141.344528 C128.2554,144.968078 130.2854,153.798578 130.39705,154.539528 C134.74125,166.790578 142.06955,213.592228 141.6331,215.561328 C141.31845,216.972178 131.4831,231.435928 127.69715,232.166728 C124.45839,232.671131 121.195996,233.009905 117.9227,233.181728 L117.89225,233.141128 Z M116.65395,140.776128 C115.414536,140.783758 114.183118,140.975312 112.99995,141.344528 C112.002829,141.668179 111.19542,142.408921 110.78725,143.374528 C106.4126,152.205028 118.6941,184.806828 125.30175,202.315578 C128.22495,210.080328 129.74745,214.180928 129.74745,215.297428 C129.74745,219.164578 121.4955,229.192778 118.958,232.187028 C120.89665,232.055078 124.95665,231.740428 127.5246,231.253228 C130.76245,230.634078 140.40495,216.799628 140.7196,215.358328 C141.03425,213.917028 134.11195,167.744678 129.5546,154.823728 C129.5546,154.823728 129.5546,154.823728 129.5546,154.762828 C129.5546,154.701928 127.59565,145.627828 121.7391,142.176828 C120.207578,141.244316 118.447002,140.755853 116.65395,140.765824 L116.65395,140.776128 Z"/><path fill="#231F20" d="M117.22235,231.557728 C115.320376,231.756934 113.664885,232.945491 112.868,234.683928 C111.63985,237.586828 116.928,239.261578 121.8,239.484878 C126.062315,239.648931 130.323043,239.121053 134.41645,237.921778 C136.052679,237.119525 137.499062,235.977643 138.65915,234.572278 C138.65915,234.572278 138.65915,238.145078 139.8873,238.033428 C141.645494,237.944955 143.397393,237.758583 145.13485,237.475178 C145.58145,237.251878 143.6834,223.407278 141.17635,215.419228 C141.17635,215.419228 131.02635,229.771328 127.8291,230.441228 C124.63185,231.111128 117.22235,231.557728 117.22235,231.557728 Z"/><path fill="#231F20" d="M123.221,239.962057 C122.74395,239.962057 122.25675,239.962057 121.7797,239.962057 C118.37945,239.809678 113.93375,238.886028 112.6447,236.805278 C112.209917,236.126575 112.152478,235.272645 112.49245,234.541828 C113.343561,232.640845 115.149271,231.342749 117.22235,231.141578 L117.22235,231.141578 C117.2934,231.141578 124.59125,230.684828 127.75805,230.035228 C130.27525,229.507428 138.05015,219.144278 140.83125,215.195928 C140.926485,215.052472 141.09867,214.980395 141.2677,215.013228 C141.435115,215.037318 141.573539,215.155967 141.62295,215.317728 C142.941071,219.901026 143.971611,224.562186 144.70855,229.273978 C146.04835,237.505628 145.60175,237.728928 145.33785,237.860878 C143.931679,238.180238 142.496317,238.353706 141.05455,238.378528 L139.9279,238.469878 C139.631896,238.497131 139.338822,238.393257 139.12605,238.185678 C138.581367,237.454781 138.282823,236.569812 138.27345,235.658328 C137.236847,236.790787 135.97954,237.699226 134.57885,238.327778 C130.892364,239.421247 127.066225,239.971746 123.221,239.962057 Z M117.2528,232.004328 C115.516554,232.180884 114.005073,233.267141 113.28415,234.856478 C113.05646,235.319038 113.091232,235.867666 113.3755,236.297778 C114.27885,237.728928 117.75015,238.855578 121.8203,239.038278 C126.024439,239.201142 130.227122,238.680091 134.2642,237.495478 C135.828124,236.723904 137.211604,235.630955 138.3242,234.288078 C138.444,234.142233 138.64255,234.087445 138.820191,234.151214 C138.997832,234.214982 139.116207,234.383538 139.1159,234.572278 C139.1159,235.587278 139.30875,237.150378 139.73505,237.536078 C139.766638,237.569469 139.810897,237.587911 139.85685,237.586828 L140.99365,237.495478 C142.00865,237.414278 144.0894,237.251878 144.76945,237.119928 C144.85065,235.313228 143.2165,223.874178 141.0241,216.424078 C138.7505,219.590878 130.8741,230.258528 127.9306,230.877678 C124.392472,231.432004 120.828704,231.808029 117.2528,232.004328 L117.2528,232.004328 Z"/><path fill="#FFF" d="M160.776,215.480128 C160.776,215.480128 154.96005,158.081878 152.28045,147.363478 C149.60085,136.645078 134.19315,133.295578 129.50385,146.246978 C124.81455,159.198378 148.03775,210.120928 146.25135,215.480128 C144.46495,220.839328 137.76595,231.303978 137.76595,231.303978 C137.76595,231.303978 144.87095,234.876778 150.04745,231.303978 C155.22395,227.731178 160.776,215.480128 160.776,215.480128 Z"/><path fill="#231F20" d="M144.56645,233.394878 C142.143188,233.338336 139.758177,232.778377 137.56295,231.750578 C137.445798,231.688809 137.35812,231.582865 137.31935,231.456228 C137.289075,231.327921 137.310979,231.192843 137.38025,231.080678 C137.44115,230.979178 144.0691,220.575428 145.8149,215.327878 C146.45435,213.409528 143.1962,203.888828 139.7249,193.820028 C133.6349,176.159028 126.1239,154.235028 129.05725,146.115028 C131.08725,140.400578 135.5634,137.142428 140.91245,137.426628 C146.574938,137.784274 151.354163,141.766961 152.72705,147.272128 C155.38635,157.899178 161.1617,214.881278 161.2226,215.449678 C161.241978,215.529722 161.241978,215.613234 161.2226,215.693278 C160.98915,216.200778 155.52845,228.127028 150.3418,231.730278 C148.637541,232.874188 146.618099,233.456242 144.56645,233.394878 L144.56645,233.394878 Z M138.47645,231.131428 C140.12075,231.821628 145.70325,233.811028 149.814,230.948728 C154.53375,227.670278 159.75085,216.637228 160.3294,215.398928 C160.0249,212.353928 154.4424,157.797678 151.8643,147.475128 C150.588794,142.368303 146.155416,138.673821 140.9023,138.340128 C136.01,138.076228 131.89925,141.111078 129.97075,146.460128 C127.14905,154.245178 134.94425,176.971028 140.6384,193.566278 C145.0029,206.263928 147.42875,213.561778 146.7284,215.672978 C145.1044,220.402878 139.7655,229.030378 138.446,231.131428 L138.47645,231.131428 Z"/><path fill="#231F20" d="M137.76595,231.303978 C135.729555,232.25327 133.877344,233.555659 132.2951,235.150828 C130.45795,237.333078 128.7832,238.337928 131.2801,240.012678 C133.777,241.687428 149.5501,240.510028 151.71205,239.840128 C153.874,239.170228 157.57875,233.983578 157.57875,233.983578 C157.57875,233.983578 157.4062,239.840128 158.0761,240.012678 C159.56274,239.951697 161.040667,239.75464 162.49135,239.423978 C162.994898,231.420584 162.43171,223.385768 160.8166,215.530878 C160.8166,215.530878 155.38635,227.812378 148.54525,230.288978 C141.70415,232.765578 137.76595,231.303978 137.76595,231.303978 Z"/><path fill="#231F20" d="M138.446,241.342328 C135.04575,241.342328 132.08195,241.098728 131.04665,240.418678 C130.313087,240.050911 129.778516,239.378985 129.58505,238.581528 C129.4734,237.647728 130.19405,236.845878 131.1177,235.841028 L131.96015,234.897078 C133.576259,233.241702 135.482121,231.89659 137.58325,230.928428 C137.693857,230.883299 137.817743,230.883299 137.92835,230.928428 C137.92835,230.928428 141.7955,232.329128 148.393,229.913428 C154.9905,227.497728 160.3091,215.429378 160.35985,215.307578 C160.440782,215.131698 160.623807,215.025951 160.8166,215.043678 C161.011,215.06513 161.170168,215.207973 161.21245,215.398928 C162.824174,223.298868 163.387277,231.376828 162.8872,239.423978 C162.876743,239.619531 162.734401,239.782806 162.5421,239.819828 C161.053057,240.214032 159.524246,240.438757 157.98475,240.489728 C157.68025,240.408528 157.07125,240.256278 157.11185,235.414728 C155.87355,237.018428 153.51875,239.809678 151.85415,240.327328 C147.42173,241.046066 142.936106,241.385629 138.446,241.342328 L138.446,241.342328 Z M137.7964,231.811478 C135.875348,232.719771 134.129807,233.960205 132.6402,235.475628 C132.34585,235.820728 132.0515,236.145528 131.7876,236.439878 C131.0162,237.282328 130.4072,237.942078 130.47825,238.469878 C130.47825,238.825128 130.86395,239.220978 131.49325,239.667578 C133.74655,241.169778 149.1035,240.195378 151.5395,239.444278 C153.21425,238.936778 156.1679,235.160978 157.17275,233.750128 C157.28647,233.587826 157.493546,233.519878 157.681317,233.58325 C157.869088,233.646623 157.992639,233.826158 157.98475,234.024178 C157.866894,235.892779 157.958817,237.768702 158.2588,239.616828 C159.510546,239.506686 160.752306,239.303119 161.9737,239.007828 C162.393698,231.611531 161.913124,224.191603 160.54255,216.911278 C158.9693,220.159278 154.37135,228.654828 148.64675,230.745728 C142.51615,233.009178 138.67945,232.085528 137.7964,231.811478 L137.7964,231.811478 Z"/><path fill="#FFF" d="M207.53705,148.622078 C208.2374,149.637078 210.4704,171.591528 210.4704,171.591528 C210.4704,171.591528 235.3582,173.844828 235.71345,172.099028 C236.0687,170.353228 223.02595,165.917678 223.02595,165.917678 L218.96595,148.510428"/><path fill="#231F20" d="M230.6892,173.225678 C228.8216,173.225678 226.31455,173.154628 222.9346,172.961778 C216.73295,172.626828 210.4907,172.068578 210.4298,172.058428 C210.206165,172.040166 210.027145,171.865408 210.0035,171.642278 C209.16105,163.349728 207.63855,149.819778 207.1412,148.865678 C207.072564,148.76378 207.047872,148.638528 207.072701,148.518204 C207.09753,148.397881 207.169785,148.292634 207.27315,148.226228 C207.492462,148.090017 207.780339,148.15299 207.92275,148.368328 C208.61295,149.383328 210.31815,165.623328 210.88655,171.165228 C221.9602,172.180228 233.8154,172.697878 235.24655,171.936628 C234.8101,170.921628 228.578,168.282628 222.88385,166.354128 C222.734539,166.306555 222.622192,166.182587 222.5895,166.029328 L218.5295,148.611928 C218.472287,148.362745 218.626124,148.11389 218.8746,148.053678 C219.125916,148.002825 219.372477,148.159728 219.43285,148.408928 L223.49285,165.562428 C228.56785,167.277778 236.60665,170.343078 236.24125,172.180228 C236.07885,172.626828 235.95705,173.225678 230.6892,173.225678 Z"/><path fill="#E0E0E0" d="M210.6937,70.933978 L227.67465,153.707228 L204.2586,154.316228 C204.2586,154.316228 196.1386,110.488528 195.64125,103.911328 C195.1439,97.334128 210.6937,70.933978 210.6937,70.933978 Z"/><circle cx="158.787" cy="24.488" r="5.288" fill="#FFF"/><path fill="#231F20" d="M158.79675,30.242628 L158.5633,30.242628 C156.241199,30.1547187 154.200742,28.6765681 153.393506,26.4975202 C152.58627,24.3184723 153.171252,21.8677186 154.875641,20.2881821 C156.580031,18.7086456 159.068127,18.3114363 161.179592,19.2817951 C163.291056,20.2521538 164.61001,22.3989559 164.52135,24.721028 L164.05445,24.721028 L164.52135,24.721028 C164.396358,27.8000858 161.868182,30.2342941 158.7866,30.242628 L158.79675,30.242628 Z M158.79675,19.666328 C155.929119,19.7192351 153.639693,22.072906 153.666147,24.9409031 C153.692602,27.8089003 156.025056,30.1199386 158.893175,30.1199386 C161.761294,30.1199386 164.093748,27.8089003 164.120203,24.9409031 C164.146657,22.072906 161.857231,19.7192351 158.9896,19.666328 L158.79675,19.666328 Z"/><circle cx="170.439" cy="24.954" r="5.288" fill="#FFF"/><path fill="#231F20" d="M170.4388 30.6993797 170.20535 30.6993797C167.889025 30.5886604 165.864495 29.1008814 165.067025 26.9233458 164.269555 24.7458103 164.854388 22.302415 166.55135 20.721928 168.261453 19.1445028 170.753098 18.7518718 172.865424 19.7269624 174.97775 20.702053 176.295211 22.8530407 176.204 25.177778L176.204 25.177778C176.083987 28.2630692 173.546724 30.7017113 170.4591 30.6993797L170.4388 30.6993797ZM170.4388 20.123078C167.776097 20.0726268 165.576651 22.1902752 165.5262 24.852978 165.475749 27.5156809 167.593397 29.7151268 170.2561 29.765578 171.535925 29.8289807 172.786141 29.3670241 173.71725 28.486678 174.658778 27.6214416 175.214436 26.4150779 175.26005 25.137178L175.26005 25.137178C175.339822 22.487317 173.260941 20.2722649 170.61135 20.183978L170.4388 20.123078ZM133.15785 111.990744C133.029219 111.991818 132.906658 111.936108 132.8229 111.838478L110.229 85.793578C110.149112 85.7028513 110.109416 85.5836145 110.11898 85.4631074 110.128544 85.3426002 110.186551 85.2311177 110.27975 85.154128 110.36204 85.0685226 110.475657 85.0201412 110.5944 85.0201412 110.713143 85.0201412 110.82676 85.0685226 110.90905 85.154128L133.50295 111.199028C133.582305 111.288049 133.621777 111.405664 133.612191 111.524534 133.602605 111.643404 133.544795 111.753174 133.4522 111.828328 133.381287 111.921447 133.274439 111.980398 133.15785 111.990744L133.15785 111.990744Z"/><polygon fill="#E6E7E8" points="91.309 35.165 112.736 26.944 114.665 36.769 93.076 43.702"/><ellipse cx="158.582" cy="23.898" fill="#231F20" rx="1.248" ry="1" transform="rotate(-87.75 158.582 23.898)"/><ellipse cx="170.519" cy="24.615" fill="#231F20" rx="1.248" ry="1" transform="rotate(-87.75 170.52 24.615)"/><path fill="#231F20" d="M186.2728,29.227628 C186.033897,29.2233354 185.836789,29.0393675 185.81605,28.801328 C185.5826,26.020228 178.48775,25.939028 175.76755,26.142028 C175.644674,26.1532372 175.522489,26.1142561 175.428807,26.0339572 C175.335125,25.9536582 175.277916,25.8388732 175.2702,25.715728 C175.273926,25.4803349 175.452319,25.2845379 175.68635,25.258978 C176.78255,25.177778 186.3743,24.568778 186.72955,28.760728 C186.740799,28.8846599 186.702109,29.0079547 186.622069,29.1032401 C186.542029,29.1985255 186.427263,29.2579165 186.30325,29.268228 L186.2728,29.227628 Z"/><path fill="#FFF" d="M176.9348,29.481378 C177.123707,28.5846849 177.597194,27.7729929 178.28475,27.167178 C178.95146,26.63835 179.703081,26.2265029 180.5076,25.949178 C180.932143,25.7580252 181.391967,25.6577628 181.85755,25.654828 C182.185399,25.6957963 182.502372,25.7991571 182.79135,25.959328 C183.50054,26.2783278 184.072751,26.8397423 184.4052,27.542728 C184.603302,28.1338849 184.655536,28.7641752 184.55745,29.379878 C184.502573,30.0554402 184.359249,30.7208753 184.13115,31.359128 C183.649073,32.6446744 182.666703,33.680047 181.408239,34.2289515 C180.149775,34.7778561 178.722608,34.7934513 177.45245,34.272178"/><path fill="#231F20" d="M179.3505,35.043578 C178.654892,35.0411564 177.966054,34.906833 177.3205,34.647728 C177.177359,34.5996751 177.072709,34.4761562 177.048822,34.3270659 C177.024935,34.1779757 177.085758,34.0279452 177.206722,33.9375782 C177.327686,33.8472112 177.488807,33.8314372 177.625,33.896628 C178.79877,34.3762983 180.116372,34.3623981 181.279761,33.8580717 C182.44315,33.3537454 183.354027,32.4016055 183.80635,31.217028 C184.02334,30.6120997 184.156526,29.9803217 184.2022,29.339278 C184.295505,28.7860368 184.253719,28.2184405 184.0804,27.684828 C183.781561,27.0783561 183.278372,26.5967328 182.6594,26.324728 C182.418446,26.1869467 182.153006,26.0973177 181.87785,26.060828 C181.474226,26.0630491 181.075923,26.1531003 180.7106,26.324728 C179.948933,26.5891393 179.235748,26.9765908 178.5994,27.471678 C177.978488,28.0190151 177.55123,28.7524747 177.3814,29.562578 C177.330916,29.777325 177.12163,29.9153653 176.90435,29.877228 C176.686363,29.8314469 176.545964,29.6185847 176.5897,29.400178 C176.795615,28.4160977 177.315689,27.5255606 178.0716,26.862678 C178.770508,26.302929 179.560077,25.8669495 180.4061,25.573628 C180.889249,25.3512584 181.417258,25.2435724 181.9489,25.258978 C182.32725,25.2997427 182.693328,25.417164 183.0248,25.604078 C183.820685,25.9616621 184.459262,26.5966315 184.82135,27.390478 C185.047864,28.0420376 185.107194,28.7400348 184.9939,29.420478 C184.941266,30.1345762 184.791001,30.8380902 184.5473,31.511378 C184.002313,32.8723965 182.945568,33.9655812 181.6038,34.556378 C180.895156,34.8749344 180.127448,35.0409253 179.3505,35.043578 L179.3505,35.043578 Z"/><line x1="203.924" x2="190.14" y1="152.317" y2="68.173" fill="#FFF"/><path fill="#231F20" d="M203.92365,152.783578 C203.69826,152.782112 203.506094,152.619838 203.4669,152.397878 L189.6832,68.244228 C189.662652,68.1243897 189.690734,68.0013046 189.761225,67.9022366 C189.831716,67.8031685 189.938797,67.7362947 190.05875,67.716428 C190.180125,67.6928655 190.305868,67.7195163 190.407248,67.7902914 C190.508629,67.8610665 190.576985,67.9699188 190.5967,68.091978 L204.3804,152.245628 C204.400784,152.366982 204.37134,152.491427 204.298736,152.590779 C204.226132,152.690132 204.116512,152.755986 203.9947,152.773428 L203.92365,152.783578 Z"/><path fill="#FFF" d="M162.2985,132.595228 C162.231497,132.608626 162.162503,132.608626 162.0955,132.595228 C156.78705,130.220128 149.1644,132.036978 149.0832,132.047128 C148.953919,132.080796 148.816529,132.061039 148.701973,131.992306 C148.587418,131.923572 148.505331,131.811643 148.4742,131.681728 C148.440618,131.549753 148.461484,131.409818 148.53211,131.293382 C148.602735,131.176946 148.717192,131.093779 148.84975,131.062578 C149.17455,130.981378 156.88855,129.144228 162.51165,131.671578 C162.76629,131.786888 162.879742,132.086402 162.7654,132.341478 C162.668369,132.505586 162.488986,132.603077 162.2985,132.595228 Z"/><line x1="180.213" x2="191.642" y1="109.037" y2="115.706" fill="#FFF"/><path fill="#231F20" d="M191.64215,116.172528 C191.558793,116.174019 191.477093,116.149154 191.4087,116.101478 L179.9798,109.432928 C179.76092,109.304836 179.684313,109.025445 179.80725,108.803628 C179.939239,108.583409 180.221846,108.50715 180.4467,108.631078 L191.92635,115.299628 C192.146569,115.431617 192.222828,115.714224 192.0989,115.939078 C192.003256,116.097232 191.826356,116.187648 191.64215,116.172528 L191.64215,116.172528 Z"/><line x1="161.355" x2="154.493" y1="106.175" y2="111.707" fill="#FFF"/><path fill="#231F20" d="M154.49315,112.163278 C154.350806,112.167305 154.215075,112.10321 154.12775,111.990728 C154.049631,111.895727 154.013128,111.773234 154.026501,111.650968 C154.039874,111.528702 154.101992,111.416997 154.1988,111.341128 L161.0602,105.819528 C161.184943,105.68575 161.376314,105.637135 161.549781,105.695156 C161.723249,105.753178 161.846859,105.907148 161.866011,106.089056 C161.885163,106.270964 161.79633,106.447302 161.63875,106.540178 L154.77735,112.061778 C154.698162,112.129132 154.59709,112.165229 154.49315,112.163278 L154.49315,112.163278 Z"/><path fill="#FFF" d="M70.83685,205.685378 C73.0061095,203.742603 75.4604899,202.144004 78.1144,200.945328 C78.3377,208.730378 75.18105,215.886128 72.25785,220.788578 L62.7676,220.788578"/><path fill="#231F20" d="M72.25785,221.316378 L62.7676,221.316378 C62.6276187,221.316378 62.4933707,221.260771 62.394389,221.161789 C62.2954073,221.062807 62.2398,220.928559 62.2398,220.788578 C62.2398,220.648597 62.2954073,220.514349 62.394389,220.415367 C62.4933707,220.316385 62.6276187,220.260778 62.7676,220.260778 L71.9635,220.260778 C74.59235,215.784628 77.59675,209.095778 77.6069,201.757328 C75.2841644,202.909371 73.1238209,204.363252 71.18195,206.081228 C70.979941,206.282539 70.653159,206.282539 70.45115,206.081228 C70.2486527,205.875751 70.2486527,205.545755 70.45115,205.340278 C72.6599704,203.34866 75.1669094,201.71504 77.88095,200.498728 C78.0394637,200.436301 78.2183631,200.454225 78.3613412,200.546858 C78.5043193,200.639492 78.5937926,200.795443 78.6016,200.965628 C78.8249,208.994278 75.4957,216.342878 72.66385,221.093078 C72.5712444,221.227307 72.4208014,221.31005 72.25785,221.316378 L72.25785,221.316378 Z"/><path fill="#FFF" d="M57.23585,207.786428 C59.57035,195.606428 69.1012,187.953328 69.1012,187.953328 C70.8800957,193.684374 71.470696,199.718168 70.83685,205.685378 C70.3424942,210.831299 69.2420543,215.900818 67.5584,220.788578 L57.33735,220.788578"/><path fill="#231F20" d="M67.5584,221.316551 L57.33735,221.316551 C57.1982839,221.316551 57.0650557,221.260476 56.9676803,221.161191 C56.870305,221.061906 56.8169732,220.927617 56.8197,220.788578 C56.8196468,220.501 57.0498255,220.266308 57.33735,220.260778 L67.18285,220.260778 C68.7843929,215.524912 69.8367377,210.62078 70.3192,205.644778 C70.913771,200.012894 70.4140196,194.319174 68.84745,188.876978 C66.75655,190.764878 59.71245,197.788678 57.74335,207.877778 C57.7196018,208.069204 57.5913875,208.231548 57.410675,208.299008 C57.2299626,208.366468 57.0267303,208.327854 56.8833524,208.198817 C56.7399745,208.069779 56.680236,207.871725 56.72835,207.684928 C59.073,195.504928 68.6952,187.628528 68.78655,187.547328 C68.9197249,187.437819 69.0993899,187.403415 69.2636,187.455978 C69.4266635,187.504173 69.5556602,187.629375 69.6087,187.790928 C71.4170605,193.589215 72.0181222,199.696555 71.3748,205.736128 C70.8737687,210.924422 69.7596497,216.03506 68.05575,220.961128 C67.9878543,221.177289 67.784897,221.322259 67.5584,221.316551 Z"/><path fill="#FFF" d="M52.1913,220.788578 L61.23495,220.788578 C61.31615,218.108978 60.70715,214.059128 57.80425,208.801428 C57.6114,208.446178 57.41855,208.111228 57.2257,207.786428 C51.9883,198.915328 47.1975,199.016802 47.1975,199.016802 C45.17765,208.344678 49.4508,216.667678 52.1913,220.788578 Z"/><path fill="#231F20" d="M61.23495,221.316392 L52.1913,221.316392 C52.0156286,221.317662 51.8512949,221.229763 51.75485,221.082928 C48.97375,216.890978 44.64985,208.436028 46.67985,198.905178 C46.7238315,198.664818 46.9328511,198.489924 47.1772,198.489028 C47.41065,198.489028 52.3334,198.489028 57.6723,207.522528 C57.86515,207.857478 58.058,208.192428 58.25085,208.537528 C61.29585,214.038828 61.82365,218.240928 61.74245,220.798728 C61.7372734,221.078537 61.5146011,221.305662 61.23495,221.316392 L61.23495,221.316392 Z M52.4755,220.301378 L60.7173,220.301378 C60.7173,217.834928 60.07785,214.018528 57.3475,209.136378 L56.7791,208.121378 C52.62775,201.097578 48.83165,199.869428 47.6441,199.656278 C45.8983,208.375128 49.82635,216.210928 52.4755,220.270928 L52.4755,220.301378 Z"/><polygon fill="#231F20" points="53.836 235.131 71.568 235.131 74.43 220.799 50.983 220.799"/></g></svg>