<svg xmlns="http://www.w3.org/2000/svg" viewBox="0 0 400 300" width="406" height="306" class="illustration styles_illustrationTablet__1DWOa"><g id="_493_conference_presentation_flatline" data-name="#493_conference_presentation_flatline"><path d="M265.56,72a30.71,30.71,0,0,0-2.4-10.21c-.2-.49-.67-1.06-1.14-.81.27,1.49.54,3,.82,4.47a26.56,26.56,0,0,1-7.07-6.87,2,2,0,0,0-.67-.68.63.63,0,0,0-.84.23.89.89,0,0,0,.15.76A26.48,26.48,0,0,0,257.24,63c-1.37-2-4.22-5.45-4.88-4.64s1,3.93,2.46,5.77l-3.43-3.81c-.31-.35-.83-.72-1.2-.43s-.12.86.14,1.24l2.38,3.56c-1.22-1.07-2.9-3.62-3.78-3s1.89,3.9,3.65,5.18,3.75,2.29,5.2,3.92A17.84,17.84,0,0,1,260,74.22" fill="#fff"></path><path d="M260,74.68a.48.48,0,0,1-.41-.25,16.87,16.87,0,0,0-2.14-3.37,17.37,17.37,0,0,0-3.52-2.77c-.54-.35-1.08-.71-1.61-1.08-1.38-1-4-3.81-4-5.2a.84.84,0,0,1,.37-.73,1.11,1.11,0,0,1,1.22,0c-.47-.73-.46-1.39,0-1.77s1.19-.22,1.82.47l.4.45c-.38-1-.53-1.89-.13-2.39a.84.84,0,0,1,.67-.28,2.08,2.08,0,0,1,1.09.51,1,1,0,0,1,.08-.37.92.92,0,0,1,.54-.5,1.15,1.15,0,0,1,.91,0,2.32,2.32,0,0,1,.85.82,26.08,26.08,0,0,0,6.05,6.13c-.21-1.13-.41-2.25-.61-3.38a.45.45,0,0,1,.23-.49.9.9,0,0,1,.77,0,2,2,0,0,1,1,1.09A31.36,31.36,0,0,1,266,71.94a.46.46,0,0,1-.91,0,30.31,30.31,0,0,0-2.37-10,1.63,1.63,0,0,0-.11-.23c.21,1.21.44,2.42.66,3.62a.48.48,0,0,1-.2.47.45.45,0,0,1-.5,0,26.9,26.9,0,0,1-7.2-7,1.59,1.59,0,0,0-.49-.53.29.29,0,0,0-.23,0s0,.08.14.35c.38.68.78,1.34,1.22,2,.89,1.1,1.58,2.1,1.59,2.13a.46.46,0,0,1-.1.62.47.47,0,0,1-.63-.08c-.57-.69-1.12-1.41-1.63-2.16-1.19-1.45-2.27-2.43-2.63-2.43h0c-.24.34.74,2.82,2.55,5.15a.46.46,0,0,1-.7.59l-3.43-3.82c-.27-.3-.51-.4-.56-.38s0,.27.22.64l2.38,3.55a.47.47,0,0,1-.08.6.46.46,0,0,1-.6,0,15.14,15.14,0,0,1-1.23-1.27c-.46-.52-1.71-1.89-2-1.71-.11.48,1.79,3.08,3.66,4.43.51.37,1,.71,1.57,1.06a17.62,17.62,0,0,1,3.7,2.93A18,18,0,0,1,260.39,74a.45.45,0,0,1-.19.62A.42.42,0,0,1,260,74.68Z" fill="#231f20"></path><path d="M323.91,62,322,54.29c-2.06-8.29-4.91-16.85-14-19.42-2.69-.76-5.42-.46-7.2,2-1.84-1.54-4.7-.71-6.6.75C290,40.84,288,45.94,287.94,51c-.12,5.79-.73,11.84-3.8,16.9-1.25,2-2.87,3.88-4,6s-1.57,4.8-.43,6.92a8.22,8.22,0,0,0,2.85,2.83c5.86,3.83,13.3,4.24,20.29,3.76,7.16-.49,14.9-2.13,19.46-7.67a15.53,15.53,0,0,0,3.4-8.51C326,67.81,324.71,65.19,323.91,62Z" fill="#fff"></path><path d="M298.49,88.09c-5.13,0-11.18-.75-16.14-4a8.81,8.81,0,0,1-3-3c-1.07-2-.91-4.68.43-7.35a29.41,29.41,0,0,1,2.33-3.62c.56-.78,1.14-1.6,1.65-2.43,3.1-5.1,3.62-11.28,3.73-16.67.11-5.71,2.46-10.75,6.45-13.81,1.9-1.46,4.76-2.33,6.79-1,1.71-2,4.32-2.66,7.41-1.78,9.32,2.64,12.27,11.58,14.31,19.75l1.91,7.66c.22.88.48,1.72.73,2.53a17.45,17.45,0,0,1,1.12,7,16,16,0,0,1-3.5,8.76c-3.86,4.69-10.15,7.18-19.78,7.84C301.57,88,300.07,88.09,298.49,88.09Zm-.1-51.62A6.79,6.79,0,0,0,294.48,38c-3.76,2.89-6,7.66-6.09,13.1s-.65,11.84-3.86,17.13c-.53.86-1.12,1.68-1.69,2.48a27.51,27.51,0,0,0-2.25,3.51c-.57,1.13-1.76,4-.44,6.5a7.59,7.59,0,0,0,2.7,2.65c6.27,4.11,14.43,4.08,20,3.7,9.36-.64,15.44-3,19.13-7.51a15.08,15.08,0,0,0,3.3-8.26,16.54,16.54,0,0,0-1.09-6.61c-.25-.83-.51-1.68-.74-2.57h0l-1.91-7.67c-2.06-8.29-4.82-16.58-13.67-19.09-2-.58-4.85-.73-6.7,1.8a.46.46,0,0,1-.32.18.42.42,0,0,1-.34-.1A3.24,3.24,0,0,0,298.39,36.47Z" fill="#231f20"></path><path d="M288,71.65c-2.33,2.18-7.55,10.4-12.31,19L265.83,70l-8,2.39s7.24,38.18,14.38,39.76,16.88-15.46,16.88-15.46l10.91-30S291.48,68.38,288,71.65Z" fill="#e0e0e0"></path><path d="M316.14,123.53c-1.07-10.49-3.29-35.3-1.25-41.8,2.62-8.31,2.54-10.63,0-11.46s-9.39-5.2-14.09,0c0,0-10.81,6.08-12.9,16.55-1.54,7.67.26,27,1.32,36.71Z" fill="#fff"></path><path d="M294.78,123.53c.78-11.57,1.8-20.48,2.07-24.15.38-5.27,1.73-20.55,3.19-27.24,1.89-4.16,1.07-5.37,1.07-5.37s-10.64-1.49-13.81,14.39c-.78,3.92-2.57,23.62-4.47,42.37Z" fill="#e0e0e0"></path><path d="M300,64,300,72.14s.82,4.57,5.8,3.17a10.27,10.27,0,0,0,6.6-5.86L311.8,55.3a25.16,25.16,0,0,1-.82-7.59c-6-.1-10.8-4.66-10.8-4.66s-2.08,3.12-3,4.11a12.39,12.39,0,0,0-1.87,2.46,10.9,10.9,0,0,0-.76,5.28,33.59,33.59,0,0,0,.61,6.16C296,64.91,300,64,300,64Z" fill="#fff"></path><path d="M304,76a4.36,4.36,0,0,1-2.37-.64,5.08,5.08,0,0,1-2.11-3.17l0-7.73a4.9,4.9,0,0,1-3.08-.63,4,4,0,0,1-1.73-2.71,34.67,34.67,0,0,1-.63-6.24,11.27,11.27,0,0,1,.82-5.5,12.84,12.84,0,0,1,1.94-2.56c.86-1,2.91-4,2.93-4.05a.47.47,0,0,1,.33-.2.45.45,0,0,1,.37.12c0,.05,4.7,4.44,10.49,4.53a.45.45,0,0,1,.32.14.51.51,0,0,1,.13.33,22.94,22.94,0,0,0,.67,6.83,3.45,3.45,0,0,1,.14.73h0s0,.57.57,14.15a.57.57,0,0,1,0,.18,10.66,10.66,0,0,1-6.91,6.14A6.93,6.93,0,0,1,304,76Zm-3.58-3.89a3.76,3.76,0,0,0,5.22,2.73,9.88,9.88,0,0,0,6.27-5.5c0-1.24-.55-13.91-.56-14.05a4.1,4.1,0,0,0-.12-.55,23.37,23.37,0,0,1-.7-6.62,18.21,18.21,0,0,1-10.25-4.41,44.64,44.64,0,0,1-2.73,3.73,11.75,11.75,0,0,0-1.8,2.37,10.38,10.38,0,0,0-.71,5,32.9,32.9,0,0,0,.6,6.07A3.13,3.13,0,0,0,297,63.09a4.4,4.4,0,0,0,2.94.43.45.45,0,0,1,.39.08.46.46,0,0,1,.17.36l0,8.18Z" fill="#231f20"></path><path d="M300.05,68a7.86,7.86,0,0,0,5.45-2.07,5.7,5.7,0,0,0,1.82-4.44A15.86,15.86,0,0,1,300,64Z" fill="#231f20"></path><path d="M300.2,68.42H300a.45.45,0,0,1-.42-.44l0-4a.43.43,0,0,1,.43-.45,15.66,15.66,0,0,0,7.08-2.41.42.42,0,0,1,.42,0,.44.44,0,0,1,.26.34,6.14,6.14,0,0,1-1.94,4.81A8.17,8.17,0,0,1,300.2,68.42Zm.25-4,0,3.15a7.21,7.21,0,0,0,4.7-1.93,5.68,5.68,0,0,0,1.68-3.34A15.82,15.82,0,0,1,300.45,64.38Z" fill="#231f20"></path><path d="M302.9,52.22s-2.63,3.92-2,4.61,2.37.23,2.37.23" fill="#fff"></path><path d="M302.12,57.65a2.11,2.11,0,0,1-1.55-.52c-.71-.78.68-3.24,2-5.16a.45.45,0,0,1,.62-.12.45.45,0,0,1,.12.61c-1.2,1.79-2.15,3.71-2,4.11s1.31.21,1.91.06a.44.44,0,0,1,.54.32.44.44,0,0,1-.32.53A5.13,5.13,0,0,1,302.12,57.65Z" fill="#231f20"></path><ellipse cx="297.53" cy="51.54" rx="0.85" ry="0.45" transform="translate(234.34 346.81) rotate(-87.75)" fill="#231f20"></ellipse><ellipse cx="304.94" cy="50.9" rx="0.85" ry="0.45" transform="translate(242.1 353.61) rotate(-87.75)" fill="#231f20"></ellipse><path d="M301.11,59.13l2.09-.53s.43,3-.75,3.32S301.11,59.13,301.11,59.13Z" fill="#fff"></path><path d="M302.31,62.38a1,1,0,0,1-.63-.22c-.85-.63-1-2.61-1-3a.45.45,0,0,1,.33-.46l2.09-.53a.42.42,0,0,1,.36.06.46.46,0,0,1,.19.3c.08.58.41,3.48-1.09,3.82Zm-.73-2.91a3.88,3.88,0,0,0,.63,2,.18.18,0,0,0,.14,0c.4-.09.55-1.22.47-2.34Z" fill="#231f20"></path><path d="M309.07,51.11c.55-1.44,2.37-2,3.76-1.69a2.33,2.33,0,0,1,1.9,1.77,4.23,4.23,0,0,1,0,1.7,9,9,0,0,1-1,3,3.22,3.22,0,0,1-1,1.18,1.6,1.6,0,0,1-1.82-.12" fill="#fff"></path><path d="M311.93,57.73a2.26,2.26,0,0,1-1.29-.43.44.44,0,0,1-.11-.63.45.45,0,0,1,.63-.12,1.15,1.15,0,0,0,1.32.1,2.81,2.81,0,0,0,.85-1,8.36,8.36,0,0,0,1-2.82,4,4,0,0,0,0-1.52,1.91,1.91,0,0,0-1.55-1.44,2.91,2.91,0,0,0-3.25,1.41.45.45,0,0,1-.59.26.46.46,0,0,1-.26-.59c.63-1.64,2.67-2.29,4.28-2a2.81,2.81,0,0,1,2.26,2.12,4.64,4.64,0,0,1,0,1.87,9.32,9.32,0,0,1-1.07,3.12A3.67,3.67,0,0,1,313,57.43,1.93,1.93,0,0,1,311.93,57.73Z" fill="#231f20"></path><path d="M326.49,123.53c0-.35-.07-.69-.1-1-.86-9.68,0-42.65-2.06-49.21-1-3.13-11.53-5.43-11.53-5.43s-6.52,34.61-9.09,55.66Z" fill="#e0e0e0"></path><path d="M324.33,73.3s18.3,38.88,10.87,41.41c-3,1-27.86,1.47-27.86,1.47l-2.89-11.76,20.42-3.16Z" fill="#e0e0e0"></path><path d="M297.53,56.48a5,5,0,1,1,5-5A5,5,0,0,1,297.53,56.48Zm0-9a4,4,0,1,0,4.05,4.05A4.05,4.05,0,0,0,297.53,47.47Z" fill="#231f20"></path><path d="M306.84,55.71a5,5,0,1,1,5-5A5,5,0,0,1,306.84,55.71Zm0-9a4,4,0,1,0,4,4A4.06,4.06,0,0,0,306.84,46.7Z" fill="#231f20"></path><path d="M304.45,104.88a.46.46,0,0,1-.07-.91l19.94-3.08-4.81-20.74a.46.46,0,0,1,.34-.55.46.46,0,0,1,.55.35l4.92,21.21a.47.47,0,0,1-.07.36.46.46,0,0,1-.31.19l-20.42,3.16Z" fill="#231f20"></path><path d="M285.3,101.08h-.05a.46.46,0,0,1-.4-.51c.91-7.53,2.64-21.86,2.68-22.22l.45,0,.1-.46c.41.09.41.09-.06,4l-2.26,18.77A.46.46,0,0,1,285.3,101.08Z" fill="#231f20"></path><path d="M279.59,98.23a.45.45,0,0,1-.41-.25L267,73.51a.45.45,0,0,1,.21-.61.44.44,0,0,1,.61.2L280,97.57a.46.46,0,0,1-.2.61A.54.54,0,0,1,279.59,98.23Z" fill="#231f20"></path><path d="M311.34,93.85a.48.48,0,0,1-.3-.11.47.47,0,0,1-.05-.65l5.95-6.84-4-4.06a.44.44,0,0,1-.13-.33.43.43,0,0,1,.14-.32l4-3.73c-1.48-2.22-3.68-5.52-3.91-5.78a.46.46,0,0,1,0-.64.44.44,0,0,1,.63,0c.28.27,3.05,4.45,4.23,6.24a.43.43,0,0,1-.07.58L314,81.89l3.94,4a.47.47,0,0,1,0,.62l-6.23,7.16A.43.43,0,0,1,311.34,93.85Z" fill="#231f20"></path><path d="M296.06,92.13a.45.45,0,0,1-.37-.2l-5.05-7.19a.45.45,0,0,1,.09-.62l4.93-3.93-3-3.09a.48.48,0,0,1,0-.66l5.6-5.07a.46.46,0,0,1,.61.68l-5.24,4.76,3,3.11a.46.46,0,0,1,0,.68l-5,4,4.8,6.85a.44.44,0,0,1-.11.63A.43.43,0,0,1,296.06,92.13Z" fill="#231f20"></path><path d="M260.76,69a.46.46,0,0,1-.45-.42c-.19-2.26,2.22-3.52,2.32-3.57a.45.45,0,0,1,.62.2.46.46,0,0,1-.2.61s-2,1-1.83,2.69a.46.46,0,0,1-.42.49Z" fill="#231f20"></path><rect x="258.07" y="98.45" width="82.36" height="20.6" fill="#fff"></rect><path d="M340.43,119.51H258.07a.47.47,0,0,1-.46-.46V98.45a.46.46,0,0,1,.46-.45h82.36a.46.46,0,0,1,.46.45v20.6A.47.47,0,0,1,340.43,119.51Zm-81.9-.92H340V98.91H258.53Z" fill="#231f20"></path><rect x="261.63" y="119.05" width="75.25" height="104.13" fill="#fff"></rect><path d="M336.89,223.63H261.63a.45.45,0,0,1-.45-.45V119.05a.46.46,0,0,1,.45-.46h75.26a.46.46,0,0,1,.45.46V223.18A.45.45,0,0,1,336.89,223.63Zm-74.8-.91h74.34V119.51H262.09Z" fill="#231f20"></path><polygon points="261.63 134.21 336.98 123.18 336.88 119.05 261.63 119.05 261.63 134.21" fill="#231f20"></polygon><path d="M261.63,134.65a.43.43,0,0,1-.28-.11.42.42,0,0,1-.16-.33V119.05a.44.44,0,0,1,.44-.44h75.26a.45.45,0,0,1,.44.43l.09,4.13a.46.46,0,0,1-.38.45l-75.34,11Zm.45-15.16V133.7l74.45-10.9-.07-3.31Z" fill="#231f20"></path><rect x="68.83" y="25.06" width="165.26" height="106.77" fill="#fff"></rect><path d="M234.09,132.33H68.83a.5.5,0,0,1-.5-.5V25.06a.5.5,0,0,1,.5-.5H234.09a.5.5,0,0,1,.5.5V131.83A.5.5,0,0,1,234.09,132.33Zm-164.76-1H233.59V25.56H69.33Z" fill="#231f20"></path><path d="M195.18,99.14h0a.5.5,0,0,1-.44-.33l-21.8-60.72L148.81,85a.52.52,0,0,1-.4.27A.49.49,0,0,1,148,85L124.2,54,109.19,78a.49.49,0,0,1-.68.17L96,70.64a.5.5,0,0,1-.17-.68.49.49,0,0,1,.69-.17l12.13,7.3,15.14-24.26a.52.52,0,0,1,.4-.24.49.49,0,0,1,.42.2l23.72,31,24.27-47.2a.49.49,0,0,1,.47-.27.5.5,0,0,1,.44.33l21.78,60.67L206,74.52a.5.5,0,0,1,.91.43l-11.3,23.9A.49.49,0,0,1,195.18,99.14Z" fill="#d1d3d4"></path><circle cx="108.77" cy="77.71" r="2.98" fill="#fff"></circle><path d="M108.77,81.18a3.48,3.48,0,1,1,3.47-3.47A3.48,3.48,0,0,1,108.77,81.18Zm0-6a2.48,2.48,0,1,0,2.47,2.48A2.48,2.48,0,0,0,108.77,75.23Z" fill="#d1d3d4"></path><circle cx="124.16" cy="53.09" r="2.98" fill="#fff"></circle><path d="M124.16,56.57a3.48,3.48,0,1,1,3.48-3.48A3.48,3.48,0,0,1,124.16,56.57Zm0-6a2.48,2.48,0,1,0,2.48,2.47A2.48,2.48,0,0,0,124.16,50.62Z" fill="#d1d3d4"></path><circle cx="172.99" cy="36.84" r="2.98" fill="#fff"></circle><path d="M173,40.31a3.48,3.48,0,1,1,3.48-3.47A3.48,3.48,0,0,1,173,40.31Zm0-6a2.48,2.48,0,1,0,2.48,2.48A2.48,2.48,0,0,0,173,34.36Z" fill="#d1d3d4"></path><circle cx="195.18" cy="98.64" r="2.98" fill="#fff"></circle><path d="M195.18,102.11a3.48,3.48,0,1,1,3.47-3.47A3.47,3.47,0,0,1,195.18,102.11Zm0-6a2.48,2.48,0,1,0,2.47,2.48A2.48,2.48,0,0,0,195.18,96.16Z" fill="#d1d3d4"></path><circle cx="148.37" cy="84.74" r="2.98" fill="#fff"></circle><path d="M148.37,88.22a3.48,3.48,0,1,1,3.47-3.48A3.48,3.48,0,0,1,148.37,88.22Zm0-6a2.48,2.48,0,1,0,2.47,2.47A2.48,2.48,0,0,0,148.37,82.27Z" fill="#d1d3d4"></path><path d="M113.51,39.22H99.72a.5.5,0,0,1,0-1h13.79a.5.5,0,1,1,0,1Z" fill="#d1d3d4"></path><path d="M113.51,42.79H99.72a.5.5,0,0,1-.5-.5.5.5,0,0,1,.5-.5h13.79a.5.5,0,0,1,.5.5A.5.5,0,0,1,113.51,42.79Z" fill="#d1d3d4"></path><path d="M113.51,46.36H99.72a.5.5,0,0,1-.5-.5.5.5,0,0,1,.5-.5h13.79a.5.5,0,0,1,.5.5A.5.5,0,0,1,113.51,46.36Z" fill="#d1d3d4"></path><path d="M108.67,49.92h-9a.5.5,0,0,1-.5-.5.5.5,0,0,1,.5-.5h9a.51.51,0,0,1,.5.5A.5.5,0,0,1,108.67,49.92Z" fill="#d1d3d4"></path><path d="M206.65,53H192.86a.5.5,0,0,1,0-1h13.79a.5.5,0,0,1,0,1Z" fill="#d1d3d4"></path><path d="M206.65,56.57H192.86a.5.5,0,0,1-.5-.5.5.5,0,0,1,.5-.5h13.79a.5.5,0,0,1,.5.5A.51.51,0,0,1,206.65,56.57Z" fill="#d1d3d4"></path><path d="M202,60.14h-9.15a.5.5,0,0,1-.5-.5.5.5,0,0,1,.5-.5H202a.5.5,0,0,1,.5.5A.51.51,0,0,1,202,60.14Z" fill="#d1d3d4"></path><path d="M210.47,110H92.39a.5.5,0,0,1-.5-.5.51.51,0,0,1,.5-.5H210.47a.51.51,0,0,1,.5.5A.5.5,0,0,1,210.47,110Z" fill="#d1d3d4"></path><path d="M210.47,116.86H92.39a.5.5,0,0,1,0-1H210.47a.5.5,0,0,1,0,1Z" fill="#d1d3d4"></path><path d="M191,123.68H92.39a.5.5,0,1,1,0-1H191a.5.5,0,0,1,0,1Z" fill="#d1d3d4"></path><path d="M267.18,175.15c1-6.21,11.3-7.74,10.79-.42a10.77,10.77,0,0,1-2.75,6.87,6.37,6.37,0,0,1-6.91,1.62" fill="#fff"></path><path d="M270.46,184.18a5.74,5.74,0,0,1-2.36-.49.51.51,0,0,1-.26-.68.52.52,0,0,1,.68-.26,5.81,5.81,0,0,0,6.33-1.51,10.31,10.31,0,0,0,2.6-6.54c.18-2.49-1-4.06-3.18-4.31a6.14,6.14,0,0,0-6.58,4.84.52.52,0,0,1-.59.43.5.5,0,0,1-.43-.59,7.11,7.11,0,0,1,7.72-5.7c2.15.24,4.35,1.79,4.09,5.4a11.27,11.27,0,0,1-2.89,7.19A7.29,7.29,0,0,1,270.46,184.18Z" fill="#231f20"></path><path d="M241.5,175.15c-1-6.21-11.3-7.74-10.79-.42a10.72,10.72,0,0,0,2.75,6.87,6.37,6.37,0,0,0,6.91,1.62" fill="#fff"></path><path d="M238.22,184.18a7.29,7.29,0,0,1-5.13-2.22,11.34,11.34,0,0,1-2.9-7.19c-.25-3.61,1.95-5.16,4.1-5.4a7.1,7.1,0,0,1,7.72,5.7.52.52,0,0,1-.43.59.51.51,0,0,1-.59-.43,6.14,6.14,0,0,0-6.59-4.84c-2.19.25-3.35,1.82-3.18,4.31a10.42,10.42,0,0,0,2.6,6.54,5.83,5.83,0,0,0,6.34,1.51.52.52,0,0,1,.68.26.51.51,0,0,1-.26.68A5.77,5.77,0,0,1,238.22,184.18Z" fill="#231f20"></path><path d="M271.15,175.61l-1.75-18.25s-4.95-6.09-15.06-6.09-15.06,6.09-15.06,6.09l-.75,16.12c0,8,2,12.72,5.13,15.44l-.79,17.26s2.79,6.07,10.93,6.07a13.12,13.12,0,0,0,11.43-6.07l-.71-15.63C267.67,188.7,270,184.61,271.15,175.61Z" fill="#fff"></path><path d="M254.34,151.27c10.11,0,15.06,6.09,15.06,6.09l1.75,18.25c-1.16,9-3.48,13.09-6.63,14.94l.71,15.63a13.12,13.12,0,0,1-11.43,6.07c-8.14,0-10.93-6.07-10.93-6.07l.79-17.26c-3.1-2.72-5.13-7.49-5.13-15.44l.75-16.12s4.95-6.09,15.06-6.09m0-1c-10.48,0-15.65,6.21-15.86,6.47a1,1,0,0,0-.23.61l-.75,16.11c0,7.35,1.71,12.69,5.11,15.92l-.77,16.78a1.14,1.14,0,0,0,.09.48c.13.27,3.17,6.67,11.87,6.67a14.08,14.08,0,0,0,12.34-6.61,1,1,0,0,0,.12-.54l-.68-15c3.49-2.38,5.54-7.16,6.6-15.36a.88.88,0,0,0,0-.23l-1.76-18.25a1,1,0,0,0-.22-.55c-.22-.26-5.38-6.47-15.86-6.47Z" fill="#231f20"></path><path d="M232.8,178.92A53.84,53.84,0,0,1,231,192.31q19.2.84,38.43.24a4.72,4.72,0,0,0,2.2-.44,4.5,4.5,0,0,0,1.7-2.52c2.82-7.64,2.41-16.06,2.89-24.11.28-4.71.48-9.75-2-13.78a7.14,7.14,0,0,0-4.61-3.55,5.09,5.09,0,0,0-4.94,2.12c.81-1.21-5.31-4.3-6.07-4.53-2.39-.7-5-.45-7.49-.29-5.21.32-10.89,1.07-14.23,5.58-2.69,3.63-3.51,8.31-3.83,12.82C232.78,168.84,232.94,173.91,232.8,178.92Z" fill="#fff"></path><path d="M253.35,193.32c-7.46,0-14.93-.17-22.35-.49a.55.55,0,0,1-.39-.21.55.55,0,0,1-.08-.45,54.16,54.16,0,0,0,1.75-13.27h0c.05-1.88.07-3.78.08-5.67,0-3.09,0-6.29.25-9.42.28-4,1-9.11,3.92-13.09,3.5-4.72,9.38-5.46,14.62-5.79l.61,0a20.41,20.41,0,0,1,7.06.36c.43.12,4.92,2.24,6.17,3.92a5.54,5.54,0,0,1,4.78-1.52,7.52,7.52,0,0,1,5,3.78c2.62,4.32,2.29,9.73,2,14.08-.1,1.75-.17,3.52-.23,5.29-.22,6.35-.45,12.92-2.68,19a5,5,0,0,1-1.93,2.79,5.14,5.14,0,0,1-2.45.5Q261.45,193.32,253.35,193.32Zm-21.65-1.49c12.52.53,25.22.6,37.74.2a4.16,4.16,0,0,0,2-.37,4.11,4.11,0,0,0,1.48-2.25c2.17-5.89,2.4-12.38,2.62-18.64.06-1.79.13-3.56.23-5.32.31-5.16.38-9.74-1.88-13.49a6.6,6.6,0,0,0-4.26-3.3,4.57,4.57,0,0,0-4.42,1.9h0a.52.52,0,0,1-.86-.58h0c-.05-.8-4.75-3.44-5.78-3.74a19.51,19.51,0,0,0-6.71-.32l-.61,0c-5,.31-10.62,1-13.85,5.37-2.78,3.77-3.45,8.69-3.72,12.55-.22,3.1-.23,6.28-.25,9.36,0,1.9,0,3.8-.08,5.69A56.36,56.36,0,0,1,231.7,191.83Z" fill="#231f20"></path><path d="M236.1,202s.29-3.67,1.89-4.69,27.22-2.64,30.19,0a9.93,9.93,0,0,1,3,6.77S241.49,201.33,236.1,202Z" fill="#231f20"></path><path d="M271.15,204.49h0c-.29,0-29.68-2.71-35-2.09a.4.4,0,0,1-.36-.12.39.39,0,0,1-.13-.35c0-.16.33-3.9,2.1-5,2-1.26,27.73-2.61,30.71,0a10.24,10.24,0,0,1,3.12,7.1.43.43,0,0,1-.14.32A.42.42,0,0,1,271.15,204.49Zm-32.6-3.06c8.16,0,28.52,1.81,32.13,2.13a9.28,9.28,0,0,0-2.79-5.95c-2.85-2.54-28.54-.66-29.66,0s-1.47,2.64-1.64,3.82C237.12,201.44,237.79,201.43,238.55,201.43Z" fill="#231f20"></path><path d="M291.63,215.23c-10.05-13.88-27.27-15.11-37.58-15.11s-27.53,1.23-37.58,15.11-9.58,39.91-9.58,39.91h94.32S301.69,229.11,291.63,215.23Z" fill="#e0e0e0"></path><path d="M301.21,255.59H206.89a.45.45,0,0,1-.45-.44c0-.27-.37-26.35,9.66-40.19,11.08-15.3,31.31-15.3,38-15.3,26.87,0,35.21,11.52,37.95,15.3,10,13.84,9.67,39.92,9.67,40.19A.46.46,0,0,1,301.21,255.59Zm0-.45h0Zm-93.86-.46h93.41c0-3.5-.37-26.58-9.5-39.18-9.68-13.38-25.87-14.93-37.21-14.93s-27.52,1.55-37.21,14.93C207.71,228.1,207.35,251.18,207.35,254.68Z" fill="#231f20"></path><path d="M232.68,255.65a.51.51,0,0,1-.51-.49l-1.91-42.89a.53.53,0,0,1,.49-.54.52.52,0,0,1,.54.5l1.91,42.88a.52.52,0,0,1-.49.54Z" fill="#231f20"></path><path d="M277.38,255.65h0a.52.52,0,0,1-.49-.54l1.94-41.63a.5.5,0,0,1,.54-.49.53.53,0,0,1,.49.54l-1.94,41.63A.51.51,0,0,1,277.38,255.65Z" fill="#231f20"></path><path d="M219.44,228.95h66.63a15.14,15.14,0,0,1,15.14,15.14v14a0,0,0,0,1,0,0H204.29a0,0,0,0,1,0,0v-14A15.14,15.14,0,0,1,219.44,228.95Z" fill="#231f20"></path><path d="M301.21,258.58H204.29a.44.44,0,0,1-.44-.44v-14a15.6,15.6,0,0,1,15.59-15.58h66.63a15.6,15.6,0,0,1,15.58,15.58v14A.44.44,0,0,1,301.21,258.58Zm-96.48-.88h96V244.09a14.72,14.72,0,0,0-14.7-14.7H219.44a14.73,14.73,0,0,0-14.71,14.7Z" fill="#231f20"></path><path d="M219.44,235.27h66.63a15.14,15.14,0,0,1,15.14,15.14v24.52a0,0,0,0,1,0,0H204.29a0,0,0,0,1,0,0V250.42A15.14,15.14,0,0,1,219.44,235.27Z" fill="#d1d3d4"></path><path d="M301.21,275.38H204.29a.44.44,0,0,1-.44-.44V250.42a15.6,15.6,0,0,1,15.59-15.59h66.63a15.6,15.6,0,0,1,15.58,15.59v24.52A.43.43,0,0,1,301.21,275.38Zm-96.48-.88h96V250.42a14.72,14.72,0,0,0-14.7-14.71H219.44a14.73,14.73,0,0,0-14.71,14.71Z" fill="#231f20"></path><path d="M158.41,169c1-6.21,11.3-7.74,10.79-.42a10.76,10.76,0,0,1-2.75,6.87,6.37,6.37,0,0,1-6.91,1.62" fill="#fff"></path><path d="M161.69,178.06a5.77,5.77,0,0,1-2.36-.49.52.52,0,0,1-.26-.68.51.51,0,0,1,.68-.26,5.83,5.83,0,0,0,6.34-1.51,10.42,10.42,0,0,0,2.6-6.55c.17-2.48-1-4-3.18-4.3a6.14,6.14,0,0,0-6.59,4.84.52.52,0,0,1-.59.43.52.52,0,0,1-.43-.59,7.14,7.14,0,0,1,7.72-5.71c2.15.25,4.35,1.8,4.1,5.41a11.37,11.37,0,0,1-2.9,7.19A7.31,7.31,0,0,1,161.69,178.06Z" fill="#231f20"></path><path d="M132.73,169c-1-6.21-11.3-7.74-10.79-.42a10.82,10.82,0,0,0,2.75,6.87,6.37,6.37,0,0,0,6.91,1.62" fill="#fff"></path><path d="M129.45,178.06a7.33,7.33,0,0,1-5.13-2.22,11.29,11.29,0,0,1-2.89-7.19c-.25-3.61,1.95-5.16,4.09-5.41a7.13,7.13,0,0,1,7.72,5.71.51.51,0,0,1-.43.59.52.52,0,0,1-.59-.43,6.12,6.12,0,0,0-6.58-4.84c-2.2.25-3.36,1.82-3.18,4.3a10.31,10.31,0,0,0,2.6,6.55,5.83,5.83,0,0,0,6.33,1.51.51.51,0,0,1,.42.94A5.74,5.74,0,0,1,129.45,178.06Z" fill="#231f20"></path><path d="M162.39,169.49l-1.76-18.25s-4.95-6.09-15.06-6.09-15.06,6.09-15.06,6.09l-.75,16.11c0,8,2,12.72,5.13,15.44l-.79,17.26s2.79,6.08,10.93,6.08a13.12,13.12,0,0,0,11.43-6.08l-.71-15.62C158.9,182.57,161.22,178.49,162.39,169.49Z" fill="#fff"></path><path d="M145.57,145.15c10.11,0,15.06,6.09,15.06,6.09l1.76,18.25c-1.17,9-3.49,13.08-6.64,14.94l.71,15.62A13.12,13.12,0,0,1,145,206.13c-8.14,0-10.93-6.08-10.93-6.08l.79-17.26c-3.09-2.72-5.13-7.48-5.13-15.44l.75-16.11s5-6.09,15.06-6.09m0-1c-10.48,0-15.64,6.21-15.86,6.47a1,1,0,0,0-.23.6l-.75,16.12c0,7.34,1.72,12.68,5.11,15.92L133.07,200a1.1,1.1,0,0,0,.1.47c.12.28,3.16,6.68,11.86,6.68a14.08,14.08,0,0,0,12.34-6.61,1,1,0,0,0,.12-.54l-.68-15c3.49-2.38,5.54-7.16,6.6-15.36a.89.89,0,0,0,0-.23l-1.75-18.25a1,1,0,0,0-.23-.55c-.21-.26-5.38-6.47-15.86-6.47Z" fill="#231f20"></path><path d="M182.87,209.1C172.81,195.23,155.59,194,145.28,194s-27.53,1.24-37.58,15.11S98.12,249,98.12,249h94.32S192.92,223,182.87,209.1Z" fill="#e0e0e0"></path><path d="M192.44,249.53H98.12a.51.51,0,0,1-.51-.51c0-.26-.37-26.36,9.67-40.22,11.1-15.32,31.35-15.32,38-15.32,26.9,0,35.26,11.53,38,15.32,10,13.86,9.67,40,9.67,40.22A.53.53,0,0,1,192.44,249.53Zm-93.8-1h93.29c0-3.69-.41-26.57-9.48-39.09-9.68-13.36-25.85-14.9-37.17-14.9s-27.49,1.54-37.16,14.9C99.05,221.93,98.64,244.81,98.64,248.5Z" fill="#231f20"></path><path d="M124.87,252.56a.51.51,0,0,1-.51-.45l-5.54-42.44a.5.5,0,0,1,.44-.57.51.51,0,0,1,.58.44L125.38,252a.52.52,0,0,1-.45.58Z" fill="#231f20"></path><path d="M163.82,254.54h-.09a.5.5,0,0,1-.42-.59l6.65-42a.51.51,0,0,1,.59-.42.5.5,0,0,1,.43.59l-6.65,42A.52.52,0,0,1,163.82,254.54Z" fill="#231f20"></path><path d="M127.33,195.84s.29-3.67,1.9-4.68,27.21-2.65,30.18,0a9.89,9.89,0,0,1,3,6.76S132.72,195.2,127.33,195.84Z" fill="#e0e0e0"></path><path d="M125,197.2a.53.53,0,0,1-.49-.34.52.52,0,0,1,.31-.66,70.6,70.6,0,0,1,41.55,0,.51.51,0,0,1,.35.64.52.52,0,0,1-.65.35,69.44,69.44,0,0,0-40.89,0A.57.57,0,0,1,125,197.2Z" fill="#231f20"></path><path d="M123,172c-.27,1.06-.54,2.12-.82,3.17-1.61,6.13-3.72,12.4-5.87,18.41q6.72,2.9,13.3,6.1l2.74-5.08.79,8.9a51.61,51.61,0,0,0,22.49,1l.94-4.59c.5,2.17,2.85,3.51,5.08,3.57,3.28.09,5.9-.81,6.47-4a27.42,27.42,0,0,0-.56-9.8c-1.32-6.64-3.41-13.07-3.43-19.84,0-7.33.31-14.81-1.78-21.93-.95-3.25-2.52-6.52-5.34-8.41s-7.11-1.88-9.23.76c.62-.77-6.3-2.5-6.9-2.5a8.43,8.43,0,0,0-4.92,1.39c-5,3-7.33,6.59-8.41,12.26Q125.63,161.76,123,172Z" fill="#fff"></path><path d="M146.68,205.8A51.88,51.88,0,0,1,133,204a.5.5,0,0,1-.38-.45l-.63-7.19-1.92,3.56a.52.52,0,0,1-.68.22c-4.37-2.12-8.84-4.17-13.29-6.08a.52.52,0,0,1-.28-.65c2.68-7.49,4.49-13.15,5.86-18.37.28-1.05.55-2.11.82-3.16,1.72-6.78,3.25-13.7,4.55-20.57,1.13-6,3.63-9.61,8.65-12.6a9,9,0,0,1,5.18-1.47c.27,0,5.38,1.09,7,2.18,2.52-2.47,6.75-2.17,9.46-.35,2.51,1.69,4.33,4.53,5.55,8.7,1.84,6.28,1.82,12.88,1.8,19.26,0,.94,0,1.87,0,2.81,0,4.84,1.13,9.63,2.2,14.26.42,1.79.85,3.63,1.21,5.48a27.52,27.52,0,0,1,.56,10c-.54,3.06-2.88,4.56-7,4.44a6.29,6.29,0,0,1-4.87-2.43l-.62,3a.5.5,0,0,1-.42.4A51.09,51.09,0,0,1,146.68,205.8Zm-13-2.71a51.19,51.19,0,0,0,21.58,1l.86-4.24a.51.51,0,0,1,.5-.41h0a.5.5,0,0,1,.5.4c.46,2,2.71,3.11,4.59,3.16,3.59.1,5.49-1,6-3.58a26.88,26.88,0,0,0-.56-9.61c-.36-1.83-.79-3.67-1.2-5.45-1.09-4.69-2.22-9.53-2.23-14.49,0-.93,0-1.87,0-2.81,0-6.31,0-12.83-1.76-19-1.15-3.92-2.83-6.58-5.14-8.13-2.51-1.69-6.54-1.83-8.54.65h0a.52.52,0,0,1-.73.08.54.54,0,0,1-.19-.42,27.23,27.23,0,0,0-6.39-2,8.14,8.14,0,0,0-4.64,1.32c-4.73,2.83-7.1,6.28-8.17,11.91-1.3,6.89-2.84,13.83-4.56,20.63h0c-.27,1.06-.54,2.12-.82,3.17-1.35,5.14-3.12,10.71-5.73,18,4.17,1.8,8.35,3.71,12.44,5.7l2.5-4.65a.52.52,0,0,1,1,.2ZM123,172h0Zm24.37-32.07Z" fill="#231f20"></path><path d="M111.26,222.83H177.9A15.14,15.14,0,0,1,193,238v14a0,0,0,0,1,0,0H96.12a0,0,0,0,1,0,0V238A15.14,15.14,0,0,1,111.26,222.83Z" fill="#231f20"></path><path d="M193,252.46H96.12a.44.44,0,0,1-.44-.44V238a15.6,15.6,0,0,1,15.58-15.58H177.9A15.6,15.6,0,0,1,193.48,238V252A.44.44,0,0,1,193,252.46Zm-96.48-.88h96V238a14.72,14.72,0,0,0-14.7-14.7H111.26A14.72,14.72,0,0,0,96.56,238Z" fill="#231f20"></path><path d="M111.26,229.15H177.9A15.14,15.14,0,0,1,193,244.29v30.65a0,0,0,0,1,0,0H96.12a0,0,0,0,1,0,0V244.29A15.14,15.14,0,0,1,111.26,229.15Z" fill="#d1d3d4"></path><path d="M193,275.38H96.12a.44.44,0,0,1-.44-.44V244.29a15.6,15.6,0,0,1,15.58-15.58H177.9a15.6,15.6,0,0,1,15.58,15.58v30.65A.44.44,0,0,1,193,275.38Zm-96.48-.88h96V244.29a14.72,14.72,0,0,0-14.7-14.7H111.26a14.72,14.72,0,0,0-14.7,14.7Z" fill="#231f20"></path><path d="M218.72,191.31c1-6.21,11.3-7.74,10.79-.42a10.82,10.82,0,0,1-2.75,6.87,6.37,6.37,0,0,1-6.91,1.62" fill="#fff"></path><path d="M222,200.34a5.74,5.74,0,0,1-2.36-.49.51.51,0,1,1,.42-.94,5.82,5.82,0,0,0,6.33-1.51,10.31,10.31,0,0,0,2.6-6.55c.18-2.48-1-4-3.18-4.3a6.14,6.14,0,0,0-6.58,4.84.52.52,0,0,1-.59.43.51.51,0,0,1-.43-.59,7.13,7.13,0,0,1,7.72-5.71c2.15.25,4.35,1.8,4.09,5.41a11.31,11.31,0,0,1-2.89,7.19A7.33,7.33,0,0,1,222,200.34Z" fill="#231f20"></path><path d="M193,191.31c-1-6.21-11.3-7.74-10.79-.42a10.76,10.76,0,0,0,2.75,6.87,6.37,6.37,0,0,0,6.91,1.62" fill="#fff"></path><path d="M189.76,200.34a7.33,7.33,0,0,1-5.13-2.22,11.37,11.37,0,0,1-2.9-7.19c-.25-3.61,2-5.16,4.1-5.41a7.13,7.13,0,0,1,7.72,5.71.52.52,0,0,1-.43.59.52.52,0,0,1-.59-.43,6.14,6.14,0,0,0-6.59-4.84c-2.19.25-3.35,1.82-3.18,4.3a10.42,10.42,0,0,0,2.6,6.55,5.83,5.83,0,0,0,6.34,1.51.51.51,0,0,1,.42.94A5.77,5.77,0,0,1,189.76,200.34Z" fill="#231f20"></path><path d="M222.69,191.77l-1.75-18.25s-4.95-6.09-15.06-6.09-15.06,6.09-15.06,6.09l-.75,16.11c0,8,2,12.72,5.13,15.44l-.79,17.26s2.79,6.08,10.93,6.08a13.12,13.12,0,0,0,11.43-6.08l-.71-15.62C219.21,204.85,221.53,200.77,222.69,191.77Z" fill="#fff"></path><path d="M205.88,167.43c10.11,0,15.06,6.09,15.06,6.09l1.75,18.25c-1.16,9-3.48,13.08-6.63,14.94l.71,15.62a13.12,13.12,0,0,1-11.43,6.08c-8.14,0-10.93-6.08-10.93-6.08l.79-17.26c-3.1-2.72-5.13-7.49-5.13-15.44l.75-16.11s5-6.09,15.06-6.09m0-1c-10.48,0-15.65,6.2-15.86,6.47a1,1,0,0,0-.23.6L189,189.59c0,7.34,1.71,12.68,5.11,15.92l-.77,16.77a1.11,1.11,0,0,0,.09.48c.13.27,3.17,6.68,11.87,6.68a14.08,14.08,0,0,0,12.34-6.61,1.06,1.06,0,0,0,.12-.55l-.68-15c3.49-2.38,5.54-7.17,6.6-15.36a.89.89,0,0,0,0-.23L222,173.42a1,1,0,0,0-.22-.55c-.22-.27-5.38-6.47-15.86-6.47Z" fill="#231f20"></path><path d="M189.09,193.21c.32.87.66,1.72,1,2.57.86,2,3.37,4.35,4.53,6.2,1.4,2.23,1.21,1.76,3.72,2a85.61,85.61,0,0,0,16.48.19,5.31,5.31,0,0,0,3.57-1.25,5.2,5.2,0,0,0,1-1.76q3.16-8,5.74-16.3c2.11-6.76-3.25-14-.68-20.32.4-1,1-2.06.55-3l-6.38,2a14.51,14.51,0,0,1,3.75-4.56,27.81,27.81,0,0,0-17.77,2.84,30.11,30.11,0,0,1,5.15-4.81c-6.38.52-13.39,1.34-17.75,6a39.8,39.8,0,0,0,1.15-5.81c-5.62,5.22-9,14.11-7.68,21.79A78.93,78.93,0,0,0,189.09,193.21Z" fill="#fff"></path><path d="M207.61,205a85.14,85.14,0,0,1-9.31-.5c-.44-.05-.79-.07-1.09-.09-1.6-.11-1.8-.25-3-2.17a22.77,22.77,0,0,0-1.84-2.39,18,18,0,0,1-2.72-3.89c-.36-.83-.71-1.7-1-2.59h0a80.83,80.83,0,0,1-3.66-14.21c-1.31-7.6,1.91-16.75,7.84-22.26a.51.51,0,0,1,.86.44c-.17,1.39-.41,2.78-.72,4.16,4.37-3.64,10.65-4.45,16.77-5a.5.5,0,0,1,.52.33.52.52,0,0,1-.18.6,28.72,28.72,0,0,0-3.25,2.78,28.14,28.14,0,0,1,15.66-1.73.5.5,0,0,1,.41.38.53.53,0,0,1-.17.53,13.84,13.84,0,0,0-3,3.25l5.09-1.63a.52.52,0,0,1,.62.26,3.51,3.51,0,0,1-.35,3l-.18.43c-1.26,3.1-.53,6.43.25,10s1.51,6.9.44,10.33c-1.71,5.49-3.65,11-5.75,16.34a5.55,5.55,0,0,1-1.06,1.92,5.77,5.77,0,0,1-3.91,1.42C212.47,204.92,210,205,207.61,205Zm-18-12c.32.87.66,1.73,1,2.55a17.74,17.74,0,0,0,2.57,3.63,24.26,24.26,0,0,1,1.93,2.5c1,1.61,1,1.61,2.2,1.69l1.14.1a86.2,86.2,0,0,0,16.38.19A5,5,0,0,0,218,202.6a4.92,4.92,0,0,0,.85-1.6c2.09-5.33,4-10.8,5.73-16.27,1-3.16.25-6.54-.47-9.8-.77-3.52-1.58-7.16-.2-10.56.06-.15.13-.29.19-.44a3.9,3.9,0,0,0,.48-1.7l-5.86,1.87a.52.52,0,0,1-.55-.16.5.5,0,0,1-.06-.57,15.05,15.05,0,0,1,3-4,27.24,27.24,0,0,0-16.36,3,.51.51,0,0,1-.63-.79,30.06,30.06,0,0,1,3.85-3.8c-6.18.58-11.91,1.65-15.68,5.71a.5.5,0,0,1-.63.1.51.51,0,0,1-.24-.59,37.41,37.41,0,0,0,.91-4.23c-5,5.35-7.62,13.46-6.44,20.26a79.67,79.67,0,0,0,3.61,14Z" fill="#231f20"></path><path d="M187.64,218.12s.29-3.67,1.89-4.68,27.22-2.65,30.19,0a9.91,9.91,0,0,1,3,6.76S193,217.48,187.64,218.12Z" fill="#231f20"></path><path d="M222.69,220.65h0c-.29,0-29.67-2.7-35-2.08a.43.43,0,0,1-.36-.12.42.42,0,0,1-.13-.35c0-.16.33-3.91,2.1-5,2-1.27,27.73-2.62,30.71,0a10.24,10.24,0,0,1,3.12,7.09.44.44,0,0,1-.14.33A.47.47,0,0,1,222.69,220.65Zm-32.6-3.07c8.16,0,28.52,1.81,32.13,2.14a9.28,9.28,0,0,0-2.79-5.95c-2.85-2.54-28.54-.66-29.66,0s-1.47,2.65-1.64,3.83C188.66,217.6,189.33,217.58,190.09,217.58Z" fill="#231f20"></path><path d="M243.17,231.38c-10-13.87-27.27-15.11-37.58-15.11s-27.53,1.24-37.58,15.11-9.58,34.24-9.58,34.24h94.32S253.23,245.26,243.17,231.38Z" fill="#e0e0e0"></path><path d="M252.75,266.07H158.43a.44.44,0,0,1-.45-.44c0-.21-.37-20.67,9.66-34.51,11.08-15.3,31.31-15.3,38-15.3,26.87,0,35.21,11.51,37.95,15.3h0c10,13.84,9.67,34.3,9.67,34.51A.45.45,0,0,1,252.75,266.07Zm-93.86-.91H252.3c0-3.05-.47-21-9.5-33.51h0c-9.69-13.37-25.88-14.92-37.21-14.92s-27.52,1.55-37.21,14.92C159.35,244.12,158.9,262.11,158.89,265.16Z" fill="#231f20"></path><path d="M177.06,266.13h0a.51.51,0,0,1-.5-.53l.79-34.82a.48.48,0,0,1,.52-.51.53.53,0,0,1,.51.53l-.79,34.83A.52.52,0,0,1,177.06,266.13Z" fill="#231f20"></path><path d="M230.41,265h0a.52.52,0,0,1-.49-.54l2-33.66a.51.51,0,0,1,.55-.49.52.52,0,0,1,.48.55l-2,33.66A.51.51,0,0,1,230.41,265Z" fill="#231f20"></path><path d="M326.17,185.63c1-6.21,11.3-7.74,10.79-.42a10.74,10.74,0,0,1-2.75,6.87,6.37,6.37,0,0,1-6.91,1.62" fill="#fff"></path><path d="M329.45,194.66a5.77,5.77,0,0,1-2.36-.49.51.51,0,0,1,.42-.94,5.83,5.83,0,0,0,6.34-1.51,10.42,10.42,0,0,0,2.6-6.54c.17-2.49-1-4.06-3.18-4.31a6.14,6.14,0,0,0-6.59,4.84.52.52,0,0,1-.59.43.52.52,0,0,1-.43-.59,7.1,7.1,0,0,1,7.72-5.7c2.15.24,4.35,1.79,4.1,5.4a11.37,11.37,0,0,1-2.9,7.19A7.29,7.29,0,0,1,329.45,194.66Z" fill="#231f20"></path><path d="M300.49,185.63c-1-6.21-11.3-7.74-10.79-.42a10.79,10.79,0,0,0,2.75,6.87,6.37,6.37,0,0,0,6.91,1.62" fill="#fff"></path><path d="M297.21,194.66a7.29,7.29,0,0,1-5.13-2.22,11.27,11.27,0,0,1-2.89-7.19c-.26-3.61,1.94-5.16,4.09-5.4a7.1,7.1,0,0,1,7.72,5.7.51.51,0,0,1-.43.59.52.52,0,0,1-.59-.43,6.14,6.14,0,0,0-6.58-4.84c-2.2.25-3.36,1.82-3.19,4.31a10.38,10.38,0,0,0,2.61,6.54,5.81,5.81,0,0,0,6.33,1.51.51.51,0,1,1,.42.94A5.77,5.77,0,0,1,297.21,194.66Z" fill="#231f20"></path><path d="M330.15,186.09l-1.76-18.25s-4.95-6.09-15.06-6.09-15.06,6.09-15.06,6.09L297.52,184c0,7.95,2,12.72,5.13,15.44l-.79,17.25s2.79,6.08,10.93,6.08a13.12,13.12,0,0,0,11.43-6.08L323.51,201C326.66,199.17,329,195.09,330.15,186.09Z" fill="#fff"></path><path d="M313.33,161.75c10.11,0,15.06,6.09,15.06,6.09l1.76,18.25c-1.17,9-3.49,13.08-6.64,14.94l.71,15.62a13.12,13.12,0,0,1-11.43,6.08c-8.14,0-10.93-6.08-10.93-6.08l.79-17.25c-3.1-2.72-5.13-7.49-5.13-15.44l.75-16.12s5-6.09,15.06-6.09m0-1c-10.48,0-15.64,6.21-15.86,6.47a1,1,0,0,0-.23.6l-.75,16.12c0,7.35,1.72,12.68,5.11,15.92l-.77,16.78a1.07,1.07,0,0,0,.1.47c.12.28,3.16,6.68,11.86,6.68a14.08,14.08,0,0,0,12.34-6.61,1,1,0,0,0,.12-.54l-.68-15c3.49-2.38,5.54-7.16,6.6-15.36a.88.88,0,0,0,0-.23l-1.75-18.25a1,1,0,0,0-.23-.55c-.21-.26-5.38-6.47-15.86-6.47Z" fill="#231f20"></path><path d="M350.63,225.71C340.57,211.83,323.35,210.6,313,210.6s-27.53,1.23-37.58,15.11-9.58,39.91-9.58,39.91H360.2S360.68,239.58,350.63,225.71Z" fill="#e0e0e0"></path><path d="M360.2,266.13H265.88a.5.5,0,0,1-.51-.5c0-.27-.37-26.37,9.67-40.23,11.1-15.32,31.35-15.32,38-15.32,26.9,0,35.26,11.53,38,15.32h0c10,13.86,9.68,40,9.68,40.23A.52.52,0,0,1,360.2,266.13Zm-93.8-1h93.29c0-3.69-.41-26.57-9.48-39.09h0c-9.68-13.35-25.85-14.9-37.17-14.9s-27.49,1.55-37.16,14.9C266.81,238.53,266.4,261.41,266.4,265.1Z" fill="#231f20"></path><path d="M285.64,269.13h0a.5.5,0,0,1-.51-.52l.42-39.67a.53.53,0,0,1,.52-.51h0a.51.51,0,0,1,.5.53l-.42,39.66A.52.52,0,0,1,285.64,269.13Z" fill="#231f20"></path><line x1="333.93" y1="260.35" x2="340.43" y2="229.88" fill="#e0e0e0"></line><path d="M333.93,260.86h-.11a.51.51,0,0,1-.39-.61l6.5-30.46a.52.52,0,0,1,1,.21l-6.5,30.46A.52.52,0,0,1,333.93,260.86Z" fill="#231f20"></path><path d="M295.09,212.45s.29-3.68,1.89-4.69,27.22-2.64,30.19,0a9.91,9.91,0,0,1,3,6.77S300.48,211.81,295.09,212.45Z" fill="#e0e0e0"></path><path d="M333.93,213.8l-.15,0a69.56,69.56,0,0,0-40.89,0,.52.52,0,0,1-.67-.31.52.52,0,0,1,.31-.66,70.6,70.6,0,0,1,41.55,0,.51.51,0,0,1,.34.65A.5.5,0,0,1,333.93,213.8Z" fill="#231f20"></path><path d="M290.8,188.35c-.27,1.05-.54,2.11-.82,3.16-1.4,5.33-2.94,10.69-3,16.19s1.52,11.29,5.51,15.07c3.62,3.42,8.69,4.79,13.57,5.79,5,1,10.23,1.8,15.31,1s10.07-3.47,12.65-7.92c2.68-4.61,2.39-10.36,1.35-15.59C334,199.38,332,193,331.93,186.18c0-7.33.31-14.81-1.78-21.93-.95-3.25-2.53-6.52-5.34-8.41s-7.11-1.88-9.24.76c.63-.77-6.29-2.5-6.89-2.5a8.48,8.48,0,0,0-4.92,1.39c-5,3-7.33,6.59-8.41,12.26Q293.39,178.12,290.8,188.35Z" fill="#fff"></path><path d="M316.83,230.4A54.34,54.34,0,0,1,306,229.06c-5-1-10.16-2.45-13.82-5.92s-5.76-9.12-5.67-15.44c.06-5.14,1.4-10.19,2.69-15.07l.33-1.25c.28-1,.55-2.1.82-3.16h0c1.72-6.78,3.25-13.7,4.55-20.57,1.13-6,3.63-9.61,8.65-12.6a8.87,8.87,0,0,1,5.18-1.47c.27,0,5.38,1.09,7,2.18,2.52-2.47,6.75-2.17,9.46-.35,2.51,1.69,4.33,4.54,5.55,8.7,1.84,6.28,1.82,12.88,1.8,19.27,0,.93,0,1.87,0,2.8,0,4.84,1.13,9.63,2.2,14.26.42,1.79.85,3.64,1.21,5.48,1.35,6.78.89,12-1.4,16-2.43,4.19-7.3,7.24-13,8.17A28.55,28.55,0,0,1,316.83,230.4ZM291.3,188.47c-.27,1.06-.54,2.12-.82,3.17l-.33,1.25c-1.28,4.82-2.6,9.81-2.66,14.82-.08,6,1.87,11.39,5.35,14.68s8.45,4.67,13.31,5.66,10.05,1.8,15.12,1c5.43-.89,10-3.75,12.29-7.68,2.17-3.73,2.59-8.71,1.29-15.23-.36-1.82-.79-3.66-1.2-5.44-1.09-4.69-2.22-9.54-2.23-14.5,0-.93,0-1.87,0-2.81,0-6.31,0-12.83-1.76-19-1.15-3.92-2.83-6.58-5.14-8.13-2.51-1.69-6.54-1.83-8.54.65h0a.51.51,0,0,1-.73.08.51.51,0,0,1-.19-.42,27.37,27.37,0,0,0-6.39-2,8,8,0,0,0-4.64,1.33c-4.74,2.82-7.1,6.27-8.17,11.91-1.3,6.88-2.84,13.82-4.56,20.62Z" fill="#231f20"></path><path d="M279,239.43h66.63a15.14,15.14,0,0,1,15.14,15.14v14a0,0,0,0,1,0,0H263.88a0,0,0,0,1,0,0v-14A15.14,15.14,0,0,1,279,239.43Z" fill="#231f20"></path><path d="M360.8,269.06H263.88a.44.44,0,0,1-.44-.44V254.57A15.6,15.6,0,0,1,279,239h66.63a15.6,15.6,0,0,1,15.59,15.58v14.05A.44.44,0,0,1,360.8,269.06Zm-96.48-.88h96V254.57a14.73,14.73,0,0,0-14.71-14.7H279a14.72,14.72,0,0,0-14.7,14.7Z" fill="#231f20"></path><path d="M279,245.75h66.63A15.14,15.14,0,0,1,360.8,260.9v14a0,0,0,0,1,0,0H263.88a0,0,0,0,1,0,0v-14A15.14,15.14,0,0,1,279,245.75Z" fill="#d1d3d4"></path><path d="M360.8,275.38H263.88a.44.44,0,0,1-.44-.44v-14A15.6,15.6,0,0,1,279,245.31h66.63a15.6,15.6,0,0,1,15.59,15.59v14A.44.44,0,0,1,360.8,275.38Zm-96.48-.88h96V260.9a14.73,14.73,0,0,0-14.71-14.71H279a14.73,14.73,0,0,0-14.7,14.71Z" fill="#231f20"></path><path d="M173.06,239.43H239.7a15.14,15.14,0,0,1,15.14,15.14v14a0,0,0,0,1,0,0H157.92a0,0,0,0,1,0,0v-14A15.14,15.14,0,0,1,173.06,239.43Z" fill="#231f20"></path><path d="M254.84,269.06H157.92a.44.44,0,0,1-.44-.44V254.57A15.6,15.6,0,0,1,173.06,239H239.7a15.6,15.6,0,0,1,15.58,15.58v14.05A.44.44,0,0,1,254.84,269.06Zm-96.48-.88h96V254.57a14.72,14.72,0,0,0-14.7-14.7H173.06a14.72,14.72,0,0,0-14.7,14.7Z" fill="#231f20"></path><path d="M173.06,245.75H239.7a15.14,15.14,0,0,1,15.14,15.14v14a0,0,0,0,1,0,0H157.92a0,0,0,0,1,0,0v-14A15.14,15.14,0,0,1,173.06,245.75Z" fill="#d1d3d4"></path><path d="M254.84,275.38H157.92a.44.44,0,0,1-.44-.44v-14a15.6,15.6,0,0,1,15.58-15.59H239.7a15.6,15.6,0,0,1,15.58,15.59v14A.44.44,0,0,1,254.84,275.38Zm-96.48-.88h96V260.9a14.73,14.73,0,0,0-14.7-14.71H173.06a14.73,14.73,0,0,0-14.7,14.71Z" fill="#231f20"></path><path d="M102.09,185.63c1-6.21,11.3-7.74,10.79-.42a10.79,10.79,0,0,1-2.75,6.87,6.38,6.38,0,0,1-6.91,1.62" fill="#fff"></path><path d="M105.37,194.66a5.74,5.74,0,0,1-2.36-.49.51.51,0,1,1,.42-.94,5.81,5.81,0,0,0,6.33-1.51,10.31,10.31,0,0,0,2.6-6.54c.18-2.49-1-4.06-3.18-4.31a6.13,6.13,0,0,0-6.58,4.84.52.52,0,0,1-.6.43.5.5,0,0,1-.42-.59,7.12,7.12,0,0,1,7.72-5.7c2.14.24,4.34,1.79,4.09,5.4a11.29,11.29,0,0,1-2.89,7.19A7.29,7.29,0,0,1,105.37,194.66Z" fill="#231f20"></path><path d="M76.41,185.63c-1-6.21-11.3-7.74-10.79-.42a10.78,10.78,0,0,0,2.74,6.87,6.39,6.39,0,0,0,6.92,1.62" fill="#fff"></path><path d="M73.13,194.66A7.27,7.27,0,0,1,68,192.44a11.37,11.37,0,0,1-2.9-7.19c-.25-3.61,2-5.16,4.09-5.4a7.12,7.12,0,0,1,7.73,5.7.52.52,0,1,1-1,.16,6.14,6.14,0,0,0-6.59-4.84c-2.19.25-3.35,1.82-3.18,4.31a10.36,10.36,0,0,0,2.6,6.54,5.81,5.81,0,0,0,6.33,1.51.52.52,0,1,1,.43.94A5.77,5.77,0,0,1,73.13,194.66Z" fill="#231f20"></path><path d="M106.06,186.09l-1.75-18.25s-5-6.09-15.06-6.09-15.06,6.09-15.06,6.09L73.43,184c0,7.95,2,12.72,5.14,15.44l-.79,17.25s2.79,6.08,10.92,6.08a13.12,13.12,0,0,0,11.44-6.08L99.43,201C102.57,199.17,104.9,195.09,106.06,186.09Z" fill="#fff"></path><path d="M89.25,161.75c10.11,0,15.06,6.09,15.06,6.09l1.75,18.25c-1.16,9-3.49,13.08-6.63,14.94l.71,15.62a13.12,13.12,0,0,1-11.44,6.08c-8.13,0-10.92-6.08-10.92-6.08l.79-17.25c-3.1-2.72-5.14-7.49-5.14-15.44l.76-16.12s5-6.09,15.06-6.09m0-1c-10.48,0-15.65,6.21-15.86,6.47a1,1,0,0,0-.23.6l-.76,16.12c0,7.35,1.72,12.68,5.11,15.92l-.76,16.78a.94.94,0,0,0,.09.47c.13.28,3.17,6.68,11.86,6.68A14,14,0,0,0,101,217.15a1,1,0,0,0,.13-.54l-.69-15c3.5-2.38,5.54-7.16,6.61-15.36a.88.88,0,0,0,0-.23l-1.76-18.25a1.11,1.11,0,0,0-.22-.55c-.22-.26-5.38-6.47-15.86-6.47Z" fill="#231f20"></path><path d="M71.27,189.5c2.27,1.73,4.74,3,5.73,6.22a3.75,3.75,0,0,0,.59,1.39,2.51,2.51,0,0,0,1,.68,8.1,8.1,0,0,0,3.46.68,4.73,4.73,0,0,1,1.41.07,4.92,4.92,0,0,1,1.3.73,7.34,7.34,0,0,0,6.92.56,4.31,4.31,0,0,1,1.75-.58,7,7,0,0,1,1.7.47c2.59.69,4.79-1.38,6.49-3,.89-.86,1.38-1,1.86-2.16s-.14-2.44.77-3.46a6.2,6.2,0,0,1,1.21-.87c1.71-1.18,2.33-3.37,2.82-5.39a31,31,0,0,0,1.16-6.81,5.23,5.23,0,0,1,.45-2.67,9.57,9.57,0,0,1,.93-1.09,3.91,3.91,0,0,0,.69-3.64c-.34-1-1.1-1.9-1.18-3,0-.59.12-1.19.09-1.78-.09-1.93-2.08-3.13-3.81-4,.39-3.67-4.39-4.06-6.72-5.33A9.42,9.42,0,0,0,95,155c-1,.05-2,.43-3.08.54-2.46.24-5.13-1-7.3.12a10.21,10.21,0,0,1-1.91,1.11,5.35,5.35,0,0,1-2.18-.08A9.18,9.18,0,0,0,74,158.55a37.41,37.41,0,0,0-3.61,4.25A5.07,5.07,0,0,0,66.06,169a2.72,2.72,0,0,1,.1,2.06,5,5,0,0,0,1.47,4.49,4.48,4.48,0,0,0,.19,6.79,5.91,5.91,0,0,0,1.4,5.25A13.29,13.29,0,0,0,71.27,189.5Z" fill="#fff"></path><path d="M88.77,201a7.79,7.79,0,0,1-4.28-1.26l-.26-.17a3.24,3.24,0,0,0-.9-.5,3.18,3.18,0,0,0-1-.05h-.26a8.79,8.79,0,0,1-3.68-.72,3.25,3.25,0,0,1-1.21-.83,3.6,3.6,0,0,1-.63-1.37l0-.2c-.77-2.53-2.52-3.78-4.37-5.09-.39-.29-.79-.57-1.18-.87A13.32,13.32,0,0,1,68.83,188a6.52,6.52,0,0,1-1.59-5.39A4.81,4.81,0,0,1,65.66,179a4.89,4.89,0,0,1,1.24-3.47A5.63,5.63,0,0,1,65.65,171l.06-.27a3.05,3.05,0,0,0,.09-.7,2.63,2.63,0,0,0-.16-.61l-.07-.24a5.35,5.35,0,0,1,.83-4.55,5.42,5.42,0,0,1,3.76-2.34,35.68,35.68,0,0,1,3.57-4.17,9.55,9.55,0,0,1,6.89-1.91l.41.06a4,4,0,0,0,1.57,0,3.76,3.76,0,0,0,1.06-.59c.24-.16.49-.33.75-.47,1.48-.8,3.12-.57,4.71-.36a12,12,0,0,0,2.78.17,9.92,9.92,0,0,0,1.35-.25,12.29,12.29,0,0,1,1.75-.29,10,10,0,0,1,5.15,1.6,14.15,14.15,0,0,0,2.06.84c2.25.8,5,1.79,4.94,4.64,1.78.9,3.7,2.18,3.79,4.25a4.81,4.81,0,0,1,0,.94,4.75,4.75,0,0,0,0,.83,4.65,4.65,0,0,0,.6,1.62,8.1,8.1,0,0,1,.56,1.23,4.45,4.45,0,0,1-.78,4.13l-.38.42a3.51,3.51,0,0,0-.51.61,4.12,4.12,0,0,0-.37,2.1V178a30.81,30.81,0,0,1-1.17,6.93c-.54,2.19-1.22,4.44-3,5.68l-.4.26a3.44,3.44,0,0,0-.72.53,2.42,2.42,0,0,0-.42,1.68,4.34,4.34,0,0,1-.25,1.64,3.94,3.94,0,0,1-1.37,1.79c-.18.15-.39.32-.62.54-1.72,1.64-4.09,3.89-7,3.13-.21-.06-.42-.14-.63-.22a2.9,2.9,0,0,0-.94-.24,2.82,2.82,0,0,0-1.21.39l-.32.15A7.68,7.68,0,0,1,88.77,201Zm-6-3a3.42,3.42,0,0,1,.88.11,4.06,4.06,0,0,1,1.2.64l.24.16a6.8,6.8,0,0,0,6.41.52l.31-.14a3.8,3.8,0,0,1,1.64-.49h0a3.7,3.7,0,0,1,1.29.31l.54.18c2.33.62,4.37-1.32,6-2.88.25-.23.47-.42.67-.58a3,3,0,0,0,1.08-1.39,3.46,3.46,0,0,0,.16-1.27,3.32,3.32,0,0,1,.69-2.34,3.83,3.83,0,0,1,.95-.73l.36-.23c1.51-1,2.1-3,2.61-5.08a30.5,30.5,0,0,0,1.14-6.7v-.3a5,5,0,0,1,.52-2.64,4.94,4.94,0,0,1,.64-.77c.11-.12.23-.24.33-.37a3.37,3.37,0,0,0,.6-3.15,7.77,7.77,0,0,0-.49-1.07,5.32,5.32,0,0,1-.72-2,5.08,5.08,0,0,1,.05-1,4.06,4.06,0,0,0,0-.77c-.07-1.65-1.92-2.75-3.52-3.52a.53.53,0,0,1-.29-.52c.23-2.16-1.61-3-4.23-3.92a16,16,0,0,1-2.21-.91,9,9,0,0,0-4.6-1.48,10,10,0,0,0-1.58.27,11.72,11.72,0,0,1-1.48.27,13.26,13.26,0,0,1-3-.17c-1.49-.21-2.9-.4-4.09.24-.22.12-.43.27-.64.41a3.67,3.67,0,0,1-3.37.73l-.39-.05A8.47,8.47,0,0,0,74.31,159a44.16,44.16,0,0,0-3.42,4,.5.5,0,0,1-.45.33h0a4.57,4.57,0,0,0-3.89,5.58l.07.22a3.49,3.49,0,0,1,.21.86,3.9,3.9,0,0,1-.11,1l0,.24a4.53,4.53,0,0,0,1.31,4,.48.48,0,0,1,.16.39A.47.47,0,0,1,68,176a4,4,0,0,0,.17,6,.5.5,0,0,1,.19.55,5.38,5.38,0,0,0,1.3,4.77,12.23,12.23,0,0,0,2,1.8c.38.29.77.57,1.16.85,1.91,1.36,3.89,2.76,4.75,5.63l.07.21a2.7,2.7,0,0,0,.42,1,2.29,2.29,0,0,0,.83.54,7.81,7.81,0,0,0,3.24.64h.25Z" fill="#231f20"></path><path d="M71,212.45s.3-3.68,1.9-4.69,27.22-2.64,30.19,0a9.93,9.93,0,0,1,3,6.77S76.4,211.81,71,212.45Z" fill="#231f20"></path><path d="M106.06,215h0c-.29,0-29.68-2.71-35-2.09a.41.41,0,0,1-.35-.12.43.43,0,0,1-.14-.35c0-.16.34-3.9,2.11-5,2-1.27,27.73-2.61,30.71,0a10.24,10.24,0,0,1,3.12,7.1.43.43,0,0,1-.14.32A.42.42,0,0,1,106.06,215Zm-32.6-3.06c8.16,0,28.52,1.8,32.13,2.13a9.33,9.33,0,0,0-2.79-5.95c-2.85-2.53-28.54-.66-29.66,0s-1.47,2.64-1.64,3.82C72,211.92,72.69,211.91,73.46,211.91Z" fill="#231f20"></path><path d="M126.54,225.71C116.49,211.83,99.26,210.6,89,210.6s-27.53,1.23-37.58,15.11-9.58,39.91-9.58,39.91h94.32S136.6,239.58,126.54,225.71Z" fill="#e0e0e0"></path><path d="M136.12,266.13H41.8a.52.52,0,0,1-.52-.5c0-.27-.36-26.37,9.68-40.23,11.1-15.32,31.35-15.32,38-15.32,26.9,0,35.25,11.53,38,15.32,10,13.86,9.68,40,9.67,40.23A.5.5,0,0,1,136.12,266.13Zm-93.81-1H135.6c0-3.69-.41-26.57-9.48-39.09h0c-9.67-13.35-25.84-14.9-37.16-14.9S61.47,212.66,51.79,226C42.72,238.53,42.32,261.41,42.31,265.1Z" fill="#231f20"></path><path d="M61.76,266.13a.5.5,0,0,1-.51-.47l-2.41-31.85a.52.52,0,0,1,.47-.56.53.53,0,0,1,.56.48l2.41,31.85a.52.52,0,0,1-.48.55Z" fill="#231f20"></path><path d="M118.11,266.13h0a.51.51,0,0,1-.48-.55L120,234.66a.51.51,0,0,1,1,.08l-2.44,30.92A.51.51,0,0,1,118.11,266.13Z" fill="#231f20"></path><path d="M54.35,239.43H121a15.14,15.14,0,0,1,15.14,15.14v14a0,0,0,0,1,0,0H39.2a0,0,0,0,1,0,0v-14A15.14,15.14,0,0,1,54.35,239.43Z" fill="#231f20"></path><path d="M136.12,269.06H39.2a.44.44,0,0,1-.44-.44V254.57A15.6,15.6,0,0,1,54.35,239H121a15.6,15.6,0,0,1,15.58,15.58v14.05A.44.44,0,0,1,136.12,269.06Zm-96.48-.88h96V254.57a14.72,14.72,0,0,0-14.7-14.7H54.35a14.73,14.73,0,0,0-14.71,14.7Z" fill="#231f20"></path><path d="M54.35,245.75H121a15.14,15.14,0,0,1,15.14,15.14v14a0,0,0,0,1,0,0H39.2a0,0,0,0,1,0,0v-14A15.14,15.14,0,0,1,54.35,245.75Z" fill="#d1d3d4"></path><path d="M136.12,275.38H39.2a.44.44,0,0,1-.44-.44v-14a15.6,15.6,0,0,1,15.59-15.59H121a15.6,15.6,0,0,1,15.58,15.59v14A.43.43,0,0,1,136.12,275.38Zm-96.48-.88h96V260.9A14.73,14.73,0,0,0,121,246.19H54.35A14.73,14.73,0,0,0,39.64,260.9Z" fill="#231f20"></path></g></svg>