<svg xmlns="http://www.w3.org/2000/svg" viewBox="0 0 400 300" width="406" height="306" class="illustration styles_illustrationTablet__1DWOa"><g id="_477_data_storage_flatline" data-name="#477_data_storage_flatline"><polygon points="135.53 83.44 135.41 75.62 142.38 75.62 143.35 85.26 135.53 83.44" fill="#fff"></polygon><path d="M143.35,85.76h-.12l-7.82-1.82a.49.49,0,0,1-.38-.48l-.12-7.82a.54.54,0,0,1,.14-.36.53.53,0,0,1,.36-.15h7a.5.5,0,0,1,.49.45l1,9.64a.54.54,0,0,1-.17.43A.5.5,0,0,1,143.35,85.76ZM136,83l6.76,1.58-.86-8.5h-6Z" fill="#231f20"></path><path d="M142.38,75.62l1-4.93s-15.71-5-14.88-2.65,6.94,7.58,6.94,7.58Z" fill="#231f20"></path><path d="M142.38,76.12h-7a.5.5,0,0,1-.33-.12c-.25-.22-6.21-5.36-7.07-7.79a.85.85,0,0,1,.16-.9c1.31-1.35,11.15,1.58,15.33,2.91a.49.49,0,0,1,.34.57l-1,4.93A.49.49,0,0,1,142.38,76.12Zm-6.79-1H142l.8-4.09C136.84,69.17,130.15,67.55,129,68,129.73,69.78,133.86,73.62,135.59,75.12Z" fill="#231f20"></path><path d="M131.81,116.06c0-.75,2.75-34.51,2.75-34.51s10.25-.5,10,0,2.5,34.51,2.5,34.51Z" fill="#231f20"></path><path d="M147.06,116.56H131.81a.5.5,0,0,1-.5-.5c0-.76,2.64-33.17,2.75-34.55a.51.51,0,0,1,.48-.46c10-.49,10.26-.08,10.44.19a.59.59,0,0,1,.07.42c-.11,1.12,1.44,21.14,2.51,34.36a.52.52,0,0,1-.13.38A.51.51,0,0,1,147.06,116.56Zm-14.72-1h14.18c-2.08-25.86-2.43-32.1-2.44-33.67-1.11-.14-5.21,0-9.06.13C134.14,92.87,132.57,112.17,132.34,115.56Z" fill="#231f20"></path><path d="M237.81,92.62s-5.55-8.27-4.54-10.68,1.75-6.79,3-6.37,5.6,14.05,5.6,14.05Z" fill="#fff"></path><path d="M237.81,93.12h-.09a.49.49,0,0,1-.33-.21c-.58-.87-5.66-8.57-4.58-11.15.3-.71.58-1.63.85-2.51.61-1.95,1.12-3.63,2-4.07a1,1,0,0,1,.81-.07c1.31.44,4.27,9.19,5.91,14.37a.49.49,0,0,1-.18.56l-4.08,3A.46.46,0,0,1,237.81,93.12ZM236.09,76c-.41.06-1.13,2.38-1.47,3.5-.28.91-.57,1.85-.89,2.6-.63,1.5,2.14,6.61,4.2,9.78l3.37-2.48C239.31,83.19,236.84,76.56,236.09,76Z" fill="#231f20"></path><polygon points="109.4 87.36 105.2 80.88 99.27 85.22 102.8 92.22 109.4 87.36" fill="#fff"></polygon><path d="M102.8,92.72h-.12a.52.52,0,0,1-.33-.27l-3.53-7a.51.51,0,0,1,.15-.63l5.93-4.33a.5.5,0,0,1,.72.13l4.2,6.48a.49.49,0,0,1-.12.67l-6.61,4.86A.45.45,0,0,1,102.8,92.72Zm-2.89-7.35,3.07,6.1,5.75-4.23-3.66-5.64Z" fill="#231f20"></path><path d="M105.2,80.88s-3.37-5.63-3.51-5.26-12.56,8.76-12.4,9.6,10,0,10,0Z" fill="#231f20"></path><path d="M92.25,86.09c-3.29,0-3.39-.47-3.45-.78-.12-.63.58-1.39,9-7.42,1.59-1.14,3.23-2.32,3.48-2.56a.52.52,0,0,1,.37-.22c.36,0,.63,0,4,5.52a.48.48,0,0,1-.13.65l-5.93,4.34a.54.54,0,0,1-.25.09C96,86,93.8,86.09,92.25,86.09ZM90,85a61.75,61.75,0,0,0,9.06-.28l5.45-4c-1.11-1.84-2.32-3.75-2.85-4.46-.45.36-1.37,1-3.3,2.41C95.81,80.54,91.23,83.82,90,85Z" fill="#231f20"></path><path d="M227.55,88.46c1.1.37,10.36,19.56,13.19,18.57s-5.54-15.12-5.54-15.12l7.52-5.39s19.19,28.37,11.85,34.54-35.2-14.17-35.2-14.17Z" fill="#e0e0e0"></path><path d="M224.6,84.16s-9.59-7.79-19.26-1.37-24.94,17.68-24.94,17.68l6.07,23.76s14.75,6.53,32.2-2c15.31-7.49,16.1-19.52,14.11-24.52S224.6,84.16,224.6,84.16Z" fill="#e0e0e0"></path><path d="M217.73,120.07a.49.49,0,0,1-.41-.22.5.5,0,0,1,.13-.7c.14-.09,13.58-9.2,15.9-18.8a.5.5,0,0,1,.6-.37.51.51,0,0,1,.37.61c-2.41,10-15.74,19-16.31,19.39A.49.49,0,0,1,217.73,120.07Z" fill="#231f20"></path><path d="M223.84,60.65a14.14,14.14,0,0,0-5-2.7c-3.16-1-6.85-1.3-9.58.58-2.2,1.53-3.35,4.18-4.07,6.77S204,70.6,202.73,73s-3.67,4.39-6.36,4.23A27.85,27.85,0,0,0,205,79.26a7,7,0,0,0,4.86-1.47A9,9,0,0,0,212,74.12a18.54,18.54,0,0,1,2.82-5.66,5.88,5.88,0,0,1,5.59-2.26c1.8.43,5.52,4.1,7,1.41C228.44,65.51,225.24,61.89,223.84,60.65Z" fill="#fff"></path><path d="M205.21,79.76H205a27.91,27.91,0,0,1-8.77-2.09.5.5,0,0,1,.2-1c2.69.14,4.85-2,5.89-4a24,24,0,0,0,1.86-5.53c.17-.68.33-1.36.52-2,1-3.46,2.32-5.7,4.27-7.05,3.34-2.31,7.71-1.4,10-.65a14.43,14.43,0,0,1,5.22,2.81h0c1.44,1.27,4.9,5.12,3.59,7.57A2.19,2.19,0,0,1,226.41,69c-1.31.37-2.9-.57-4.3-1.39a8.82,8.82,0,0,0-1.86-.93c-2.05-.49-4,.82-5.1,2.1A17.64,17.64,0,0,0,212.51,74l-.1.27a9.39,9.39,0,0,1-2.23,3.87A7.29,7.29,0,0,1,205.21,79.76Zm-6.72-2.35a21.78,21.78,0,0,0,6.5,1.35,6.54,6.54,0,0,0,4.52-1.34,8.54,8.54,0,0,0,2-3.48l.1-.26a18,18,0,0,1,2.81-5.54,6.35,6.35,0,0,1,6.09-2.43,9.47,9.47,0,0,1,2.14,1.05c1.17.68,2.62,1.54,3.52,1.28a1.21,1.21,0,0,0,.74-.66c.91-1.71-1.94-5.08-3.38-6.35h0a13.37,13.37,0,0,0-4.86-2.61c-2.13-.69-6.14-1.55-9.13.52-1.75,1.21-3,3.28-3.88,6.49q-.27,1-.51,2a24.69,24.69,0,0,1-2,5.77A8.86,8.86,0,0,1,198.49,77.41Z" fill="#231f20"></path><path d="M225.07,62.75a5.59,5.59,0,0,0-3,2.14,4.38,4.38,0,0,0-1,2.29,3.31,3.31,0,0,0,1.24,2.68,1.83,1.83,0,0,0,1.24.49,2.32,2.32,0,0,0,1.05-.44C226.84,68.38,231,61.29,225.07,62.75Z" fill="#231f20"></path><path d="M223.5,70.85a2.39,2.39,0,0,1-1.49-.61,3.79,3.79,0,0,1-1.41-3.09,4.63,4.63,0,0,1,1.06-2.56A6.12,6.12,0,0,1,225,62.26h0c2.31-.57,3.17.15,3.49.85.88,2-1.84,6-3.54,7.21a2.76,2.76,0,0,1-1.3.53Zm1.69-7.62a5.15,5.15,0,0,0-2.73,2,3.88,3.88,0,0,0-.87,2,2.82,2.82,0,0,0,1.06,2.26,1.42,1.42,0,0,0,.89.38,1.71,1.71,0,0,0,.79-.36c1.49-1,3.78-4.66,3.19-6-.3-.68-1.59-.47-2.33-.29Z" fill="#231f20"></path><path d="M225.57,87.05c-1.19.12-2.38-.31-3.66-1.81a9.88,9.88,0,0,1-2-4.38,16.9,16.9,0,0,1,6.27-16.63c5.1-3.8,13.94-4,17.15,2.4a8.32,8.32,0,0,1,.16,7,2.46,2.46,0,0,1,1.42,2.3c.07,2.46-1.27,3.76-3.39,4.62-3.47,1.41-7.09,2.47-10.5,4C229.05,85.51,227.31,86.87,225.57,87.05Z" fill="#fff"></path><path d="M225.2,87.57a4.83,4.83,0,0,1-3.67-2A10.1,10.1,0,0,1,219.44,81a17.27,17.27,0,0,1,6.46-17.13,14.32,14.32,0,0,1,11.4-2.44,9.45,9.45,0,0,1,6.5,5,8.79,8.79,0,0,1,.35,7,3.19,3.19,0,0,1,1.29,2.53c.07,3.18-2.08,4.43-3.71,5.09-1.43.58-2.91,1.12-4.34,1.63-2,.73-4.15,1.49-6.14,2.4-.64.3-1.27.65-1.87,1a10.35,10.35,0,0,1-3.76,1.52h0Zm.37-.52h0Zm8.83-25a13.53,13.53,0,0,0-7.9,2.57,16.5,16.5,0,0,0-6.08,16.12,9.31,9.31,0,0,0,1.87,4.17c1.38,1.62,2.5,1.7,3.23,1.63a9.36,9.36,0,0,0,3.37-1.4c.62-.34,1.26-.7,1.94-1,2-.93,4.16-1.69,6.22-2.43,1.42-.51,2.89-1,4.31-1.62,2.2-.89,3.12-2.13,3.08-4.14a2,2,0,0,0-1.1-1.84.5.5,0,0,1-.29-.28.51.51,0,0,1,0-.4,7.72,7.72,0,0,0-.15-6.56,8.51,8.51,0,0,0-5.83-4.5A11.81,11.81,0,0,0,234.4,62.06Z" fill="#231f20"></path><path d="M239.2,80s.55,5.34-.42,5.87-2.49-.94-2.49-.94" fill="#fff"></path><path d="M238.31,86.53a4.09,4.09,0,0,1-2.37-1.21.49.49,0,0,1,0-.7.5.5,0,0,1,.71,0c.51.49,1.46,1.11,1.9.87s.43-2.84.17-5.39a.5.5,0,0,1,1-.1c.22,2.12.42,5.75-.68,6.36A1.42,1.42,0,0,1,238.31,86.53Z" fill="#231f20"></path><path d="M224.62,98.53c-3.55-2.91-6-11.65-6-11.82a90.73,90.73,0,0,1,4.76-7.95s2.84,1.51,6.31-1,6.72-.3,11.64-3.24c1,2.23-1,4.85-2,6.71C238,83.86,236.5,86.44,235,89c-1,1.62-5.3-.6-5.8-1.5C228.06,90.2,228.06,90.2,224.62,98.53Z" fill="#fff"></path><path d="M224.62,99a.51.51,0,0,1-.31-.11c-3.54-2.89-6.39-11.81-6.09-12.42a89,89,0,0,1,4.79-8,.49.49,0,0,1,.65-.16c.11.05,2.63,1.32,5.78-1a9.22,9.22,0,0,1,5.35-1.54,12.63,12.63,0,0,0,6.33-1.72.49.49,0,0,1,.72.23c.89,2.09-.42,4.35-1.48,6.16-.2.35-.4.68-.56,1-1.4,2.63-2.88,5.24-4.38,7.78a1.87,1.87,0,0,1-1.75.82,8.56,8.56,0,0,1-4.31-1.69l-4.27,10.34a.51.51,0,0,1-.34.3Zm-5.43-12.24c.22,1,2.28,7.92,5.24,10.89,3.17-7.68,3.2-7.75,4.3-10.37a.49.49,0,0,1,.43-.31.47.47,0,0,1,.46.25,7.26,7.26,0,0,0,4.07,1.82.92.92,0,0,0,.87-.33c1.5-2.52,3-5.13,4.35-7.74l.58-1c.85-1.45,1.87-3.21,1.6-4.72a14,14,0,0,1-6.23,1.55A8.36,8.36,0,0,0,230,78.16a6.81,6.81,0,0,1-6.41,1.22C222.85,80.55,220.34,84.43,219.19,86.79Z" fill="#231f20"></path><path d="M236,87a2.42,2.42,0,0,1-2.68-2.49" fill="#fff"></path><path d="M235.84,87.51a3.37,3.37,0,0,1-2.23-.8,2.89,2.89,0,0,1-.84-2.2.51.51,0,0,1,.5-.5h0a.51.51,0,0,1,.5.51,1.92,1.92,0,0,0,.52,1.46,2.44,2.44,0,0,0,1.63.52.5.5,0,0,1,.07,1Z" fill="#231f20"></path><path d="M229.19,87.5a5.16,5.16,0,0,1-2.4-3.34s-2,4.1.85,7.06Z" fill="#231f20"></path><path d="M227.64,91.72a.52.52,0,0,1-.36-.16c-3-3.17-1-7.44-.95-7.62a.51.51,0,0,1,.54-.28.5.5,0,0,1,.41.44,4.7,4.7,0,0,0,2.16,3,.51.51,0,0,1,.21.62l-1.54,3.72a.51.51,0,0,1-.37.3Zm-.85-6a5.66,5.66,0,0,0,.71,4.52l1.07-2.57A6.4,6.4,0,0,1,226.79,85.74Z" fill="#231f20"></path><ellipse cx="238.98" cy="78.31" rx="1.06" ry="0.42" transform="translate(47.01 240.75) rotate(-58.38)" fill="#231f20"></ellipse><path d="M233.13,78.59a4,4,0,0,0,.21-2.2A5.7,5.7,0,0,0,233,74.7a1.94,1.94,0,0,0-1.19-1.17,1.81,1.81,0,0,0-1.46.27,3.45,3.45,0,0,0-1,1.14,6.38,6.38,0,0,0,0,6.37l-.06-.24" fill="#fff"></path><path d="M229.33,81.81a.51.51,0,0,1-.43-.25,6.92,6.92,0,0,1,0-6.88,3.89,3.89,0,0,1,1.16-1.29,2.26,2.26,0,0,1,1.88-.34,2.39,2.39,0,0,1,1.51,1.46,5.9,5.9,0,0,1,.37,1.84,4.43,4.43,0,0,1-.26,2.46.5.5,0,0,1-.67.22.49.49,0,0,1-.22-.67,3.59,3.59,0,0,0,.15-1.92,5.6,5.6,0,0,0-.29-1.55,1.45,1.45,0,0,0-.87-.88,1.31,1.31,0,0,0-1,.21,2.87,2.87,0,0,0-.86,1,5.9,5.9,0,0,0-.22,5.48.45.45,0,0,1,.19.27l.07.24a.51.51,0,0,1-.29.59A.65.65,0,0,1,229.33,81.81Z" fill="#231f20"></path><path d="M180.4,100.47c-4.66-1.93-15.78.42-22.79,2.75s-30.12,8.67-30.12,8.67L110.63,85.22s-12,4.33-11.33,5.33,12,28.06,23.34,33.54,65.1.46,65.1.46Z" fill="#231f20"></path><path d="M146.41,127.16c-10.46,0-19.88-.64-24-2.62-6.64-3.21-14.31-14-22.79-32.16-.36-.77-.68-1.44-.75-1.55a.68.68,0,0,1-.07-.59c.42-1.27,7.48-4,11.65-5.49a.49.49,0,0,1,.59.2l16.67,26.36c2.94-.81,23.3-6.42,29.74-8.56,5.7-1.9,17.87-4.92,23.14-2.74a.5.5,0,0,1,.28.32l7.34,24.08a.52.52,0,0,1-.06.42.49.49,0,0,1-.37.22C186.39,125.18,164.8,127.16,146.41,127.16ZM99.82,90.48c.13.25.34.7.71,1.48,8.38,17.92,15.89,28.57,22.32,31.68,10.45,5,58.27,1,64.24.47L180,100.85c-4.76-1.76-15.84.72-22.23,2.84-6.94,2.32-29.91,8.62-30.15,8.68a.5.5,0,0,1-.55-.21L110.43,85.82C105.66,87.56,100.63,89.68,99.82,90.48Z" fill="#231f20"></path><polygon points="226.16 124.45 226.16 120.32 253.37 120.32 264.55 92.62 304.06 92.62 291.09 120.19 291.09 124.45 226.16 124.45" fill="#fff"></polygon><path d="M291.09,125H226.16a.51.51,0,0,1-.5-.5v-4.13a.5.5,0,0,1,.5-.5H253l11-27.39a.49.49,0,0,1,.46-.31h39.51a.5.5,0,0,1,.42.23.51.51,0,0,1,0,.48L291.59,120.3v4.15A.5.5,0,0,1,291.09,125Zm-64.43-1h63.93v-3.76a.54.54,0,0,1,.05-.22l12.63-26.85H264.89l-11,27.39a.52.52,0,0,1-.47.31H226.66Z" fill="#231f20"></path><path d="M198.66,89s4.51,34.68,7.67,35.52,35.3-5.89,35.3-5.89l-2.19-11.24s-23.07,4.1-22.69,0-2.58-19.55-2.58-19.55Z" fill="#e0e0e0"></path><path d="M206.49,124.46a17.24,17.24,0,0,1-3.43-.27c-2.24-.48-3.88-2.76-4.88-6.8C197,112.5,197,106.29,197.11,103c0-.08.31-8,1.23-8.74A.5.5,0,0,1,199,95c-.64,1.16-2.27,17.16,1,24.8.85,2,1.94,3.12,3.25,3.4,7.58,1.62,37.95-5,38.26-5a.49.49,0,0,1,.59.38.5.5,0,0,1-.38.6C240.63,119.38,217.23,124.46,206.49,124.46Z" fill="#231f20"></path><path d="M219.23,109.79a2.76,2.76,0,0,1-1.92-.81c-4-3.75-3.66-20.43-3.64-21.14a.5.5,0,0,1,1,0c0,.17-.36,16.94,3.32,20.38a1.74,1.74,0,0,0,1.39.54c5.71-.51,19.87-1.87,20-1.88a.49.49,0,0,1,.54.45.49.49,0,0,1-.45.54c-.14,0-14.3,1.38-20,1.88Z" fill="#231f20"></path><path d="M240.74,109.29s6.84-4.66,8.11-3.48,7.08,8.67,5.52,9.23-4.1-2.12-4.1-2.12-1.52,2.4-7.55,1.56Z" fill="#fff"></path><path d="M253.91,115.62c-1.36,0-2.91-1.3-3.63-2-.8.72-2.93,2-7.63,1.33a.49.49,0,0,1-.4-.32l-2-5.19a.49.49,0,0,1,.18-.59c2.16-1.46,7.32-4.73,8.73-3.43.82.75,6.32,7.41,5.92,9.39a.89.89,0,0,1-.57.68A1.9,1.9,0,0,1,253.91,115.62Zm-3.64-3.2a.5.5,0,0,1,.36.16c.88.92,2.59,2.27,3.51,2,.17-1.14-4.15-7.06-5.63-8.42-.5-.47-3.8,1.07-7.16,3.31l1.73,4.54c5.32.66,6.75-1.35,6.77-1.37a.51.51,0,0,1,.37-.23Z" fill="#231f20"></path><path d="M131.81,109.79a.5.5,0,0,1-.11-1L147,105.44a.5.5,0,0,1,.59.39.5.5,0,0,1-.38.59l-15.25,3.36Z" fill="#fff"></path><path d="M290.66,120.82H253.37a.51.51,0,0,1-.5-.5.5.5,0,0,1,.5-.5h37.29a.5.5,0,0,1,.5.5A.5.5,0,0,1,290.66,120.82Z" fill="#231f20"></path><rect x="104.72" y="132.65" width="196.06" height="135.27" fill="#231f20"></rect><path d="M300.78,268.41H104.72a.5.5,0,0,1-.5-.49V132.65a.5.5,0,0,1,.5-.5H300.78a.5.5,0,0,1,.5.5V267.92A.49.49,0,0,1,300.78,268.41Zm-195.56-1H300.29V133.14H105.22Z" fill="#231f20"></path><rect x="91.31" y="124.34" width="222.88" height="43.43" rx="9.87" fill="#fff"></rect><path d="M304.33,168.27H101.18a10.38,10.38,0,0,1-10.37-10.36v-23.7a10.38,10.38,0,0,1,10.37-10.37H304.33a10.38,10.38,0,0,1,10.37,10.37v23.7A10.38,10.38,0,0,1,304.33,168.27ZM101.18,124.84a9.38,9.38,0,0,0-9.37,9.37v23.7a9.37,9.37,0,0,0,9.37,9.36H304.33a9.38,9.38,0,0,0,9.37-9.36v-23.7a9.38,9.38,0,0,0-9.37-9.37Z" fill="#231f20"></path><rect x="91.31" y="175.43" width="222.88" height="43.43" rx="9.87" fill="#fff"></rect><path d="M304.33,219.36H101.18A10.38,10.38,0,0,1,90.81,209V185.3a10.38,10.38,0,0,1,10.37-10.37H304.33A10.38,10.38,0,0,1,314.7,185.3V209A10.38,10.38,0,0,1,304.33,219.36ZM101.18,175.93a9.38,9.38,0,0,0-9.37,9.37V209a9.37,9.37,0,0,0,9.37,9.36H304.33A9.38,9.38,0,0,0,313.7,209V185.3a9.39,9.39,0,0,0-9.37-9.37Z" fill="#231f20"></path><rect x="91.31" y="226.53" width="222.88" height="43.43" rx="9.87" fill="#fff"></rect><path d="M304.33,270.45H101.18a10.38,10.38,0,0,1-10.37-10.36v-23.7A10.37,10.37,0,0,1,101.18,226H304.33a10.37,10.37,0,0,1,10.37,10.36v23.7A10.38,10.38,0,0,1,304.33,270.45ZM101.18,227a9.37,9.37,0,0,0-9.37,9.36v23.7a9.37,9.37,0,0,0,9.37,9.36H304.33a9.38,9.38,0,0,0,9.37-9.36v-23.7a9.38,9.38,0,0,0-9.37-9.36Z" fill="#231f20"></path><path d="M253.37,144.94h-148a.56.56,0,0,1,0-1.11h148a.56.56,0,1,1,0,1.11Z" fill="#d1d3d4"></path><path d="M266.78,148.61a4.23,4.23,0,1,1,4.22-4.23A4.23,4.23,0,0,1,266.78,148.61Zm0-7.34a3.12,3.12,0,1,0,3.11,3.11A3.12,3.12,0,0,0,266.78,141.27Z" fill="#d1d3d4"></path><circle cx="282.26" cy="144.38" r="3.67" fill="#231f20"></circle><path d="M282.26,148.55a4.17,4.17,0,1,1,4.17-4.17A4.17,4.17,0,0,1,282.26,148.55Zm0-7.34a3.18,3.18,0,1,0,3.18,3.17A3.17,3.17,0,0,0,282.26,141.21Z" fill="#231f20"></path><circle cx="297.75" cy="144.38" r="3.67" fill="#e0e0e0"></circle><path d="M253.37,196h-148a.56.56,0,0,1,0-1.11h148a.56.56,0,1,1,0,1.11Z" fill="#d1d3d4"></path><path d="M266.78,199.7a4.23,4.23,0,1,1,4.22-4.22A4.23,4.23,0,0,1,266.78,199.7Zm0-7.34a3.12,3.12,0,1,0,3.11,3.12A3.12,3.12,0,0,0,266.78,192.36Z" fill="#d1d3d4"></path><circle cx="282.26" cy="195.48" r="3.67" fill="#231f20"></circle><path d="M282.26,199.65a4.17,4.17,0,1,1,4.17-4.17A4.18,4.18,0,0,1,282.26,199.65Zm0-7.35a3.18,3.18,0,1,0,3.18,3.18A3.18,3.18,0,0,0,282.26,192.3Z" fill="#231f20"></path><circle cx="297.75" cy="195.48" r="3.67" fill="#e0e0e0"></circle><path d="M253.37,247.12h-148a.56.56,0,0,1,0-1.11h148a.56.56,0,1,1,0,1.11Z" fill="#d1d3d4"></path><path d="M266.78,250.79a4.23,4.23,0,1,1,4.22-4.22A4.23,4.23,0,0,1,266.78,250.79Zm0-7.34a3.12,3.12,0,1,0,3.11,3.12A3.12,3.12,0,0,0,266.78,243.45Z" fill="#d1d3d4"></path><circle cx="282.26" cy="246.57" r="3.67" fill="#231f20"></circle><path d="M282.26,250.74a4.17,4.17,0,1,1,4.17-4.17A4.17,4.17,0,0,1,282.26,250.74Zm0-7.35a3.18,3.18,0,1,0,3.18,3.18A3.18,3.18,0,0,0,282.26,243.39Z" fill="#231f20"></path><circle cx="297.75" cy="246.57" r="3.67" fill="#e0e0e0"></circle><path d="M287.05,57.51c-.4-.39-.74-.69-1.06-1a5.1,5.1,0,0,0-5.71-1.14,5,5,0,0,0-3,5c0,.52-.13.68-.6.79a7.73,7.73,0,0,0,2,15.23q15.75,0,31.48,0a8.21,8.21,0,0,0,1.21-.09,7,7,0,0,0,.12-13.73c-.77-.12-1.56-.11-2.35-.16a11.36,11.36,0,0,0-7.94-13.31,11.09,11.09,0,0,0-7.45.45A11.62,11.62,0,0,0,287.05,57.51Z" fill="#fff"></path><path d="M291.08,76.92H278.69a8.18,8.18,0,0,1-8.31-8.65,8.18,8.18,0,0,1,6.19-7.56.61.61,0,0,0,.22-.08.89.89,0,0,0,0-.19,5.49,5.49,0,0,1,3.29-5.53,5.62,5.62,0,0,1,6.27,1.24l.46.46a12,12,0,0,1,6.75-7.49,11.75,11.75,0,0,1,7.78-.48c6.3,1.69,9.15,8,8.4,13.33h.18c.54,0,1.1,0,1.65.13a7.46,7.46,0,0,1-.12,14.73,9.51,9.51,0,0,1-1.28.09Zm-8.79-21.49a4.42,4.42,0,0,0-1.81.38,4.52,4.52,0,0,0-2.69,4.55,1.12,1.12,0,0,1-1,1.31,7.23,7.23,0,0,0,1.88,14.24q15.75,0,31.48,0a9.25,9.25,0,0,0,1.14-.08,6.46,6.46,0,0,0,.12-12.75,15.45,15.45,0,0,0-1.55-.12l-.76,0a.5.5,0,0,1-.46-.59A10.79,10.79,0,0,0,294,50a11.05,11.05,0,0,0-6.42,7.62.48.48,0,0,1-.35.34.5.5,0,0,1-.48-.12l-.37-.35-.69-.67A4.75,4.75,0,0,0,282.29,55.43Z" fill="#d1d3d4"></path><path d="M152.44,38.88c-.41-.39-.74-.7-1.06-1a5.12,5.12,0,0,0-5.71-1.14,5,5,0,0,0-3,5c0,.51-.13.67-.6.79a7.73,7.73,0,0,0,2,15.23h31.48a11.89,11.89,0,0,0,1.2-.09A7,7,0,0,0,176.89,44c-.78-.12-1.57-.11-2.35-.16a11.37,11.37,0,0,0-7.95-13.31,11.09,11.09,0,0,0-7.45.46A11.54,11.54,0,0,0,152.44,38.88Z" fill="#fff"></path><path d="M156.89,58.28H144.08a8.2,8.2,0,0,1-8.32-8.65,8.2,8.2,0,0,1,6.2-7.57.93.93,0,0,0,.22-.08s0,0,0-.19a5.5,5.5,0,0,1,3.28-5.53,5.6,5.6,0,0,1,6.27,1.25l.47.45A12,12,0,0,1,159,30.48a11.6,11.6,0,0,1,7.77-.48c6.31,1.69,9.16,8,8.4,13.32h.18a13.56,13.56,0,0,1,1.66.13,7.45,7.45,0,0,1-.13,14.72,11.58,11.58,0,0,1-1.27.1Zm-9.21-21.49a4.4,4.4,0,0,0-1.81.39,4.52,4.52,0,0,0-2.7,4.54,1.1,1.1,0,0,1-1,1.31,7.23,7.23,0,0,0,1.88,14.25h31.48a9.34,9.34,0,0,0,1.14-.09,6.46,6.46,0,0,0,.11-12.75,15.27,15.27,0,0,0-1.56-.11l-.74,0a.52.52,0,0,1-.37-.19.52.52,0,0,1-.09-.4A10.82,10.82,0,0,0,166.46,31a10.63,10.63,0,0,0-7.12.44A11,11,0,0,0,152.92,39a.53.53,0,0,1-.35.35.52.52,0,0,1-.48-.12l-.38-.37c-.25-.23-.47-.44-.68-.66A4.77,4.77,0,0,0,147.68,36.79Z" fill="#d1d3d4"></path><path d="M80.76,132.6c-.49-.47-.9-.85-1.29-1.24A6.21,6.21,0,0,0,72.54,130a6.07,6.07,0,0,0-3.63,6.11c0,.63-.15.82-.73,1a9.39,9.39,0,0,0,2.43,18.49q19.11,0,38.22,0a10.14,10.14,0,0,0,1.46-.11,8.44,8.44,0,0,0,.15-16.67c-.94-.14-1.9-.14-2.85-.2a13.8,13.8,0,0,0-9.65-16.16,13.5,13.5,0,0,0-9,.56A14,14,0,0,0,80.76,132.6Z" fill="#fff"></path><path d="M86.22,156.05H70.61a9.84,9.84,0,0,1-10-10.39,9.84,9.84,0,0,1,7.44-9.08c.37-.09.37-.09.35-.44a6.58,6.58,0,0,1,3.92-6.61,6.72,6.72,0,0,1,7.5,1.49c.22.22.44.44.69.67a14.46,14.46,0,0,1,8.18-9.18,14,14,0,0,1,9.37-.58c7.64,2,11.07,9.71,10.11,16.17l.33,0a17.14,17.14,0,0,1,2,.15,8.95,8.95,0,0,1-.15,17.67,12,12,0,0,1-1.53.11ZM75,130a5.35,5.35,0,0,0-2.24.48,5.59,5.59,0,0,0-3.33,5.62,1.24,1.24,0,0,1-1.11,1.48A8.89,8.89,0,0,0,70.61,155q19.11,0,38.22,0a9.88,9.88,0,0,0,1.39-.1,7.95,7.95,0,0,0,.14-15.69,16.47,16.47,0,0,0-1.9-.14l-.9-.05a.5.5,0,0,1-.36-.19.49.49,0,0,1-.1-.4,13.21,13.21,0,0,0-9.29-15.58,13,13,0,0,0-8.71.53c-4,1.7-6.55,4.75-7.86,9.32a.52.52,0,0,1-.35.34.53.53,0,0,1-.48-.12l-.46-.44-.83-.8A5.87,5.87,0,0,0,75,130Z" fill="#d1d3d4"></path><path d="M186.91,83.19H171.82a3.35,3.35,0,0,1-3.34-3.35V71.25a3.35,3.35,0,0,1,3.34-3.34h15.09a3.35,3.35,0,0,1,3.35,3.34v8.59A3.36,3.36,0,0,1,186.91,83.19ZM171.82,68.91a2.34,2.34,0,0,0-2.34,2.34v8.59a2.35,2.35,0,0,0,2.34,2.35h15.09a2.35,2.35,0,0,0,2.35-2.35V71.25a2.35,2.35,0,0,0-2.35-2.34Z" fill="#d1d3d4"></path><path d="M175.9,80.4a.48.48,0,0,1-.26-.07.52.52,0,0,1-.24-.43V71.19a.49.49,0,0,1,.24-.42.51.51,0,0,1,.48,0l9,4.36a.49.49,0,0,1,.28.45.51.51,0,0,1-.28.45l-9,4.35A.54.54,0,0,1,175.9,80.4Zm.5-8.41V79.1l7.32-3.55Z" fill="#d1d3d4"></path><path d="M308.28,163.53c-.34-.32-.62-.58-.89-.85a4.3,4.3,0,0,0-4.8-1,4.2,4.2,0,0,0-2.52,4.23c0,.44-.11.57-.5.67a6.5,6.5,0,0,0,1.68,12.81h26.49a6.86,6.86,0,0,0,1-.07,5.86,5.86,0,0,0,.1-11.56c-.65-.1-1.31-.09-2-.13a9.56,9.56,0,0,0-6.69-11.2,9.32,9.32,0,0,0-6.27.38A9.76,9.76,0,0,0,308.28,163.53Z" fill="#fff"></path><path d="M312.38,179.94H301.25a7,7,0,0,1-7.08-7.36,7,7,0,0,1,5.27-6.43l.14,0a.31.31,0,0,1,0-.11,4.7,4.7,0,0,1,2.81-4.73,4.82,4.82,0,0,1,5.37,1.06q.13.15.3.3a10.11,10.11,0,0,1,5.68-6.23,10,10,0,0,1,6.59-.41,10.1,10.1,0,0,1,7.14,11.22h.07a13.41,13.41,0,0,1,1.4.11,6.35,6.35,0,0,1-.11,12.54,6.71,6.71,0,0,1-1.08.08Zm-8.1-18.08a3.69,3.69,0,0,0-1.49.31,3.73,3.73,0,0,0-2.22,3.75,1,1,0,0,1-.88,1.19,6,6,0,0,0-4.52,5.5,6,6,0,0,0,6.08,6.32h26.49a6.13,6.13,0,0,0,.94-.07,5.35,5.35,0,0,0,.1-10.56,10.7,10.7,0,0,0-1.29-.1l-.64,0a.53.53,0,0,1-.37-.2.51.51,0,0,1-.09-.4A9,9,0,0,0,320.06,157a8.87,8.87,0,0,0-5.94.36,9.2,9.2,0,0,0-5.36,6.36.48.48,0,0,1-.35.34.48.48,0,0,1-.47-.12l-.32-.3L307,163A3.92,3.92,0,0,0,304.28,161.86Z" fill="#d1d3d4"></path><path d="M329.15,113.9H312.58a.5.5,0,0,1-.5-.5V101.82a.5.5,0,0,1,.5-.5h16.57a.5.5,0,0,1,.5.5V113.4A.5.5,0,0,1,329.15,113.9Zm-16.07-1h15.57V102.32H313.08Z" fill="#d1d3d4"></path><path d="M312.57,113.9a.46.46,0,0,1-.29-.1.5.5,0,0,1-.11-.69l6.55-8.82a.51.51,0,0,1,.38-.2.53.53,0,0,1,.4.18l5.12,6.07a.5.5,0,0,1-.76.64l-4.72-5.58L313,113.7A.51.51,0,0,1,312.57,113.9Z" fill="#d1d3d4"></path><path d="M322.83,109.5a.51.51,0,0,1-.41-.79l2.65-3.83a.51.51,0,0,1,.37-.21.53.53,0,0,1,.41.15l3.66,3.83a.5.5,0,1,1-.72.69L325.55,106l-2.3,3.32A.52.52,0,0,1,322.83,109.5Z" fill="#d1d3d4"></path><path d="M323.12,105.67a1.53,1.53,0,1,1,1.53-1.53A1.53,1.53,0,0,1,323.12,105.67Zm0-2a.52.52,0,0,0-.52.52.52.52,0,0,0,.52.53.53.53,0,0,0,.53-.53A.52.52,0,0,0,323.12,103.62Z" fill="#d1d3d4"></path><path d="M267,54.59H247.4a.5.5,0,0,1-.5-.5V43.28a.5.5,0,0,1,.5-.5H267a.5.5,0,0,1,.5.5V54.09A.5.5,0,0,1,267,54.59Zm-19.13-1h18.63V43.78H247.9Z" fill="#d1d3d4"></path><path d="M257.22,50.52a.6.6,0,0,1-.29-.08l-9.81-6.75A.5.5,0,0,1,247,43a.51.51,0,0,1,.7-.12l9.53,6.55,9.52-6.55a.5.5,0,1,1,.57.82l-9.81,6.75A.54.54,0,0,1,257.22,50.52Z" fill="#d1d3d4"></path><path d="M247.4,54.59a.5.5,0,0,1-.41-.22.49.49,0,0,1,.13-.69L255,48.27a.51.51,0,0,1,.7.13.5.5,0,0,1-.13.7l-7.86,5.4A.52.52,0,0,1,247.4,54.59Z" fill="#d1d3d4"></path><path d="M267,54.59a.51.51,0,0,1-.28-.09l-7.86-5.4a.51.51,0,0,1-.12-.7.5.5,0,0,1,.69-.13l7.86,5.41a.5.5,0,0,1,.13.69A.52.52,0,0,1,267,54.59Z" fill="#d1d3d4"></path><path d="M104.57,65.53h-.13a3.6,3.6,0,0,1-2.55-1.18,3.71,3.71,0,0,1-1-2.7,3.69,3.69,0,0,1,4.81-3.34c0-2.62,0-5.23,0-7.85a.92.92,0,0,1,.64-1c2.66-.87,5.32-1.76,8-2.64L117,45.9l.22,0a.64.64,0,0,1,.43.09.55.55,0,0,1,.23.34c0,.19,0,.27,0,.35v3.23q0,5.15,0,10.29a3.77,3.77,0,0,1-1.58,3.11,3.6,3.6,0,0,1-3.32.46,3.71,3.71,0,0,1-2.15-1.94,3.62,3.62,0,0,1-.12-2.85,3.68,3.68,0,0,1,4.55-2.24V49.22l-7,2.33v4.88c0,1.82,0,3.65,0,5.47a3.65,3.65,0,0,1-1.12,2.6A3.73,3.73,0,0,1,104.57,65.53Zm0-6.4a2.71,2.71,0,0,0-1.51.47,2.68,2.68,0,0,0-1.18,2.09,2.73,2.73,0,0,0,.73,2,2.62,2.62,0,0,0,1.85.86,2.71,2.71,0,0,0,2-.76,2.56,2.56,0,0,0,.81-1.88c0-1.82,0-3.64,0-5.46V51.19a.5.5,0,0,1,.34-.47l8-2.67a.52.52,0,0,1,.45.07.52.52,0,0,1,.21.41v8.9a.49.49,0,0,1-.22.41.52.52,0,0,1-.47,0l-.39-.16a2.75,2.75,0,0,0-2.11,0,2.67,2.67,0,0,0-1.42,1.53,2.64,2.64,0,0,0,.08,2.08,2.69,2.69,0,0,0,1.57,1.41,2.63,2.63,0,0,0,2.42-.33,2.76,2.76,0,0,0,1.16-2.29q0-5.14,0-10.28V47l-2.3.75-7.93,2.64v0c0,2.7,0,5.37,0,8,0,.13,0,.25,0,.39v.19a.49.49,0,0,1-.68.44l-.22-.09-.32-.12A2.65,2.65,0,0,0,104.58,59.13Z" fill="#d1d3d4"></path><path d="M212.66,30.84h1a.29.29,0,0,0,.1,0,7.79,7.79,0,0,1,4,1.34A8.1,8.1,0,0,1,221.38,40a7.77,7.77,0,0,1-2.26,4.88,8.16,8.16,0,0,1-6.88,2.52,7.9,7.9,0,0,1-3.71-1.34,8.23,8.23,0,0,1-3.63-5.73c0-.24-.07-.48-.1-.72V38.7a1.22,1.22,0,0,0,0-.17c0-.36.08-.71.15-1.06a8.33,8.33,0,0,1,7-6.54Zm6.55,13a7.55,7.55,0,0,0,1.55-4.3h-3.29c-.06.59-.09,1.18-.17,1.75s-.2,1.15-.29,1.69Zm-13.73-4.3a7.6,7.6,0,0,0,1.55,4.3l2.23-.86a15.09,15.09,0,0,1-.46-3.44Zm15.27-.67a7.48,7.48,0,0,0-1.55-4.28L217,35.4a14.92,14.92,0,0,1,.46,3.42ZM209.26,35.4,207,34.53a7.55,7.55,0,0,0-1.54,4.29h3.3A14.92,14.92,0,0,1,209.26,35.4Zm4.2,7.07c.49,0,1,.07,1.43.12s1,.14,1.43.21a.65.65,0,0,0,0-.13,14,14,0,0,0,.41-3c0-.14,0-.17-.17-.17-1,0-2,0-3,0l-.14,0Zm-4-3a13.52,13.52,0,0,0,.44,3.28l2.87-.32v-3Zm7.3-.67a13.64,13.64,0,0,0-.44-3.27l-2.87.32v3Zm-6.86-3.27a14.24,14.24,0,0,0-.44,3.27h3.31V35.88Zm6.22-.69a7.47,7.47,0,0,0-1-2A3.25,3.25,0,0,0,214,31.77a6.09,6.09,0,0,0-.57-.25v3.64A13.32,13.32,0,0,0,216.13,34.86Zm-2.67,8.3v3.6a2.13,2.13,0,0,0,1.06-.55,5.72,5.72,0,0,0,1.4-2.16l.22-.59A13.58,13.58,0,0,0,213.46,43.16Zm-.68,3.61V43.15a15.52,15.52,0,0,0-2.69.31c.16.39.3.76.47,1.11a4.91,4.91,0,0,0,1.21,1.68A2.22,2.22,0,0,0,212.78,46.77Zm-2.71-11.92a13.41,13.41,0,0,0,2.71.31V31.55a1.86,1.86,0,0,0-.76.33,4,4,0,0,0-1.27,1.51C210.5,33.86,210.3,34.35,210.07,34.85Zm8.67,9.5a9.55,9.55,0,0,0-1.94-.74,7.83,7.83,0,0,1-1.63,2.92A7.7,7.7,0,0,0,218.74,44.35Zm-7.68-12.53a7.19,7.19,0,0,0-3.55,2.2l1.9.71c.24-.54.45-1,.69-1.54A5.45,5.45,0,0,1,211.06,31.82ZM207.5,44.35a7.8,7.8,0,0,0,3.6,2.19,7.55,7.55,0,0,1-1.64-2.93A9.5,9.5,0,0,0,207.5,44.35Zm7.71-12.53a6,6,0,0,1,.93,1.37c.24.49.45,1,.68,1.51a9,9,0,0,0,1.92-.73A7.49,7.49,0,0,0,215.21,31.82Z" fill="#d1d3d4"></path><path d="M76.22,119.62a1,1,0,0,1-.3,0,1,1,0,0,1-.73-1v-2.22a3.15,3.15,0,0,1-1.69-2.8v-4.64a3.17,3.17,0,0,1,3.16-3.17H87.23a3.17,3.17,0,0,1,3.17,3.17v4.64a3.17,3.17,0,0,1-3.17,3.16H78.62l-1.55,2.41A1,1,0,0,1,76.22,119.62Zm.44-12.85a2.17,2.17,0,0,0-2.16,2.17v4.64a2.15,2.15,0,0,0,1.38,2,.49.49,0,0,1,.31.46v2.55L77.92,116a.52.52,0,0,1,.42-.23h8.89a2.17,2.17,0,0,0,2.17-2.16v-4.64a2.17,2.17,0,0,0-2.17-2.17Z" fill="#d1d3d4"></path></g></svg>