<svg xmlns="http://www.w3.org/2000/svg" width="274" height="244" viewBox="0 0 274 244"><g fill="none" transform="translate(.627 .111)"><path fill="#FFF" d="M135.784509,9.8509196 C135.622109,7.5062696 125.137159,14.3270696 125.137159,14.3270696 C125.137159,14.3270696 134.018409,7.5062696 133.257159,5.8010696 C132.495909,4.0958696 122.488009,11.5561196 122.488009,11.5561196 C122.488009,11.5561196 131.623009,4.5221696 130.212159,3.0199696 C128.801309,1.5177696 119.047159,9.4246196 119.047159,9.4246196 C119.047159,9.4246196 128.994159,0.675319597 125.198059,0.462169597 C123.492859,0.370819597 110.105009,9.4753696 95.6006593,20.4069196 C99.6606593,25.4819196 103.720659,30.3843696 108.105459,35.1244196 C112.754159,30.3133196 116.418309,26.4867696 116.915659,25.8473196 C118.407709,23.9289696 133.226709,25.2078696 133.287609,22.8632196 C133.348509,20.5185696 123.523309,19.4528196 123.523309,19.4528196 C123.523309,19.4528196 135.946909,12.1955696 135.784509,9.8509196 Z"/><path fill="#231F20" d="M108.044559,35.5812447 L108.044559,35.5812447 C107.917801,35.5834924 107.796029,35.5318315 107.709609,35.4390696 C103.812009,31.2166696 99.8332093,26.5375196 95.1743593,20.6911196 C95.0957924,20.5942596 95.0592432,20.4699923 95.0728593,20.3460196 C95.0927764,20.2221601 95.1578628,20.1100668 95.2555593,20.0313696 C105.984109,11.9113696 122.731609,0.00541959728 125.127009,0.00541959728 L125.127009,0.00541959728 C125.663357,-0.0453932941 126.168509,0.265151187 126.365309,0.766669597 C126.690109,1.6801696 125.553309,3.3650696 124.061259,5.0601196 C126.842359,3.2026696 129.623459,1.7715196 130.496359,2.7053196 C130.70232,2.926425 130.799057,3.22779973 130.760259,3.5274696 C130.689209,4.3597696 129.745259,5.5574696 128.486659,6.8871196 C130.394859,5.7604696 132.181259,4.9078696 133.003409,5.1210196 C133.27102,5.17349025 133.497384,5.35080875 133.612409,5.5980696 C134.109759,6.6638196 132.201559,8.8359196 129.978709,10.8760696 C132.363959,9.5971696 134.779659,8.5618696 135.703309,9.0287696 C136.00815,9.1775884 136.206884,9.48153437 136.220959,9.8204696 L136.220959,9.8204696 C136.373209,12.0128696 128.303959,17.0878696 124.842809,19.1584696 C128.009609,19.5949196 133.703759,20.6809696 133.653009,22.8733696 C133.653009,24.4669196 130.293359,24.7308196 124.863109,25.0150196 C121.696309,25.1875696 117.758109,25.4007196 117.189709,26.1315196 C116.621309,26.8623196 113.840209,29.7652196 108.349059,35.4492196 C108.26566,35.5267677 108.158173,35.5733454 108.044559,35.5812447 Z M96.1995093,20.4881196 C100.574159,25.9691196 104.319509,30.4249696 108.054709,34.4443696 C114.489809,27.7859696 116.174709,25.9386696 116.489359,25.5631196 C117.260759,24.5481196 120.163659,24.3451196 124.842809,24.0913696 C127.603609,23.9391196 132.739509,23.6650696 132.759809,22.8530696 C132.759809,21.6655196 127.928409,20.4069196 123.411659,19.9095696 C123.21428,19.8868306 123.054241,19.7391023 123.015809,19.5441696 C122.973761,19.3499171 123.059295,19.1503377 123.228959,19.0468196 C129.247909,15.5552196 135.408959,11.1704196 135.327759,9.9118196 L135.327759,9.9118196 C134.698459,9.4753696 130.151259,11.6982196 125.390909,14.7939696 C125.182366,14.9024351 124.925705,14.8389518 124.79177,14.645777 C124.657836,14.4526022 124.688396,14.1899783 124.863109,14.0327196 C129.440759,10.5208196 133.155659,6.7957696 132.810559,6.0649696 C132.130509,5.7300196 127.502109,8.4400696 122.751909,12.0027196 C122.547302,12.1596789 122.254194,12.1210523 122.097234,11.9164446 C121.940275,11.7118369 121.978902,11.4187289 122.183509,11.2617696 C125.096559,9.0084696 129.755409,4.9180196 129.877209,3.5274696 C129.877209,3.4665696 129.877209,3.4259696 129.877209,3.4158196 C129.308809,2.7865196 124.264259,5.8619696 119.311059,9.8610696 C119.109752,10.0126927 118.825232,9.98157338 118.661459,9.7900196 C118.575274,9.70596718 118.526672,9.59068016 118.526672,9.4702946 C118.526672,9.34990904 118.575274,9.23462201 118.661459,9.1505696 C122.203809,6.0243696 125.827359,2.0455696 125.502559,1.1422196 C125.502559,1.0508696 125.269109,1.0102696 125.086409,1.0001196 L125.086409,1.0001196 C123.695859,0.929069597 112.317709,8.3690196 96.1995093,20.4881196 Z"/><path fill="#231F20" d="M56.4825593,55.2417196 C53.4984593,64.6710696 71.5248593,108.22472 71.5248593,108.22472 L93.8548593,80.6268696 C93.3575093,79.7742696 82.0707093,60.1441696 82.0707093,60.1441696 C82.0707093,60.1441696 98.7268593,44.7263196 108.014109,35.1244196 C103.649609,30.3843696 99.5287093,25.4413196 95.5093093,20.4069196 C77.6859093,33.8455196 58.1268593,50.0449196 56.4825593,55.2417196 Z"/><path fill="#231F20" d="M71.5248593,108.67132 L71.4132093,108.67132 C71.2571179,108.649014 71.125194,108.54425 71.0681093,108.39727 C70.3271593,106.62102 53.0112593,64.6000196 56.0156593,55.1199196 L56.0156593,55.1199196 C57.7107093,49.7708696 77.3306593,33.5004196 95.2251093,20.0618196 C95.4166417,19.9137921 95.6912376,19.9453031 95.8442593,20.1328696 C100.482809,25.9589696 104.451459,30.6279696 108.338909,34.8300696 C108.493987,35.0034523 108.493987,35.2656869 108.338909,35.4390696 C99.7824593,44.2898696 84.7909093,58.2359696 82.6289593,60.2355196 C84.0702593,62.7425696 93.7939593,79.6220196 94.2507093,80.4137196 C94.3506736,80.5681185 94.3506736,80.7668207 94.2507093,80.9212196 L71.9207093,108.50892 C71.824965,108.626851 71.6758413,108.68803 71.5248593,108.67132 L71.5248593,108.67132 Z M95.4585593,21.0260696 C78.6095593,33.7338696 58.5328593,50.2580696 56.8885593,55.3736696 L56.8885593,55.3736696 C54.1886593,63.8996696 69.3426093,101.72872 71.6263593,107.35182 L93.3270593,80.5862696 L81.7053093,60.3674696 C81.6067391,60.1820196 81.6441203,59.953579 81.7966593,59.8092196 C81.9590593,59.6569696 98.1990593,44.5842196 107.435559,35.1142696 C103.700359,31.0542696 99.8839593,26.5679696 95.4585593,21.0260696 Z"/><path fill="#FFF" d="M109.567059,100.26712 C111.394059,112.91402 119.808409,123.61212 128.943409,133.38657 C134.414259,139.19237 141.123409,145.09967 149.131759,144.72412 C152.958309,144.53127 156.551409,142.88697 159.890759,141.01937 C168.252475,136.376722 175.732034,130.298936 181.987309,123.06402 C179.449135,123.073268 177.314705,121.162361 177.044259,118.63862 C180.372646,120.195647 184.292794,119.75659 187.194259,117.50182 C193.406059,112.56892 190.391509,108.21457 185.641309,104.54027 C178.213939,98.8142846 172.306222,91.3520882 168.437059,82.8091196 C162.509459,69.5532196 150.735459,51.8414696 133.297759,55.8811696 C116.529959,59.7584696 111.982759,74.8007696 109.668559,89.7212696 C109.107933,93.2117307 109.07372,96.7665145 109.567059,100.26712 L109.567059,100.26712 Z"/><path fill="#231F20" d="M148.380659,145.20117 C140.514409,145.20117 133.977809,139.41567 128.608459,133.70122 C120.031709,124.56622 111.008359,113.47227 109.110309,100.33817 C108.596068,96.7752441 108.620019,93.1552788 109.181359,89.5994696 C110.196359,83.2049696 111.810209,75.0139196 115.636759,68.3758196 C119.294457,61.6887857 125.695857,56.9378045 133.155659,55.3736696 C141.113259,53.5365196 156.317959,54.6225696 168.832909,82.5655196 C172.662208,91.0446751 178.522432,98.4492656 185.895059,104.12412 C189.447559,106.87477 191.112159,109.29047 191.132459,111.74677 C191.132459,113.77677 189.904309,115.86767 187.448009,117.83677 C184.663605,119.997348 180.964571,120.576161 177.653259,119.36942 C178.244055,121.259027 179.987259,122.551049 181.967009,122.56667 C182.152633,122.557653 182.325211,122.662003 182.403459,122.83057 C182.484109,122.995221 182.455936,123.192437 182.332409,123.32792 C176.06099,130.638695 168.53734,136.773787 160.114059,141.44567 C156.977709,143.19147 153.212059,145.00832 149.152059,145.20117 L148.380659,145.20117 Z M138.098709,55.7390696 C136.506852,55.7390696 134.920163,55.9202129 133.368809,56.2770196 C116.895359,60.0934196 112.449659,74.6079196 110.094859,89.7720196 C109.548779,93.2337142 109.52483,96.7577227 110.023809,100.22652 L110.023809,100.22652 C111.881259,113.11702 120.803109,124.07902 129.308809,133.09222 C134.708609,138.83712 141.275659,144.66322 149.131759,144.25722 C152.998909,144.07452 156.642759,142.30842 159.687759,140.61337 C167.726147,136.14244 174.936139,130.322947 181.002759,123.40912 C178.624878,122.977401 176.815218,121.031396 176.557059,118.62847 C176.541919,118.462768 176.620153,118.302389 176.760059,118.21232 C176.900158,118.126296 177.076711,118.126296 177.216809,118.21232 C180.376148,119.683232 184.092225,119.268159 186.849159,117.13642 C189.072009,115.36017 190.198659,113.56362 190.178629,111.78737 C190.178629,109.67617 188.574659,107.42287 185.306359,104.89552 C177.81795,99.1273268 171.864149,91.6049005 167.970159,82.9918196 C157.931809,60.4994196 146.218709,55.7390696 138.098709,55.7390696 Z"/><path fill="#FFF" d="M225.510509,139.96377 C224.800009,142.77532 213.137659,163.60312 213.137659,163.60312 L228.362659,171.83477 C228.362659,171.83477 242.136209,148.75367 243.313609,147.22102 C244.491009,145.68837 254.478609,132.38172 255.838709,127.71272 C257.198809,123.04372 247.596909,119.59272 243.658709,119.96827 C239.720509,120.34382 226.221009,137.15222 225.510509,139.96377 Z"/><path fill="#231F20" d="M228.342359,172.301676 C228.266959,172.301676 228.193009,172.280956 228.129209,172.24077 L212.904209,164.00912 C212.793055,163.950083 212.711971,163.846886 212.680909,163.72492 C212.630536,163.61186 212.630536,163.482729 212.680909,163.36967 C216.740909,156.19362 224.444759,142.05467 225.003009,139.85212 L225.003009,139.85212 C225.754109,136.86802 239.405859,119.86677 243.526759,119.55212 C246.521009,119.29837 252.763259,121.11522 255.270309,124.15007 C256.201617,125.152565 256.554089,126.562452 256.204109,127.88527 C254.752659,132.96027 243.709459,147.41387 243.607959,147.55597 C242.450859,149.04802 228.819409,171.91597 228.677309,172.11897 C228.5996,172.22803 228.476125,172.29538 228.342359,172.301676 Z M213.777109,163.41027 L228.179959,171.21562 C230.037409,168.09957 241.821559,148.37812 242.927909,146.93682 C245.252259,143.89182 254.153809,131.83362 255.371809,127.58077 C255.641795,126.549744 255.353073,125.452598 254.610559,124.68802 C252.326809,121.91707 246.389059,120.19157 243.668859,120.42502 C239.953959,120.74982 226.576259,137.68002 225.957109,140.07542 C225.287209,142.72457 215.462009,160.39572 213.777109,163.41027 Z"/><path fill="#231F20" d="M221.135859,148.96682 L207.534859,165.55192 L178.201359,145.89137 L165.706709,169.15517 C165.706709,169.15517 207.250659,200.34612 213.137659,197.36202 C219.024659,194.37792 236.858209,157.57402 236.858209,157.57402 L221.135859,148.96682 Z"/><path fill="#231F20" d="M212.193709,197.99132 C203.627109,197.99132 169.492659,172.55542 165.432659,169.51042 C165.261173,169.374573 165.210094,169.136206 165.310859,168.94202 L177.805509,145.67822 C177.864546,145.567065 177.967743,145.485982 178.089709,145.45492 C178.21137,145.423092 178.340846,145.445288 178.444959,145.51582 L207.423209,164.95307 L220.770459,148.71307 C220.903319,148.542909 221.140623,148.495448 221.328709,148.60142 L237.101809,157.20862 C237.305899,157.327988 237.385158,157.583377 237.284509,157.79732 C236.553709,159.30967 219.288559,194.77377 213.320359,197.78832 C212.966267,197.944523 212.580053,198.014111 212.193709,197.99132 Z M166.275109,169.02322 C178.008509,177.80297 208.346859,199.29052 212.965109,196.96617 C218.334459,194.23582 234.412059,161.68477 236.310109,157.76687 L221.247509,149.53522 L207.879959,165.83612 C207.741093,166.021384 207.47974,166.061939 207.291259,165.92747 L178.353609,146.53082 L166.275109,169.02322 Z"/><polygon fill="#231F20" points="233.59 108.407 233.458 148.967 252.652 148.967 252.652 108.407"/><path fill="#231F20" d="M252.651609,149.45402 L233.457959,149.45402 C233.337734,149.45402 233.222574,149.405608 233.138522,149.319646 C233.05447,149.233684 233.008627,149.117464 233.011244,148.99727 L233.133159,108.39727 C233.138678,108.148986 233.341564,107.95067 233.589909,107.95067 L252.651609,107.95067 C252.89826,107.95067 253.098325,108.150619 253.098325,108.39727 L253.098325,148.99727 C253.100942,149.117464 253.055098,149.233684 252.971047,149.319646 C252.886995,149.405608 252.771835,149.45402 252.651609,149.45402 L252.651609,149.45402 Z M233.914709,148.56082 L252.184709,148.56082 L252.184709,108.85402 L234.016209,108.85402 L233.914709,148.56082 Z"/><polygon fill="#FFF" points="235.539 111.99 235.437 143.861 250.683 143.861 250.683 111.99"/><path fill="#231F20" d="M250.682509,144.31812 L235.457509,144.31812 C235.335783,144.320246 235.218465,144.272585 235.132709,144.18617 C235.04368,144.097977 234.995801,143.976437 235.000759,143.85122 L235.092109,111.99037 C235.09763,111.73648 235.30506,111.53362 235.559009,111.53362 L250.702809,111.53362 C250.955065,111.53362 251.159559,111.738114 251.159559,111.99037 L251.159559,143.86137 C251.159559,143.986108 251.108784,144.10547 251.018685,144.191735 C250.928585,144.278001 250.807124,144.323664 250.682509,144.31812 L250.682509,144.31812 Z M235.904109,143.36402 L250.215609,143.36402 L250.215609,112.45727 L236.005609,112.45727 L235.904109,143.36402 Z"/><path fill="#FFF" d="M224.678209,142.07497 C224.678209,142.07497 221.815909,128.41307 226.109359,126.27142 C230.402809,124.12977 245.160909,121.62272 242.877159,124.97222 C240.593409,128.32172 232.595209,130.39232 232.595209,130.39232 C232.595209,130.39232 234.239509,135.17297 232.432809,138.56307"/><path fill="#231F20" d="M224.678209,142.53172 C224.460076,142.53535 224.271245,142.380852 224.231609,142.16632 C224.109809,141.59792 221.338859,128.12887 225.906359,125.85527 C229.611109,124.01812 241.567809,121.65317 243.313609,123.64257 C243.696686,124.113569 243.670616,124.795731 243.252709,125.23612 C241.222709,128.28112 234.960159,130.20962 233.173759,130.71712 C233.549309,132.04677 234.401909,135.85302 232.838809,138.83712 C232.714181,139.059714 232.433963,139.141067 232.209509,139.01982 C231.98764,138.895089 231.90277,138.618144 232.016659,138.39052 C233.711709,135.22372 232.168909,130.64607 232.148609,130.59532 C232.097767,130.478825 232.097767,130.346414 232.148609,130.22992 C232.211571,130.115881 232.317579,130.031806 232.442959,129.99647 C232.524159,129.99647 240.299059,127.96647 242.461009,124.76922 C242.613259,124.54592 242.653859,124.38352 242.582809,124.30232 C241.486609,123.04372 230.402809,124.70832 226.281909,126.73832 C223.023759,128.36232 224.333109,138.31947 225.104509,142.02422 C225.131521,142.144132 225.109061,142.26987 225.042207,142.373016 C224.975353,142.476162 224.869748,142.548009 224.749259,142.57232 L224.678209,142.53172 Z"/><path fill="#E0E0E0" d="M118.559959,115.54287 L93.2763093,72.1414696 L64.8563093,103.69782 L75.4123093,126.45412 C75.4123093,126.45412 59.1723093,164.89217 59.1723093,240.23562 C59.1723093,240.23562 145.630009,239.86007 167.391609,239.86007 L138.971609,195.65682 C138.971609,195.65682 146.076609,175.17412 149.740759,170.05852 L170.903509,181.57877 L195.649209,147.87062 L118.559959,115.54287 Z"/><path fill="#231F20" d="M118.194559,156.91427 C132.150809,165.03427 135.449559,132.02647 136.068709,124.88087 C136.352021,122.91535 136.234631,120.912825 135.723609,118.99387 C134.921759,116.55787 133.044009,114.66997 131.166259,112.90387 C128.923109,110.87387 126.334859,108.74237 123.279709,108.61042 C120.388129,108.65569 117.688767,110.067491 116.002159,112.41667 C114.35462,114.747889 113.169355,117.373389 112.510559,120.15097 C109.221959,131.63062 109.343759,143.74972 115.687509,154.18392 C116.218204,155.178502 116.972096,156.036619 117.890059,156.69097 L118.194559,156.91427 Z"/><path fill="#231F20" d="M122.366209 158.63977C120.808189 158.591699 119.291136 158.129225 117.971259 157.29997L117.656609 157.10712C116.677427 156.416713 115.874271 155.505773 115.311959 154.44782 109.496009 144.87637 108.379509 132.99072 112.084259 120.05962 112.757134 117.227331 113.966489 114.550212 115.646909 112.17307 117.415276 109.699715 120.259632 108.220951 123.300009 108.19427 126.426209 108.32622 129.075359 110.39682 131.420009 112.60952 133.328209 114.36547 135.256709 116.30412 136.099159 118.85177 136.623241 120.837511 136.747447 122.90761 136.464559 124.94177 135.520609 135.58912 132.810559 154.03167 125.299559 157.91912 124.394348 158.392771 123.387851 158.63977 122.366209 158.63977L122.366209 158.63977ZM122.995509 109.08747C120.341046 109.220755 117.892754 110.558906 116.347259 112.72117 114.741307 115.008903 113.587203 117.582382 112.947009 120.30322 109.303159 132.99072 110.389209 144.66322 116.073209 153.98092 116.558592 154.915135 117.253341 155.724517 118.103209 156.34587L118.397559 156.51842 118.397559 156.51842C120.813259 157.92927 122.944759 158.12212 124.903709 157.10712 130.120809 154.40722 134.038709 142.65352 135.601809 124.84027 135.872558 122.932719 135.76216 120.990406 135.277009 119.12582 134.505609 116.78117 132.668459 114.94402 130.841459 113.25912 128.567859 111.16822 126.081109 109.19912 123.239109 109.08747L122.995509 109.08747ZM159.840009 95.0195696C161.129059 99.6987196 159.017859 105.65677 155.851059 109.11792 153.739859 111.40167 149.111459 112.01067 148.177659 108.29577 147.000272 103.353839 147.867655 98.1458821 150.583209 93.8523196 152.613209 90.5129696 156.500659 88.6047696 158.997559 92.8982196 159.368863 93.5659621 159.652039 94.2790203 159.840009 95.0195696Z"/><path fill="#231F20" d="M151.648959,111.401765 C151.259371,111.404109 150.870896,111.359809 150.491859,111.26972 C149.10163,110.916148 148.034251,109.801505 147.741209,108.39727 C146.536314,103.349651 147.406526,98.0296579 150.156909,93.6290196 C151.577909,91.3452696 153.587609,89.9648696 155.465359,89.974964 C156.531109,89.974964 158.063759,90.4723696 159.342659,92.6850696 C159.745988,93.38389 160.059722,94.1307136 160.276459,94.9079196 L160.276459,94.9079196 C161.677159,99.9829196 159.261459,106.07292 156.216459,109.42242 C155.027901,110.6779 153.377781,111.392952 151.648959,111.401765 L151.648959,111.401765 Z M155.414609,90.8682196 C153.871809,90.8682196 152.156459,92.0963696 150.918159,94.0857696 C148.287353,98.2848651 147.456964,103.365971 148.614109,108.18412 C148.823242,109.268196 149.643353,110.131888 150.715159,110.39682 C152.480733,110.721535 154.290129,110.124779 155.516109,108.81342 C158.378409,105.70752 160.712909,99.8509696 159.413709,95.1413696 L159.413709,95.1413696 C159.221436,94.4312638 158.938278,93.7489563 158.571259,93.1113696 C157.708509,91.6294696 156.663059,90.8682196 155.455209,90.8580696 L155.414609,90.8682196 Z"/><path fill="#FFF" d="M138.068259,115.95902 C136.038259,123.74407 134.008259,141.47612 121.067009,132.19902 C119.741659,131.157569 118.58454,129.918287 117.636309,128.52472 C111.262109,120.02917 113.078959,114.66997 116.377709,105.34212 C117.798709,101.28212 119.026859,97.2221196 120.437709,93.1621196 C121.848559,89.1021196 124.172909,85.2857196 126.101409,81.4388696 C126.030359,81.5708196 132.445159,82.4538696 138.859959,79.5408196 C145.274759,76.6277696 150.583209,73.6030696 150.583209,73.6030696 C152.318859,76.2014696 154.196609,78.1705696 155.120259,81.2561696 C155.972406,84.2494869 156.217425,87.3829785 155.840909,90.4723696 C155.028909,98.0544196 151.994059,106.25562 148.553209,113.02567 C145.112359,119.79572 138.068259,115.95902 138.068259,115.95902 Z"/><path fill="#231F20" d="M127.603609,135.31507 C125.573609,135.31507 123.310159,134.40157 120.792959,132.59487 C119.429511,131.524184 118.238272,130.250791 117.260759,128.81907 C110.693709,120.05962 112.672959,114.46697 115.941259,105.21017 C116.621309,103.26137 117.270909,101.26182 117.900209,99.3333196 C118.580259,97.2525696 119.280609,95.1109196 120.031709,93.0098696 C121.165056,90.0669045 122.504805,87.2076434 124.040959,84.4534196 C124.609359,83.3775196 125.177759,82.3016196 125.715709,81.2257196 L125.715709,81.2257196 C125.770083,81.1159197 125.866292,81.0325698 125.982719,80.9943969 C126.099147,80.9562239 126.226029,80.9664291 126.334859,81.0227196 L126.334859,81.0227196 C130.542604,81.5174875 134.805671,80.8578524 138.667109,79.1145196 C144.980409,76.2217696 150.299009,73.2173696 150.349759,73.1869196 C150.564732,73.0720458 150.831726,73.1377002 150.968909,73.3391696 C151.405359,73.9887696 151.841809,74.5977696 152.278259,75.1966196 C153.716979,76.9545208 154.830619,78.9549472 155.566859,81.1039196 C156.432464,84.1606194 156.68429,87.3584572 156.307809,90.5129696 C155.566859,97.3033196 152.968459,105.37257 148.969359,113.21852 C148.124183,115.102468 146.531208,116.548286 144.574409,117.20747 C142.497372,117.735397 140.302345,117.538453 138.352459,116.64922 C138.149459,117.45107 137.936309,118.35442 137.723159,119.29837 C136.383359,125.11432 134.556359,133.09222 129.714809,134.91922 C129.040088,135.175214 128.325238,135.309248 127.603609,135.31507 Z M126.385609,81.9565196 C125.898409,82.9715196 125.370609,83.9053196 124.863109,84.8797196 C123.347605,87.5985449 122.024853,90.4204158 120.904609,93.3245196 C120.163659,95.3545196 119.463309,97.5469196 118.783259,99.6175196 C118.103209,101.68812 117.504359,103.55572 116.814159,105.51467 C113.535709,114.79177 111.739159,119.89722 118.011859,128.26082 C118.93275,129.617632 120.055422,130.825873 121.341059,131.84377 C124.528159,134.13767 127.248359,134.88877 129.461059,134.05647 C133.835709,132.40202 135.551059,124.71847 136.890859,119.10552 C137.164909,117.92812 137.408509,116.82177 137.662259,115.87782 C137.701668,115.74219 137.799151,115.630995 137.928459,115.574178 C138.057766,115.517361 138.205603,115.520764 138.332159,115.58347 C140.208905,116.548598 142.368743,116.811378 144.422159,116.32442 C146.132468,115.740078 147.520116,114.466534 148.248709,112.81252 C152.197059,105.05792 154.775159,97.1003196 155.495809,90.4216196 C155.862807,87.3931817 155.621249,84.3219445 154.785309,81.3881196 C154.064886,79.336465 152.985757,77.4290881 151.598209,75.7548696 C151.232809,75.2575196 150.857259,74.7398696 150.502009,74.2222196 C149.172359,74.9530196 144.503359,77.5006696 139.113709,79.9671196 C135.126406,81.7604273 130.72996,82.4475911 126.385609,81.9565196 L126.385609,81.9565196 Z"/><path fill="#231F20" d="M135.936759,123.49032 C135.936759,123.49032 129.653909,122.05917 126.801759,116.83192 C123.949609,111.60467 125.675109,107.59542 125.675109,107.59542 C125.675109,107.59542 131.156109,113.93917 138.088559,115.98947 L135.936759,123.49032 Z"/><path fill="#231F20" d="M135.936759 123.936971 135.835259 123.936971C135.571359 123.87602 129.318959 122.40427 126.395759 117.06537 123.472559 111.72647 125.167609 107.60557 125.238659 107.43302 125.300273 107.29126 125.430808 107.191438 125.583759 107.16912 125.734151 107.147612 125.885604 107.200621 125.989759 107.31122 125.989759 107.37212 131.480909 113.58392 138.169759 115.57332 138.284637 115.606254 138.381522 115.683856 138.438747 115.788769 138.495973 115.893682 138.508764 116.017154 138.474259 116.13157L136.373209 123.61212C136.318067 123.806732 136.139009 123.939984 135.936759 123.936971L135.936759 123.936971ZM125.847659 108.47847C125.257404 111.256119 125.731957 114.154151 127.177309 116.59847 129.501659 120.84117 134.211259 122.50577 135.622109 122.92192L137.520159 116.27367C131.907209 114.47712 127.360009 110.07202 125.847659 108.47847L125.847659 108.47847ZM139.783609 103.170065C138.505115 103.071113 137.265934 102.68235 136.160059 102.03322 135.94424 101.909894 135.869259 101.634964 135.992584 101.419145 136.115909 101.203326 136.39084 101.128344 136.606659 101.25167 137.388209 101.69827 139.651659 102.71327 140.666659 102.05352 141.326409 101.62722 140.605759 97.4555696 139.083259 92.9185196 139.00478 92.6830806 139.13202 92.4285993 139.367459 92.3501196 139.602898 92.2716399 139.85738 92.3988806 139.935859 92.6343196 140.849359 95.3443696 142.788009 101.76932 141.143709 102.78432 140.736034 103.039134 140.26436 103.172892 139.783609 103.170065Z"/><path fill="#231F20" d="M137.926159 108.67132C136.872902 108.68759 135.83034 108.458226 134.881159 108.00142 132.343659 106.74282 130.821159 103.78917 130.293359 99.2216696 130.269388 98.9762013 130.444621 98.7560367 130.689209 98.7243196 130.807801 98.7100671 130.92716 98.7439142 131.020617 98.8182982 131.114074 98.8926822 131.173839 99.0014036 131.186559 99.1201696 131.663609 103.36287 133.033859 106.08307 135.246559 107.24017 138.626509 108.91492 142.940259 106.37742 142.980859 106.35712 143.082857 106.294044 143.205937 106.274641 143.322393 106.303278 143.438849 106.331915 143.538895 106.406185 143.600009 106.50937 143.725531 106.722895 143.657991 106.997556 143.447759 107.12852 141.756199 108.074798 139.863231 108.603715 137.926159 108.67132L137.926159 108.67132ZM138.403209 88.4119208C138.167977 88.412467 137.972647 88.2304551 137.956609 87.9957696 137.885559 86.9807696 137.591209 86.3616196 137.063409 86.0977196 136.048409 85.5699196 134.150359 86.5240196 133.521059 86.9401696 133.313649 87.077509 133.034174 87.0207051 132.896834 86.8132946 132.759495 86.605884 132.816299 86.326409 133.023709 86.1890696 133.135359 86.1180196 135.733759 84.4331196 137.459259 85.2958696 138.375554 85.8503026 138.910546 86.865616 138.849809 87.9348696 138.858166 88.0533807 138.818958 88.1703374 138.740859 88.2598655 138.66276 88.3493936 138.552208 88.4041135 138.433659 88.4119208L138.403209 88.4119208ZM149.659559 93.4463196C149.427932 93.4472785 149.234015 93.2709902 149.212959 93.0403196 149.212959 93.0403196 149.009959 90.8073196 147.741209 89.9953196 146.645009 89.2746696 145.366109 90.9189696 145.355959 90.9392696 145.283612 91.0339599 145.176422 91.0958098 145.058237 91.1110596 144.940052 91.1263093 144.820673 91.093694 144.726659 91.0204696 144.630406 90.9496396 144.566556 90.8431879 144.549389 90.7249222 144.532221 90.6066565 144.563168 90.4864439 144.635309 90.3911696 145.254459 89.5791696 146.797259 88.3002696 148.238559 89.2442196 149.872709 90.3201196 150.096009 92.8779196 150.106159 92.9794196 150.117431 93.0979703 150.080888 93.2161129 150.004652 93.3075968 149.928415 93.3990806 149.818799 93.4563283 149.700159 93.4666196L149.659559 93.4463196ZM113.962009 90.9900196C113.802617 92.6076897 114.083166 94.2383765 114.774009 95.7097696 116.215309 98.3792196 119.767809 99.4652696 122.670709 98.6025196 130.252759 96.3593696 133.896609 81.9362196 128.161859 76.2725196 122.833109 71.0148196 116.783709 79.3175196 115.535259 84.2199696 114.956709 86.5240196 114.043209 88.6555196 113.962009 90.9900196Z"/><path fill="#231F20" d="M120.640709,99.3434696 C118.090491,99.4102735 115.700208,98.1047221 114.378159,95.9229196 C113.638604,94.3832304 113.339981,92.6687809 113.515409,90.9697196 L113.515409,90.9697196 C113.654937,89.2708191 113.995654,87.5944892 114.530409,85.9759196 C114.713109,85.3567696 114.895809,84.7376196 115.058209,84.1184696 C115.941259,80.7080696 119.219709,75.4199196 123.086859,74.3541696 C125.0296,73.839311 127.096875,74.4591011 128.435909,75.9578696 C131.206859,78.6882196 132.110209,83.6312696 130.800859,88.8585196 C129.491509,94.0857696 126.416059,97.9935196 122.762059,99.0085196 C122.073524,99.2163771 121.359791,99.3290718 120.640709,99.3434696 L120.640709,99.3434696 Z M114.408609,91.0103196 C114.247293,92.5505207 114.510552,94.1055003 115.169859,95.5067696 C116.742045,97.9639111 119.76855,99.0587816 122.548909,98.1762196 C125.908559,97.1612196 128.750559,93.5275196 129.968559,88.6453696 C131.186559,83.7632196 130.384709,79.1043696 127.847209,76.5973196 C126.737294,75.3192898 124.999074,74.7805203 123.360909,75.2067696 C119.869309,76.2217696 116.773559,81.2257196 115.961559,84.3417696 C115.799159,84.9710696 115.616459,85.6003696 115.433759,86.2296696 C114.90743,87.7774371 114.566712,89.3822174 114.418759,91.0103196 L114.408609,91.0103196 Z"/><path fill="#231F20" d="M156.114959,99.9118748 C155.924926,99.9124794 155.738538,99.8597281 155.577009,99.7596196 C155.10226,99.4668637 154.952682,98.8458852 155.242059,98.3690696 C155.353709,98.1863696 166.610059,79.6727696 168.538559,68.1322196 C169.238909,63.9504196 167.381459,59.7077196 163.311309,56.1653696 C157.749109,51.3339696 149.446409,49.1720196 143.569559,51.0294696 C133.115059,54.3383696 127.552859,78.4344696 127.491959,78.6374696 C127.366005,79.1793563 126.827313,79.5188684 126.284109,79.3987196 C125.738101,79.2774157 125.393126,78.7372574 125.512709,78.1908696 C125.746159,77.1758696 131.399709,52.7448196 142.960559,49.0908196 C149.568209,47.0100696 158.479909,49.2836696 164.640959,54.6327196 C169.269359,58.6927196 171.370409,63.5647196 170.548259,68.4671696 C168.518259,80.4035696 157.444609,98.6532696 156.977709,99.4246696 C156.794307,99.7259375 156.467658,99.9103983 156.114959,99.9118748 Z"/><path fill="#231F20" d="M211.148259 243.66632C207.509788 243.654379 203.895969 243.068632 200.440009 241.93067 196.320632 240.469768 192.510055 238.252956 189.203959 235.39407 183.570709 230.83672 178.607359 225.39632 173.806409 220.16907 170.761409 216.82972 167.614909 213.37872 164.326309 210.19162 154.024059 200.20402 143.792859 194.88542 133.876309 194.39822 120.539209 193.72832 108.714459 201.35097 97.9351593 209.68412 96.9201593 210.49612 95.8239593 211.33857 94.7480593 212.19117 86.0292093 219.10332 76.1431093 226.92897 63.9631093 225.09182 55.6604093 223.84337 49.2151593 218.11877 45.2769593 213.54112 35.5837093 202.26447 31.0669593 186.13612 33.3101093 170.49497 35.6852093 153.64597 45.0739593 141.77047 61.2226093 135.19327 74.5901593 129.75287 87.2066093 122.14037 99.4170593 114.78162L99.5185593 114.73087C107.080309 110.16337 115.108959 104.31697 117.270909 95.5473696 117.314424 95.3660573 117.451363 95.2217328 117.630141 95.1687617 117.80892 95.1157906 118.002378 95.1622205 118.137641 95.2905617 118.272905 95.4189029 118.329424 95.6096573 118.285909 95.7909696 116.032609 104.92597 107.811109 110.92462 100.066659 115.59362L99.9753093 115.65452C87.7344093 123.03357 75.0773593 130.66637 61.6387593 136.13722 45.8453593 142.56217 36.6697593 154.16362 34.3454093 170.64722 32.1733093 185.99402 36.5581093 201.77727 46.0382093 212.83062 49.8647593 217.28647 56.1070093 222.84867 64.1052093 224.04637 75.8487593 225.82262 85.1360093 218.46387 94.1086093 211.35887L97.3058593 208.84167C108.247559 200.38672 120.255009 192.65242 133.916909 193.34262 144.066909 193.85012 154.521409 199.26007 165.006359 209.42022 168.315259 212.63777 171.471909 216.09892 174.527059 219.44842 179.297559 224.68582 184.230459 230.09577 189.812959 234.60237 193.020799 237.381046 196.717317 239.539069 200.714059 240.96642 214.426709 245.39182 228.119059 241.03747 241.506909 228.01502 261.370459 208.64882 272.565909 179.29502 272.210659 147.38342 272.048259 132.48322 269.267159 120.84117 263.704959 111.77722 261.461809 108.11307 258.629959 104.03277 254.021859 101.99262 251.667059 100.97762 246.145459 100.59192 244.013959 103.58617 243.201959 104.73312 243.120759 106.08307 242.998959 107.79842 242.998959 108.53937 242.897459 109.37167 242.785809 110.27502 242.749372 110.555304 242.492619 110.752981 242.212334 110.716544 241.93205 110.680108 241.734372 110.423354 241.770809 110.14307 241.892609 109.27017 241.933209 108.48862 241.983959 107.73752 242.095609 105.93082 242.197109 104.37787 243.181659 102.99747 245.658259 99.5160196 251.727959 99.8814196 254.427859 101.06897 259.340459 103.22077 262.233209 107.45332 264.577859 111.21897 270.241559 120.44532 273.063259 132.25992 273.235809 147.35297 273.591059 179.50817 262.294109 209.16647 242.227559 228.71537 232.057259 238.67252 221.633209 243.65617 211.148259 243.66632ZM113.028209 19.9603196C112.881224 19.9590204 112.74144 19.8964851 112.642509 19.7877696 112.447849 19.5869887 112.447849 19.2679005 112.642509 19.0671196 114.875509 17.1284696 117.088209 16.2758696 119.229859 16.5194696 121.047704 16.7679032 122.698969 17.7099249 123.837959 19.1483196 123.998207 19.3765624 123.948838 19.6907274 123.726309 19.8588196 123.617382 19.9385122 123.481198 19.9715331 123.347867 19.9505812 123.214537 19.9296292 123.095044 19.8564304 123.015809 19.7471696 122.044982 18.5358494 120.653297 17.7349058 119.118209 17.5040196 117.270909 17.2908696 115.322109 18.0724196 113.312409 19.8182196 113.235762 19.8953876 113.135932 19.9453027 113.028209 19.9603196Z"/><path fill="#231F20" d="M143.265059 184.28882C143.194749 184.303316 143.12222 184.303316 143.051909 184.28882 142.826262 184.167576 142.736646 183.889767 142.848909 183.65952L155.658209 157.98002C155.773126 157.752989 156.050329 157.662103 156.277359 157.77702 156.50439 157.891936 156.595276 158.169139 156.480359 158.39617L143.681209 184.03507C143.602986 184.192784 143.441086 184.291504 143.265059 184.28882L143.265059 184.28882ZM119.402409 189.29277C104.735659 189.29277 87.5009593 184.54257 86.5468593 184.27867 86.3670795 184.254169 86.2177739 184.127734 86.1639897 183.954447 86.1102056 183.781161 86.1616839 183.592407 86.2959973 183.47042 86.4303108 183.348432 86.6231335 183.315305 86.7904593 183.38547 87.1051093 183.46667 117.879909 191.96222 132.110209 186.53197 132.351227 186.443001 132.618839 186.565468 132.709059 186.80602 132.754882 186.91888 132.752618 187.045559 132.702792 187.15671 132.652966 187.267861 132.559901 187.353837 132.445159 187.39472 128.242967 188.789247 123.827768 189.43177 119.402409 189.29277L119.402409 189.29277Z"/><rect width="2.213" height="3.289" x="241.608" y="105.565" fill="#231F20"/><path fill="#231F20" d="M243.821109,109.30062 L241.608409,109.30062 C241.360064,109.300681 241.157178,109.102303 241.151659,108.85402 L241.151659,105.56542 C241.151659,105.445194 241.200071,105.330034 241.286033,105.245982 C241.371995,105.161931 241.488215,105.116087 241.608409,105.11882 L243.821109,105.11882 C244.06776,105.11882 244.267709,105.318769 244.267709,105.56542 L244.267709,108.85402 C244.267709,108.972465 244.220657,109.08606 244.136903,109.169813 C244.053149,109.253567 243.939555,109.30062 243.821109,109.30062 L243.821109,109.30062 Z M242.055009,108.39727 L243.374509,108.39727 L243.374509,106.01202 L242.055009,106.01202 L242.055009,108.39727 Z"/><path fill="#FFF" d="M122.822959 95.9838196 122.092159 95.2733196C126.720142 90.6678518 127.780327 83.5724464 124.700709 77.8153196L125.573609 77.2976696C128.878698 83.4512702 127.761082 91.0436413 122.822959 95.9838196L122.822959 95.9838196ZM156.317959 109.30062 155.374009 108.92507C158.337809 101.28212 157.586709 95.6387196 157.586709 95.5879696L158.601709 95.4458696C158.622009 95.6590196 159.383259 101.38362 156.317959 109.30062Z"/><rect width="10.515" height="1.015" x="73.161" y="63.407" fill="#FFF" transform="rotate(-45.63 78.419 63.915)"/><rect width="1.015" height="8.699" x="210.941" y="163.133" fill="#FFF" transform="rotate(-63.91 211.448 167.483)"/><path fill="#E6E7E8" d="M4.19990926 115.27897C3.77360926 115.17747 3.31685926 115.10642 2.90070926 114.96432 1.57069514 114.634728.513409699 113.627606.119609262 112.31517-.162370776 111.179207.0596090721 109.976816.728609262 109.01642 1.84783617 107.318921 3.6178967 106.158466 5.62090926 105.80902 6.93025926 105.51467 7.51895926 105.58572 9.59970926 106.09322L9.59970926 81.6520196 33.6349093 76.8409196 33.6349093 77.3890196C33.6349093 87.1736196 33.6349093 96.9480696 33.6349093 106.73267 33.6961882 108.286677 33.0415525 109.782987 31.8586593 110.79267 29.9178533 112.675199 27.1131561 113.365705 24.5202093 112.59937 23.1769005 112.300908 22.1075483 111.286194 21.7391093 109.96037 21.4405284 108.829629 21.659949 107.624675 22.3379593 106.67177 23.4565135 104.964295 25.237373 103.801585 27.2505593 103.46437 28.5632152 103.177116 29.9309489 103.275819 31.1887593 103.74857L31.1887593 86.9401696 29.4835593 87.2751196C23.7657259 88.4254529 18.0580426 89.5656363 12.3605093 90.6956696 12.0458593 90.7565696 11.9951093 90.8783696 11.9951093 91.1625696 11.9951093 97.1104696 11.9951093 103.04822 11.9951093 108.98597 12.0554983 110.836335 11.1725091 112.590845 9.65045926 113.64482 8.53009062 114.492112 7.20726048 115.031043 5.81375926 115.20792 5.74125739 115.227002 5.67005999 115.250734 5.60060926 115.27897L4.19990926 115.27897ZM199.638159 42.1583696C199.848295 42.0640484 200.051765 41.9555308 200.247159 41.8335696 200.860273 41.4966152 201.247153 40.8582637 201.262159 40.1588196 201.260131 39.558584 200.992571 38.9900191 200.531359 38.6058696 199.756109 37.9182075 198.731736 37.5804213 197.699509 37.6720696 197.007191 37.6965015 196.337014 37.9222453 195.771009 38.3216696L192.573759 26.2228696 180.018209 26.9739696 180.089259 27.2277196C181.358009 32.0692696 182.647059 36.9108196 183.915809 41.7625196 184.086964 42.5374345 184.60286 43.19165 185.316509 43.5387696 186.524612 44.2119584 188.0011 44.1848313 189.183659 43.4677196 189.802891 43.1422901 190.192925 42.502633 190.198659 41.8031196 190.199148 41.2045385 189.935435 40.6362544 189.478009 40.2501696 188.69505 39.5540164 187.659191 39.2124032 186.615709 39.3062196 185.930371 39.3345434 185.267779 39.5601066 184.707509 39.9558196L182.576009 31.7140196 183.469209 31.6531196 192.391059 31.1151696C192.553459 31.1151696 192.594059 31.1151696 192.634659 31.2978696 193.406059 34.2312196 194.197759 37.1747196 194.948859 40.1182196 195.151032 41.0527036 195.817439 41.8186884 196.714959 42.1482196 197.383028 42.4210748 198.110568 42.5155151 198.826159 42.4222696L198.937809 42.4222696 199.638159 42.1583696ZM248.469809 207.48157C248.469809 207.28872 248.469809 207.09587 248.469809 206.90302 248.407173 206.370736 248.207862 205.863718 247.891259 205.43127 247.37648 204.680979 246.708902 204.04799 245.932309 203.57382 245.155775 203.075758 244.290946 202.731204 243.384659 202.55882 242.80809 202.447077 242.215428 202.447077 241.638859 202.55882L241.486609 202.55882C241.481007 202.491269 241.481007 202.42337 241.486609 202.35582 241.588109 201.95997 241.689609 201.57427 241.801259 201.19872L243.831259 194.09372C244.572209 191.51562 245.323309 188.93752 246.064259 186.35942L246.064259 186.20717 245.353759 186.14627C243.409515 186.042628 241.467641 186.390011 239.679909 187.16127 238.009055 187.851956 236.613665 189.076046 235.711259 190.64272 235.457509 191.08932 235.264659 191.56637 235.051509 192.04342 234.909409 192.34792 234.797759 192.67272 234.665809 192.98737 234.660181 193.031173 234.660181 193.075516 234.665809 193.11932L234.919559 192.96707C235.725796 192.437624 236.570617 191.96941 237.446909 191.56637 238.79947 190.958274 240.281178 190.69331 241.760659 190.79497 242.397775 190.857374 243.024923 190.997119 243.628259 191.21112L243.628259 191.21112C243.623664 191.261766 243.623664 191.312724 243.628259 191.36337 242.396726 195.639903 241.175343 199.913053 239.964109 204.18282 239.948525 204.259856 239.948525 204.339233 239.964109 204.41627 240.050721 205.171296 240.369957 205.880711 240.877609 206.44627 241.519849 207.230737 242.332011 207.858948 243.252709 208.28342L244.044409 208.62852 244.775209 208.84167 244.978209 208.84167C245.581133 208.963333 246.202286 208.963333 246.805209 208.84167 247.312908 208.770026 247.77777 208.517776 248.114559 208.13117 248.224207 207.977503 248.325842 207.818274 248.419059 207.65412L248.469809 207.48157ZM.150059262 209.71457C.150059262 209.47097.150059262 209.21722.261709262 208.97362.439440425 208.303189.78934014 207.690864 1.27670926 207.19737 2.0958575 206.342553 3.08463255 205.668388 4.17960926 205.21812 5.2756027 204.736552 6.4542841 204.471176 7.65090926 204.43657 8.4142868 204.413285 9.17523279 204.533796 9.89405926 204.79182L10.0869093 204.86287C10.091929 204.774975 10.091929 204.686865 10.0869093 204.59897 10.0869093 204.08132 9.98540926 203.58397 9.92450926 203.05617 9.53880926 199.855536 9.14972593 196.665053 8.75725926 193.48472 8.33095926 190.01342 7.89450926 186.55227 7.46820926 183.09112L7.46820926 182.88812C7.78285926 182.88812 8.09750926 182.88812 8.39185926 182.95917 10.9152629 183.210493 13.3466559 184.04064 15.4968593 185.38502 17.4955479 186.615713 19.0330352 188.470686 19.8715093 190.66302 20.0929359 191.295091 20.2793028 191.938904 20.4297593 192.59152 20.5515593 193.01782 20.6327593 193.45427 20.7342593 193.89072 20.7498166 193.947184 20.7498166 194.006805 20.7342593 194.06327L20.4399093 193.80952C19.5108846 192.965508 18.5202034 192.191962 17.4761093 191.49532 15.8690807 190.438394 14.0233656 189.799895 12.1067593 189.63787 11.2751497 189.583579 10.4400211 189.6313 9.62000926 189.77997L9.62000926 189.77997C9.62498166 189.844157 9.62498166 189.908632 9.62000926 189.97282 10.2966759 195.710953 10.9902593 201.46262 11.7007593 207.22782 11.7210106 207.324891 11.7210106 207.425098 11.7007593 207.52217 11.4414799 208.491137 10.8839894 209.354005 10.1072093 209.98862 9.12357639 210.868251 7.94919251 211.507561 6.67650926 211.85622 6.32125926 211.96787 5.95585926 212.04907 5.60060926 212.14042L4.58560926 212.26222 4.42320926 212.26222C3.62443762 212.312946 2.82362277 212.202489 2.06840926 211.93742 1.4351264 211.747843.893399985 211.332519.545909262 210.77017.428077989 210.551158.32631024 210.323876.241409262 210.09012L.150059262 209.71457ZM208.894959 85.3567696C209.026909 85.0928696 209.138559 84.8188196 209.290809 84.5752196 209.764149 83.88557 210.407413 83.3297063 211.158409 82.9613696 212.421449 82.3193301 213.803865 81.9460778 215.218409 81.8651696 216.643437 81.7524181 218.076859 81.9143672 219.440809 82.3422196 220.315546 82.6119445 221.129226 83.0498144 221.836209 83.6312696L222.029059 83.7835196C222.078247 83.6891806 222.119005 83.5906811 222.150859 83.4891696 222.303109 82.8903196 222.445209 82.2914696 222.577159 81.6824696L225.013159 70.4159696C225.886059 66.3559696 226.755576 62.2756696 227.621709 58.1750696L227.672459 57.9314696C228.027709 58.0837196 228.362659 58.2156696 228.687459 58.3679196 231.427822 59.643968 233.837981 61.5331993 235.731559 63.8895196 237.514383 66.0622026 238.527956 68.7638738 238.614159 71.5730696 238.614159 72.3697049 238.573419 73.1658191 238.492359 73.9583196 238.492359 74.4962696 238.380709 74.9733196 238.319809 75.5518696 238.313366 75.6165445 238.29256 75.6789638 238.258909 75.7345696L238.015309 75.3387196C237.300256 74.023379 236.485893 72.7645092 235.579309 71.5730696 234.18128 69.7432812 232.345271 68.2947194 230.240409 67.3608196 229.324454 66.9724371 228.362529 66.7029616 227.378109 66.5589696 227.378109 66.5589696 227.378109 66.5589696 227.307059 66.5589696 227.296084 66.6379601 227.279118 66.7160017 227.256309 66.7924196L222.871509 87.0315196C222.847836 87.15014 222.80315 87.2635739 222.739559 87.3664696 222.067091 88.3572284 221.101847 89.1130997 219.978759 89.5284196 218.520467 90.1288194 216.944571 90.3891546 215.370659 90.2896696 214.924059 90.2896696 214.487609 90.2287696 214.041009 90.1881696L212.873759 89.9445696 212.680909 89.8633696C211.760365 89.6079659 210.900781 89.1695435 210.153559 88.5743196 209.518119 88.1040533 209.06886 87.4247737 208.884809 86.6559696 208.845618 86.3630734 208.821901 86.068314 208.813759 85.7729196L208.894959 85.3567696ZM29.9707593 131.57987C24.7435093 131.57987 24.7333593 139.69987 29.9707593 139.69987 35.2081593 139.69987 35.2081593 131.57987 29.9707593 131.57987ZM215.401109 115.09627C215.303974 114.76078 215.126261 114.454139 214.883459 114.20307L214.467309 113.88842C214.159901 113.70597 213.809764 113.607932 213.452309 113.60422L212.883909 113.60422C212.611546 113.592067 212.34111 113.655286 212.102359 113.78692 211.848804 113.863308 211.620766 114.007148 211.442609 114.20307 211.252457 114.381982 211.109498 114.605138 211.026459 114.85267 210.898838 115.09261 210.839175 115.36285 210.853909 115.63422L210.924959 116.18232C211.02014 116.51864 211.198115 116.825733 211.442609 117.07552L211.858759 117.39017C212.167156 117.569067 212.517231 117.663587 212.873759 117.66422L213.442159 117.66422C213.713614 117.680005 213.984134 117.620279 214.223709 117.49167 214.474169 117.408612 214.700617 117.265775 214.883459 117.07552 215.241715 116.678406 215.449949 116.168591 215.472159 115.63422 215.451859 115.46167 215.421409 115.27897 215.401109 115.09627ZM45.9773093 32.5057196C42.7090093 32.5057196 42.6988593 37.5807196 45.9773093 37.5807196 49.2557593 37.5807196 49.2456093 32.5057196 45.9773093 32.5057196ZM194.583459 211.36902C191.315159 211.36902 191.315159 216.44402 194.583459 216.44402 197.851759 216.44402 197.851759 211.36902 194.583459 211.36902Z"/></g></svg>