<svg xmlns="http://www.w3.org/2000/svg" width="254" height="223" viewBox="0 0 254 223"><g fill="none" transform="translate(.3 .29)"><path fill="#E0E0E0" d="M185.031447,98.1614841 L207.199047,90.1023841 C206.397197,88.9046841 192.938297,63.9965841 182.443197,58.8200841 C173.308197,52.7300841 156.246047,53.8668841 137.001647,55.2168341 C130.823163,55.5228081 124.730567,56.7933832 118.944797,58.9824841 C97.2542474,67.5896841 94.1584974,96.1720841 94.1584974,96.1720841 L114.113397,103.053784 C114.113397,103.053784 110.875547,141.877534 107.820397,162.177534 C107.820397,162.177534 132.819847,176.915334 187.335497,167.881834 C187.335497,167.881834 185.132947,103.906384 185.031447,98.1614841 Z"/><path fill="#231F20" d="M140.178597,71.4771341 C140.178597,71.4771341 141.193597,90.8636341 148.085447,95.0758841 C154.977297,99.2881341 164.477697,64.6258841 164.477697,64.6258841 L140.178597,71.4771341 Z"/><path fill="#231F20" d="M149.293297 95.9387045C148.772861 95.9344771 148.263636 95.7869774 147.821547 95.5123341 140.716547 91.1985841 139.701547 72.2992841 139.701547 71.4974341 139.684384 71.2621035 139.838324 71.048298 140.066947 70.9899341L164.355897 64.1792841C164.533342 64.1297328 164.723704 64.180237 164.853247 64.3112341 164.984485 64.436415 165.035326 64.6241333 164.985197 64.7984341 164.670547 65.9555341 157.189997 93.0357341 150.460547 95.7051841 150.091508 95.8619585 149.694247 95.9414108 149.293297 95.9387045ZM140.706397 71.8526841C140.899247 74.6337841 142.279647 90.9448341 148.349347 94.6495841 148.865086 94.9735641 149.508355 95.01924 150.064697 94.7713841 155.697947 92.5383841 162.396947 70.1068841 163.746897 65.3972841L140.706397 71.8526841ZM136.930597 39.0884841C137.012259 35.9953491 135.80664 33.0070311 133.601397 30.8365341L133.601397 28.9080341 128.912097 28.9080341C124.476547 28.9080341 120.883447 33.4653841 120.883447 39.0580341 120.883447 44.6506841 124.476547 49.2080341 128.912097 49.2080341L133.601397 49.2080341 133.601397 47.2795341C135.791018 45.1236475 136.995317 42.1606328 136.930597 39.0884841L136.930597 39.0884841Z"/><path fill="#231F20" d="M133.601397,49.7662841 L128.912097,49.7662841 C124.202497,49.7662841 120.375947,44.9754841 120.375947,39.0884841 C120.375947,33.2014841 124.202497,28.4106841 128.912097,28.4106841 L133.601397,28.4106841 C133.73508,28.4106841 133.863146,28.4644465 133.956715,28.5599246 C134.050283,28.6554027 134.101476,28.7845289 134.098747,28.9181841 L134.098747,30.6233841 C138.5491,35.3894035 138.5491,42.7875648 134.098747,47.5535841 L134.098747,49.2587841 C134.101476,49.3924393 134.050283,49.5215655 133.956715,49.6170436 C133.863146,49.7125217 133.73508,49.7662841 133.601397,49.7662841 Z M128.912097,29.4662841 C124.760747,29.4662841 121.390947,33.8104841 121.390947,39.1392341 C121.390947,44.4679841 124.760747,48.8020341 128.912097,48.8020341 L133.093897,48.8020341 L133.093897,47.3810341 C133.095333,47.2391069 133.15387,47.1037392 133.256297,47.0054841 C137.493302,42.6132002 137.493302,35.655118 133.256297,31.2628341 C133.152888,31.1652642 133.094161,31.0294575 133.093897,30.8872841 L133.093897,29.4662841 L128.912097,29.4662841 Z"/><path fill="#FFF" d="M164.061547,3.87813411 C163.870658,3.76662061 163.674165,3.66498669 163.472847,3.57363411 C161.943554,2.88792585 160.353149,2.34759571 158.722647,1.95978411 L155.748697,1.14778411 C154.648955,0.694540434 153.466458,0.476712043 152.277397,0.508334115 C151.505997,0.609834115 148.958347,2.38608411 148.501597,2.23383411 C146.321328,1.572381 143.972382,2.49683198 142.827747,4.46683411 C140.543715,2.94123146 137.659363,2.6248717 135.098949,3.61912874 C132.538535,4.61338578 130.623575,6.79340883 129.967697,9.46063411 C127.826239,8.89577109 125.563337,8.99846934 123.481847,9.75498411 C119.198547,11.5109341 117.868897,17.7937841 119.350797,21.8334841 C120.277067,24.3856937 122.372658,26.3378024 124.984047,27.0810341 C119.137647,35.3431341 130.982697,38.8651841 136.260697,41.1895341 C141.041347,43.2905841 146.207697,44.8029341 151.414647,44.4476841 C156.513476,44.0558623 161.27657,41.7540628 164.751747,38.0024341 C166.923847,35.6273341 171.602997,32.0646841 169.755697,28.3802341 C169.433082,27.9441334 169.271663,27.4096592 169.298947,26.8678841 C169.435053,26.4942605 169.674391,26.1669313 169.989147,25.9239341 C171.421858,24.3562346 172.128211,22.2577077 171.935065,20.1427527 C171.741918,18.0277978 170.667127,16.0919325 168.974147,14.8096841 C170.669197,13.9469341 170.466197,11.4195841 169.633897,9.73468411 C168.419919,7.25799291 166.474839,5.21371055 164.061547,3.87813411 L164.061547,3.87813411 Z"/><path fill="#231F20" d="M149.892147,44.9856341 C145.098605,44.8382118 140.387809,43.697667 136.057697,41.6361341 C135.479147,41.3823841 134.829547,41.1083341 134.129197,40.8241341 C129.967697,39.1290841 124.273547,36.7641341 123.106297,32.7751841 C122.65005,30.8949331 123.04349,28.9091755 124.182197,27.3449341 C121.715088,26.4193218 119.775844,24.4615391 118.873747,21.9857341 C117.259897,17.6009341 118.873747,11.0846341 123.299147,9.26778411 C125.314482,8.516538 127.505688,8.37186896 129.602297,8.85163411 C130.405274,6.24066405 132.358873,4.14067778 134.905122,3.15145918 C137.451371,2.16224058 140.310295,2.39255961 142.665347,3.77663411 C144.016007,1.91844777 146.386719,1.10655984 148.592947,1.74663411 C149.126138,1.5292311 149.641911,1.27134488 150.135747,0.975234115 C150.762244,0.559868029 151.446158,0.238428432 152.165747,0.0211341146 C153.139925,-0.0584545792 154.119343,0.0874163162 155.028047,0.447434115 C155.281797,0.518484115 155.545697,0.609834115 155.829897,0.680884115 L158.803847,1.48273411 C160.465528,1.88282553 162.086367,2.43669724 163.645397,3.13718411 L164.254397,3.45183411 C166.752575,4.84594209 168.764364,6.97107207 170.019597,9.54183411 C170.902647,11.3485341 171.034597,13.6728841 169.755697,14.8705841 C171.28688,16.2153969 172.23054,18.1063602 172.384547,20.1384341 C172.653949,22.4116674 171.886081,24.6854516 170.293647,26.3299341 L170.212447,26.4212841 C170.001584,26.5819579 169.836996,26.7955723 169.735397,27.0404341 C169.736048,27.3759972 169.842611,27.7027915 170.039897,27.9742341 L170.151547,28.2076841 C171.877047,31.6180841 168.639197,34.8254841 166.284397,37.1599841 C165.837797,37.6065841 165.421647,38.0125841 165.076547,38.3982841 C161.51351,42.2118752 156.656977,44.5605262 151.455247,44.9856341 C150.937597,44.9856341 150.419947,44.9856341 149.892147,44.9856341 Z M127.003897,9.62303411 C125.866274,9.6102646 124.73656,9.81347545 123.674697,10.2218841 C119.736497,11.8357341 118.366247,17.6922841 119.827847,21.6609341 C120.695601,24.059381 122.663091,25.8946978 125.115997,26.5938341 C125.275322,26.6364158 125.404021,26.7537591 125.461097,26.9084841 C125.513603,27.0652088 125.491147,27.2373711 125.400197,27.3753841 C124.060397,29.2734341 123.623947,30.9481841 124.080697,32.5112841 C125.095697,36.0637841 130.546247,38.2866341 134.504747,39.9106341 C135.215247,40.1948341 135.885147,40.4688841 136.463697,40.7226341 C142.066497,43.1890841 146.938497,44.2446841 151.384197,43.9401841 C156.347551,43.5419823 160.982186,41.3007016 164.376197,37.6573341 C164.731447,37.2716341 165.157747,36.8453341 165.614497,36.3885841 C167.877947,34.1555841 170.689497,31.3135841 169.298947,28.6136841 L169.187297,28.4005341 C168.865076,27.9166949 168.728134,27.3328883 168.801597,26.7562341 C168.934721,26.3173504 169.196347,25.9284472 169.552697,25.6397341 L169.633897,25.5585341 C170.951111,24.088556 171.591157,22.1333666 171.398196,20.1690212 C171.205235,18.2046758 170.19697,16.411403 168.618897,15.2258341 C168.468039,15.1293231 168.382291,14.9578272 168.395597,14.7792341 C168.408289,14.5997032 168.511589,14.4390144 168.669647,14.3529341 C170.100797,13.6322841 169.786147,11.3079341 169.106097,9.92753411 C167.936416,7.55797213 166.069894,5.60290524 163.757047,4.32473411 L163.757047,4.32473411 C163.57639,4.21665536 163.390036,4.11839607 163.198797,4.03038411 C161.699431,3.3564008 160.139488,2.82622422 158.539947,2.44698411 L155.565997,1.64513411 L154.723547,1.39138411 C153.953911,1.08371907 153.124336,0.955291164 152.297697,1.01583411 C151.695293,1.23284371 151.117031,1.51177038 150.572197,1.84813411 C149.212097,2.59923411 148.704597,2.86313411 148.288447,2.71088411 C146.331292,2.14100955 144.237681,2.97845392 143.213447,4.74088411 C143.151669,4.87228592 143.031093,4.96648568 142.888647,4.99463411 C142.752579,5.02773589 142.608861,5.00194026 142.492797,4.92358411 C140.347219,3.49286504 137.63926,3.19681494 135.23523,4.13014411 C132.8312,5.06347328 131.032403,7.1092054 130.414297,9.61288411 C130.344399,9.88078981 130.076065,10.0462626 129.805297,9.98843411 C128.887675,9.76452658 127.948252,9.64199318 127.003897,9.62303411 Z"/><path fill="#231F20" d="M159.686897,30.1463341 C159.686897,30.1463341 161.199247,16.4742841 156.276497,10.7496841 C151.353747,5.02508411 142.827747,4.46683411 142.827747,4.46683411 C142.827747,4.46683411 145.487047,1.83798411 148.501597,2.23383411 C148.501597,2.23383411 156.824597,5.10628411 161.696597,11.0744841 C166.568597,17.0426841 165.512997,29.3444841 165.512997,29.3444841 L159.686897,30.1463341 Z"/><path fill="#231F20" d="M159.686897,30.6538341 C159.555571,30.6538341 159.4303,30.5986092 159.341797,30.5015841 C159.225792,30.3962838 159.168884,30.2407355 159.189547,30.0854341 C159.189547,29.9534841 160.620697,16.5757841 155.890797,11.0846341 C151.160897,5.59348411 142.868347,4.99463411 142.787147,4.99463411 C142.586495,4.98566335 142.410933,4.85688265 142.342115,4.66818763 C142.273297,4.4794926 142.324732,4.26792487 142.472497,4.13188411 C142.584147,4.02023411 145.344947,1.32033411 148.562497,1.75678411 L148.663997,1.75678411 C149.009097,1.87858411 157.189997,4.80178411 162.072147,10.7496841 C166.954297,16.6975841 166.040797,28.8877341 165.990047,29.3952341 C165.973241,29.628878 165.795679,29.8191238 165.563747,29.8519841 L159.757947,30.6436841 L159.686897,30.6538341 Z M144.066047,4.10143411 C146.644147,4.48713411 152.713847,5.84723411 156.652047,10.4248841 C161.107897,15.5506341 160.488747,26.7156341 160.255297,29.5576341 L165.015647,28.9080341 C165.147597,26.7663841 165.533297,16.6062341 161.290597,11.3891341 C156.773847,5.84723411 149.110597,2.97478411 148.389947,2.73118411 C146.831414,2.6580973 145.298018,3.14403272 144.066047,4.10143411 L144.066047,4.10143411 Z"/><path fill="#FFF" d="M140.787597,56.8712841 L140.178597,71.4771341 C140.178597,71.4771341 146.065597,79.7290841 155.068647,75.9025341 C164.071697,72.0759841 164.477697,64.6664841 164.477697,64.6461841 L162.884147,49.3399841 L161.869147,39.9207841 C161.914666,38.9445146 161.818945,37.9667884 161.584947,37.0178841 C161.118047,36.1246841 159.747797,35.6476341 159.006847,34.8660841 C158.250569,34.0563204 157.676104,33.0942637 157.321947,32.0443841 C156.625724,29.9146052 156.892569,27.5871272 158.052747,25.6701841 C156.500864,25.5226289 155.091416,24.7029233 154.195747,23.4270341 C153.312756,22.1012395 153.039373,20.4609397 153.444647,18.9204341 C152.987577,19.4253349 152.557303,19.9538608 152.155597,20.5038341 C151.52758,21.4333343 150.542973,22.0615724 149.435397,22.2394841 C147.982082,22.388605 146.571166,21.6949702 145.801697,20.4530841 C145.498583,22.1573248 144.094526,23.449223 142.370997,23.6097341 C140.690112,23.7275901 139.004841,23.4530821 137.448247,22.8078841 C136.637782,26.6697715 133.746695,29.7603784 129.947397,30.8263841 C128.361528,37.2897262 128.550896,44.0614208 130.495497,50.4260341 C132.860447,57.5005841 140.787597,56.8712841 140.787597,56.8712841 Z"/><path fill="#231F20" d="M150.379347,77.4656341 C143.883347,77.4656341 139.813197,71.8831341 139.772597,71.8222341 C139.70594,71.7309275 139.67036,71.620631 139.671097,71.5075841 L140.259797,57.4396841 C138.331297,57.4396841 132.139797,56.8712841 130.048897,50.6391841 C128.073624,44.1792967 127.880742,37.305676 129.490647,30.7451841 C129.534171,30.5701348 129.670848,30.4334572 129.845897,30.3899341 C133.450842,29.3735291 136.190102,26.4346942 136.950897,22.7672841 C136.973121,22.6231006 137.058787,22.4964638 137.184347,22.4221841 C137.316686,22.3626953 137.468159,22.3626953 137.600497,22.4221841 C139.084824,23.0448336 140.69399,23.3124487 142.299947,23.2037341 C143.78713,23.0691977 145.007033,21.9692176 145.294197,20.5038341 C145.306707,20.2826814 145.463964,20.0964565 145.679897,20.0470841 C145.894433,19.991121 146.1197,20.0870678 146.227997,20.2805341 C146.897741,21.3517138 148.117521,21.9497993 149.374497,21.8233341 C150.348113,21.6526843 151.209756,21.0916995 151.759747,20.2703841 L152.135297,19.7831841 C152.425745,19.3659408 152.74453,18.9691557 153.089397,18.5956341 C153.252231,18.4456566 153.491355,18.413233 153.688247,18.5144341 C153.884499,18.6256916 153.98375,18.8531412 153.931847,19.0726841 C153.574835,20.4613201 153.821874,21.9361766 154.611897,23.1326841 C155.41845,24.2872453 156.691285,25.0294229 158.093347,25.1626841 C158.268182,25.182271 158.421101,25.2893142 158.499347,25.4468841 C158.586377,25.5976243 158.586377,25.7833439 158.499347,25.9340841 C156.829832,28.6675173 157.195635,32.1800585 159.392547,34.5108341 C159.701455,34.8133925 160.041707,35.0821916 160.407547,35.3126841 C161.058869,35.6584879 161.610928,36.1651241 162.011247,36.7844341 C162.27162,37.5125366 162.378743,38.2865845 162.325897,39.0580341 C162.325897,39.3625341 162.325897,39.6467341 162.325897,39.8700341 L164.893847,64.5954341 C164.893847,64.6461841 164.487847,72.4312341 155.190447,76.3694341 C153.677062,77.055483 152.040555,77.4283582 150.379347,77.4656341 L150.379347,77.4656341 Z M140.696247,71.3756341 C141.508247,72.3906341 146.877597,78.8866341 154.906247,75.4965341 C163.564197,71.8323841 164.041247,64.7679841 164.041247,64.6969341 L161.483447,40.0324341 C161.483447,39.7888341 161.483447,39.4741841 161.483447,39.1290841 C161.517015,38.5164002 161.448412,37.9024005 161.280447,37.3122341 C160.95447,36.8541676 160.5227,36.4815916 160.021847,36.2261841 C159.574707,35.9599822 159.162195,35.639518 158.793697,35.2720841 C156.477345,32.8110719 155.927538,29.1726377 157.413297,26.1370841 C154.816498,25.56696 152.953991,23.2840221 152.916847,20.6256341 L152.703697,20.9098341 C151.987933,21.9309009 150.889687,22.6191352 149.658697,22.8180341 C148.386861,22.9638331 147.116654,22.5317394 146.197547,21.6406341 C145.497763,23.0360234 144.152032,23.9940018 142.604447,24.1984341 C140.988954,24.3307396 139.365023,24.0803691 137.864397,23.4676341 C136.889461,27.1749755 134.068074,30.1153593 130.404147,31.2425341 C128.930086,37.527181 129.147217,44.0901602 131.033447,50.2636341 C133.205547,56.8712841 140.462797,56.3536341 140.767297,56.3536341 C140.912727,56.3475835 141.054768,56.3985728 141.163147,56.4957341 C141.266502,56.5967568 141.321882,56.7370536 141.315397,56.8814341 L140.696247,71.3756341 Z"/><path fill="#231F20" d="M140.472947,64.5446841 C143.854985,64.6436788 147.068054,63.0675277 149.059847,60.3324341 C152.531147,55.6735841 151.658247,52.3748341 151.658247,52.3748341 C151.658247,52.3748341 147.141497,57.0945841 140.787597,56.8712841 L140.472947,64.5446841 Z"/><path fill="#231F20" d="M140.909397,65.0724841 C140.655647,65.0724841 140.493247,65.0724841 140.452647,65.0724841 C140.184375,65.0457965 139.983789,64.8140087 139.995897,64.5446841 L140.310547,56.8712841 C140.331804,56.595752 140.561998,56.3832654 140.838347,56.3840841 C146.928347,56.5566341 151.282697,52.0906341 151.323297,52.0500341 C151.452918,51.9191112 151.641426,51.8652518 151.820647,51.9079341 C151.997212,51.9552013 152.133622,52.0955085 152.175897,52.2733341 C152.175897,52.4154341 153.079247,55.8461341 149.496297,60.6572341 C147.492194,63.4028307 144.308466,65.039854 140.909397,65.0724841 Z M141.305247,57.3889341 L141.021047,64.0574841 C144.068881,63.9734404 146.90292,62.4719627 148.684297,59.9974841 C150.227216,58.1328925 151.137199,55.8259424 151.282697,53.4101341 C148.503794,55.8482287 144.969153,57.2534814 141.274797,57.3889341 L141.305247,57.3889341 Z"/><path fill="#FFF" d="M141.924397,33.6988341 C141.924397,33.6988341 137.935447,41.7173341 139.275247,42.8338341 C140.615047,43.9503341 143.791997,42.6917341 143.791997,42.6917341"/><path fill="#231F20" d="M140.909397,43.8183841 C140.207347,43.85995 139.513282,43.651371 138.950447,43.2296841 C137.468547,41.9812341 140.229347,35.9927341 141.477797,33.4755341 C141.536835,33.3542231 141.641746,33.261412 141.76935,33.2176075 C141.896955,33.1738029 142.03675,33.1826105 142.157847,33.2420841 C142.279368,33.3008339 142.371792,33.4064522 142.413901,33.5346931 C142.45601,33.662934 142.444187,33.8027823 142.381147,33.9221341 C140.351147,37.9821341 139.062097,42.0421341 139.610197,42.4582841 C140.503397,43.2195341 142.858197,42.5293341 143.609297,42.2349841 C143.869962,42.1312788 144.165342,42.2585195 144.269047,42.5191841 C144.372753,42.7798487 144.245512,43.0752288 143.984847,43.1789341 C143.002827,43.5630965 141.96316,43.7792649 140.909397,43.8183841 L140.909397,43.8183841 Z"/><ellipse cx="147.842" cy="32.392" fill="#231F20" rx="1.228" ry="1.736" transform="rotate(-12.23 147.842 32.392)"/><ellipse cx="136.307" cy="33.967" fill="#231F20" rx="1.736" ry="1.228" transform="rotate(-85.09 136.307 33.967)"/><path fill="#231F20" d="M141.498097,53.9176341 C140.488716,53.9524235 139.500849,53.6207308 138.716997,52.9838341 C136.230247,50.7609841 136.463769,46.4167841 136.473847,46.2340841 C136.482705,45.9858573 136.673343,45.7822215 136.920447,45.7570341 C148.085447,44.4476841 148.197097,44.5390341 148.420397,44.7420341 C148.529113,44.8409644 148.591648,44.9807492 148.592947,45.1277341 L148.592947,45.1277341 C148.589455,46.8424149 148.182648,48.5322282 147.405397,50.0606341 C146.432466,51.9871127 144.628982,53.3603053 142.513097,53.7856841 C142.179308,53.8594633 141.839656,53.9036182 141.498097,53.9176341 L141.498097,53.9176341 Z M137.438097,46.7111341 C137.438097,47.7971841 137.641097,50.6899341 139.336147,52.2022841 C140.178759,52.8479851 141.267661,53.0791902 142.299947,52.8315841 C144.104475,52.4493825 145.638538,51.2699087 146.471597,49.6241841 C147.092187,48.38275 147.438356,47.022304 147.486597,45.6352341 C145.984397,45.7468841 140.909397,46.3051341 137.478697,46.7111341 L137.438097,46.7111341 Z"/><path fill="#231F20" d="M146.999397,49.8677841 C144.969397,53.6131341 140.848497,54.1510841 139.092547,52.5981341 C139.671097,51.1466841 140.604897,49.6749341 142.137547,49.2587841 C143.779108,48.8788686 145.502261,49.0947124 146.999397,49.8677841 Z"/><path fill="#231F20" d="M141.498097 53.9176341C140.488716 53.9524235 139.500849 53.6207308 138.716997 52.9838341 138.560244 52.8395694 138.50788 52.614002 138.585047 52.4154341 139.386897 50.3854341 140.513547 49.1674341 141.944697 48.7715841 143.707944 48.3605457 145.559778 48.5870807 147.171947 49.4110341 147.296084 49.4694472 147.391283 49.5756305 147.435847 49.7053841 147.48616 49.8325381 147.48616 49.9740801 147.435847 50.1012341 146.462916 52.0277127 144.659432 53.4009053 142.543547 53.8262841 142.198536 53.8882315 141.848624 53.9188064 141.498097 53.9176341L141.498097 53.9176341ZM139.671097 52.4357341C140.483316 52.8874849 141.432185 53.0281918 142.340547 52.8315841 143.969183 52.4915746 145.381967 51.4871734 146.238147 50.0606341 144.957082 49.5132627 143.534808 49.3888137 142.178147 49.7053841 140.970674 50.1868 140.04799 51.1916661 139.671097 52.4357341L139.671097 52.4357341ZM171.054897 36.6626341C171.131065 33.5714847 169.921903 30.5871682 167.715547 28.4208341L167.715547 26.4923341 163.026247 26.4923341C158.590697 26.4923341 154.997597 31.0395341 154.997597 36.6423341 154.997597 42.2451341 158.590697 46.7923341 163.026247 46.7923341L167.715547 46.7923341 167.715547 44.8638341C169.911488 42.7072337 171.119768 39.7397876 171.054897 36.6626341Z"/><path fill="#231F20" d="M167.715547,47.3404341 L163.026247,47.3404341 C158.326797,47.3404341 154.500247,42.5496341 154.500247,36.6626341 C154.500247,30.7756341 158.326797,25.9848341 163.026247,25.9848341 L167.715547,25.9848341 C167.995832,25.9848341 168.223047,26.2120496 168.223047,26.4923341 L168.223047,28.1975341 C172.6734,32.9635535 172.6734,40.3617148 168.223047,45.1277341 L168.223047,46.8329341 C168.223047,47.1132186 167.995832,47.3404341 167.715547,47.3404341 Z M163.026247,27.0404341 C158.885047,27.0404341 155.505097,31.3846341 155.505097,36.7133841 C155.505097,42.0421341 158.885047,46.3761841 163.026247,46.3761841 L167.208047,46.3761841 L167.208047,44.9551841 C167.209678,44.8111896 167.272404,44.6746673 167.380597,44.5796341 C171.601861,40.1810071 171.601861,33.2356111 167.380597,28.8369841 C167.270622,28.747671 167.207148,28.6132548 167.208047,28.4715841 L167.208047,26.9896841 L163.026247,27.0404341 Z"/><ellipse cx="167.716" cy="36.663" fill="#FFF" rx="8.029" ry="10.17"/><path fill="#231F20" d="M167.715547,47.3404341 C163.016097,47.3404341 159.179397,42.5496341 159.179397,36.6626341 C159.179397,30.7756341 163.016097,25.9848341 167.715547,25.9848341 C172.414997,25.9848341 176.251697,30.7756341 176.251697,36.6626341 C176.251697,42.5496341 172.425147,47.3404341 167.715547,47.3404341 Z M167.715547,27.0404341 C163.574347,27.0404341 160.194397,31.3744841 160.194397,36.7032341 C160.194397,42.0319841 163.574347,46.3660341 167.715547,46.3660341 C171.856747,46.3660341 175.236697,42.0319841 175.236697,36.7032341 C175.236697,31.3744841 171.866897,26.9998341 167.715547,26.9998341 L167.715547,27.0404341 Z"/><path fill="#D1D3D4" d="M167.715547,43.6864341 C165.096847,43.6864341 162.965347,40.5399341 162.965347,36.6626341 C162.965347,32.7853341 165.096847,29.6388341 167.715547,29.6388341 C170.334247,29.6388341 172.465747,32.7853341 172.465747,36.6626341 C172.465747,40.5399341 170.344397,43.6864341 167.715547,43.6864341 Z M167.715547,30.6538341 C165.685547,30.6538341 163.980347,33.3435841 163.980347,36.6626341 C163.980347,39.9816841 165.655097,42.6714341 167.715547,42.6714341 C169.775997,42.6714341 171.450747,39.9715341 171.450747,36.6626341 C171.450747,33.3537341 169.775997,30.6538341 167.715547,30.6538341 Z"/><path fill="#231F20" d="M120.386097,70.3606341 C120.477447,71.2538341 114.113397,103.013184 114.113397,103.013184"/><path fill="#231F20" d="M114.113397,103.561317 L114.011897,103.561317 C113.740488,103.500436 113.565679,103.235982 113.616047,102.962434 C116.133247,90.4373341 119.868447,71.4365341 119.878597,70.4824341 C119.864428,70.3503892 119.903657,70.2181619 119.987545,70.1152085 C120.071434,70.012255 120.193012,69.9471274 120.325197,69.9343341 C120.607744,69.9108257 120.856627,70.118983 120.883447,70.4012341 C120.984947,71.3045841 116.102797,95.7762341 114.610747,103.206034 C114.540025,103.420129 114.338857,103.563821 114.113397,103.561317 Z"/><path fill="#FFF" d="M94.1584974,96.1720841 L90.0172974,116.725834 L75.7463974,99.9478841 C75.7463974,99.9478841 73.3002474,95.8878841 71.6863974,95.2788841 C69.8187974,94.5785341 62.1250974,94.1116341 59.5571474,92.0105841 C56.9891974,89.9095341 55.5986474,89.4527841 55.3651974,91.0767841 C55.1317474,92.7007841 62.1250974,96.9130341 62.1250974,96.9130341 C62.1250974,96.9130341 56.5121474,98.5471841 55.3550474,98.0802841 C54.1979474,97.6133841 51.2950474,91.5741341 50.1582474,91.5741341 C49.5593974,91.5741341 48.3007974,92.8428841 49.4680474,95.5123341 C48.4530474,92.9443841 47.0320474,90.1023841 45.8038974,90.1023841 C44.5757474,90.1023841 44.6366474,92.2440341 45.4080474,95.0961841 C45.4080474,95.0961841 42.3630474,90.0922341 41.1348974,93.1778341 C40.0386974,96.0096841 48.1383974,106.007434 49.9958474,106.474334 C51.8532974,106.941234 64.2058474,103.206034 64.2058474,103.206034 C64.2058474,103.206034 79.2075474,146.018734 100.989447,151.611384 C106.409547,153.001934 114.042347,103.053784 114.042347,103.053784 L94.1584974,96.1720841 Z"/><path fill="#231F20" d="M101.324397,152.149334 C101.206415,152.163678 101.08713,152.163678 100.969147,152.149334 C91.8341474,149.794534 82.7600474,140.862534 74.0919474,125.607084 C70.1636556,118.626544 66.7771359,111.354689 63.9622474,103.855634 C61.4653474,104.606734 51.7213474,107.448734 49.9247974,106.991984 C48.3210974,106.596134 43.6926974,101.094834 41.6728474,97.1972341 C40.6578474,95.2890341 40.3736474,93.9187841 40.7187474,93.0255841 C41.0638474,92.1323841 41.7337474,91.7466841 42.1498974,91.7060841 C43.0768447,91.7893085 43.9251246,92.2613947 44.4843974,93.0052841 C44.2260541,92.0377811 44.3420361,91.0084402 44.8091974,90.1226841 C45.0509176,89.8070266 45.4266267,89.6229292 45.8241974,89.6253341 L45.8241974,89.6253341 C46.7072474,89.6253341 47.6613474,90.5794341 48.6661974,92.4774841 C48.7331561,92.2739974 48.8252157,92.0796494 48.9402474,91.8989341 C49.1969926,91.4451784 49.6594637,91.1457095 50.1785474,91.0970841 C51.0412974,91.0970841 51.9344974,92.4165841 53.4366974,94.7612341 C54.0135248,95.8110268 54.7306118,96.7773869 55.5681974,97.6336841 C56.0959974,97.8468341 58.5421474,97.3799341 60.8867974,96.7607841 C58.4507974,95.2281341 54.6648474,92.5789841 54.8779974,91.0361841 C54.89821,90.4648567 55.2347198,89.9522662 55.7508974,89.7065341 C56.5933474,89.3817341 57.8417974,89.9602841 59.9022474,91.6553341 C61.5262474,92.9849841 65.5456474,93.6853341 68.4891474,94.1319341 C69.6352461,94.2794337 70.7685227,94.5135538 71.8792474,94.8322841 C73.5641474,95.4615841 75.8884974,99.2881341 76.1523974,99.7144341 L89.6924974,115.629634 L93.6306974,96.1010341 C93.6607136,95.9590727 93.7500591,95.8367486 93.8761605,95.7649679 C94.0022618,95.6931871 94.1530572,95.6788155 94.2904474,95.7254841 L114.245347,102.607184 C114.477367,102.687708 114.618433,102.922817 114.580297,103.165434 C114.306247,105.002584 107.637697,148.272034 102.176997,151.885434 C101.922118,152.049371 101.627321,152.140618 101.324397,152.149334 L101.324397,152.149334 Z M64.2768974,102.698534 C64.4896383,102.701537 64.6788761,102.834406 64.7539474,103.033484 C64.8960474,103.459784 79.9180474,145.663484 101.182297,151.124184 C101.348242,151.15352 101.51873,151.109045 101.649197,151.002384 C105.820847,148.241584 111.586047,116.106684 113.544997,103.398884 L94.5340474,96.8419841 L90.4740474,116.827334 C90.4377089,117.019668 90.289794,117.171581 90.0984974,117.213034 C89.9120448,117.267226 89.7113501,117.203004 89.5909974,117.050634 L75.3200974,100.282834 C74.3558474,98.6892841 72.5288474,96.1314841 71.5138474,95.7559341 C70.4617139,95.4626045 69.3898022,95.2455085 68.3064474,95.1063341 C65.0888974,94.5683841 61.0796474,93.9086341 59.2424974,92.4064341 C57.0094974,90.5692841 56.3091474,90.5489841 56.1162974,90.6301841 C55.9234474,90.7113841 55.9031474,90.9854341 55.8726974,91.1579841 C55.7711974,91.8481841 58.8263474,94.3349341 62.3991474,96.4765841 C62.5719342,96.5784967 62.6645926,96.7758994 62.6325974,96.9739341 C62.6118283,97.1750287 62.4714002,97.3435426 62.2773474,97.4002341 C61.3130974,97.6742841 56.4410974,99.0546841 55.1723474,98.5471841 C54.5227474,98.2832841 53.7614974,97.1363341 52.5739474,95.2788841 C51.8329974,94.1217841 50.5439474,92.2338841 50.1379474,92.0714841 C49.9686836,92.1691963 49.8312297,92.3136992 49.7420974,92.4876341 C49.391282,93.2404711 49.391282,94.1098972 49.7420974,94.8627341 L49.9349474,95.3194841 C50.0330516,95.5800441 49.9074882,95.8715304 49.6507474,95.9792341 C49.3956597,96.0855806 49.1023737,95.9682662 48.9909974,95.7153341 L48.7981474,95.2281341 C47.4989474,92.0410341 46.3621474,90.6098841 45.7531474,90.6098841 C45.6619268,90.6111835 45.5747024,90.647527 45.5095474,90.7113841 C45.2253474,91.0869341 45.1542974,92.4064341 45.8444974,94.9642341 C45.9052944,95.2088951 45.7809975,95.4617751 45.5501474,95.5630841 C45.3192565,95.6648462 45.04875,95.577586 44.9208474,95.3600841 C44.2306474,94.2435841 42.8908474,92.6297341 42.1397474,92.6804841 C41.8656974,92.6804841 41.6728474,93.0661841 41.5611974,93.3605341 C41.4495474,93.6548841 41.3378974,94.5074841 42.4645474,96.6998841 C44.6569474,100.922284 49.0620474,105.723234 50.0668974,105.976984 C51.3254974,106.301784 59.3033974,104.149984 64.0231474,102.718834 L64.2768974,102.698534 Z"/><line x1="49.519" x2="52.209" y1="95.512" y2="99.319" fill="#FFF"/><path fill="#231F20" d="M52.2085474,99.7956466 C52.0438173,99.7948473 51.8892967,99.7157026 51.7923974,99.5824841 L49.1026474,95.7660841 C48.9602482,95.5366457 49.0224534,95.235878 49.2441826,95.0817492 C49.4659118,94.9276204 49.7695054,94.9741132 49.9349474,95.1875341 L52.6145474,98.9937841 C52.6932051,99.1039584 52.7245861,99.2409918 52.7017133,99.3744168 C52.6788404,99.5078418 52.6036096,99.626599 52.4927474,99.7042841 C52.4102261,99.7643536 52.3106139,99.7963718 52.2085474,99.7956466 L52.2085474,99.7956466 Z"/><path fill="#FFF" d="M45.4993974,95.0961841 C46.4323763,96.5610214 47.4490645,97.9708291 48.5443974,99.3185841"/><path fill="#231F20" d="M48.5443974,99.7956341 C48.4029443,99.792007 48.2683747,99.7338147 48.1688474,99.6332341 C47.0445791,98.266196 46.0039971,96.8324299 45.0527974,95.3397841 C44.8999144,95.1069011 44.9633378,94.7943142 45.1948974,94.6394341 C45.4335448,94.4875092 45.7499566,94.5553117 45.9053974,94.7916841 C46.8415398,96.2316165 47.8581544,97.617601 48.9503974,98.9430341 C49.0458724,99.0365802 49.0996749,99.1646191 49.0996749,99.2982841 C49.0996749,99.4319492 49.0458724,99.5599881 48.9503974,99.6535341 C48.8420823,99.757549 48.6939358,99.8094002 48.5443974,99.7956341 L48.5443974,99.7956341 Z"/><polygon fill="#FFF" points="31.168 147.308 222.231 147.308 252.894 200.717 .504 200.717"/><path fill="#231F20" d="M252.894347,201.224584 L0.504447409,201.224584 C0.323681686,201.223497 0.157139933,201.126338 0.0672283081,200.969516 C-0.0226833171,200.812693 -0.0223903579,200.619883 0.0679974089,200.463334 L30.7311474,147.054034 C30.8212552,146.897955 30.9873785,146.801372 31.1675974,146.800284 L222.231197,146.800284 C222.411416,146.801372 222.57754,146.897955 222.667647,147.054034 L253.330797,200.463334 C253.421185,200.619883 253.421478,200.812693 253.331567,200.969516 C253.241655,201.126338 253.075113,201.223497 252.894347,201.224584 Z M1.38749741,200.209584 L252.011297,200.209584 L221.936847,147.815284 L31.4619474,147.815284 L1.38749741,200.209584 Z"/><ellipse cx="143.244" cy="156.686" fill="#FFF" rx="19.995" ry="6.019"/><path fill="#D1D3D4" d="M143.243897,163.212834 C133.164947,163.212834 122.740897,160.776834 122.740897,156.686384 C122.740897,152.595934 133.164947,150.159934 143.243897,150.159934 C153.322847,150.159934 163.746897,152.606084 163.746897,156.686384 C163.746897,160.766684 153.322847,163.212834 143.243897,163.212834 Z M143.243897,151.174934 C131.764247,151.174934 123.755897,154.077834 123.755897,156.686384 C123.755897,159.294934 131.764247,162.197834 143.243897,162.197834 C154.723547,162.197834 162.731897,159.294934 162.731897,156.686384 C162.731897,154.077834 154.723547,151.174934 143.243897,151.174934 Z"/><ellipse cx="143.244" cy="156.686" fill="#FFF" rx="10.901" ry="3.278"/><path fill="#D1D3D4" d="M143.243897,160.472334 C137.712147,160.472334 131.835297,159.142684 131.835297,156.686384 C131.835297,154.230084 137.712147,152.900434 143.243897,152.900434 C148.775647,152.900434 154.652497,154.219934 154.652497,156.686384 C154.652497,159.152834 148.775647,160.472334 143.243897,160.472334 Z M143.243897,153.915434 C136.808797,153.915434 132.850297,155.529284 132.850297,156.686384 C132.850297,157.843484 136.808797,159.457334 143.243897,159.457334 C149.678997,159.457334 153.637497,157.843484 153.637497,156.686384 C153.637497,155.529284 149.678997,153.915434 143.243897,153.915434 Z"/><polygon fill="#FFF" points="61.709 172.013 61.942 174.611 120.437 183.158 119.848 180.427"/><path fill="#231F20" d="M120.436847,183.665084 L120.365797,183.665084 L61.8713474,175.108634 C61.6372844,175.076533 61.4563318,174.887164 61.4348974,174.651884 L61.2014474,172.063634 C61.1831516,171.90781 61.2394562,171.752488 61.3533545,171.644585 C61.4672527,171.536681 61.6253887,171.488848 61.7799974,171.515534 L119.919197,179.980634 C120.130328,180.009964 120.30063,180.168101 120.345497,180.376484 L120.934197,183.106834 C120.967809,183.266627 120.92248,183.432831 120.812397,183.553434 C120.707764,183.640468 120.572034,183.68082 120.436847,183.665084 Z M62.4092974,174.164684 L119.787247,182.548584 L119.421847,180.883984 L62.2671974,172.611734 L62.4092974,174.164684 Z"/><path fill="#FFF" d="M61.7393974,172.012884 C61.7393974,172.012884 75.0155974,160.594134 75.4621974,160.695634 C75.9087974,160.797134 135.732897,167.963034 135.732897,167.963034 L119.848147,180.417084 L61.7393974,172.012884 Z"/><path fill="#231F20" d="M119.848147,180.934833 L119.777097,180.934833 L61.6378974,172.520384 C61.4379261,172.494224 61.2735492,172.349893 61.2217474,172.154984 C61.161923,171.96444 61.2218793,171.756591 61.3739974,171.627184 C74.8937974,160.035884 75.2794974,160.137384 75.5839974,160.208434 C76.3350974,160.330234 115.300947,165.009384 135.793797,167.465684 C135.997636,167.487959 136.166909,167.633051 136.220097,167.831084 C136.279892,168.028834 136.21121,168.242959 136.047547,168.369034 L120.162797,180.833234 C120.072184,180.90124 119.96142,180.936971 119.848147,180.934833 L119.848147,180.934833 Z M62.8863474,171.667784 L119.726347,179.899434 L134.474297,168.328434 C122.598797,166.907434 78.7710974,161.649734 75.6042974,161.223434 C74.4877974,161.852734 67.6162474,167.628084 62.8863474,171.667784 Z"/><polygon fill="#FFF" points="120.437 183.158 135.966 170.561 135.733 167.973 119.848 180.427"/><path fill="#231F20" d="M120.436847,183.665084 C120.379736,183.674738 120.321409,183.674738 120.264297,183.665084 C120.099507,183.608575 119.976297,183.469963 119.939497,183.299684 L119.350797,180.569334 C119.309318,180.379128 119.3803,180.181957 119.533497,180.061834 L135.418247,167.597634 C135.568039,167.487608 135.76466,167.464476 135.935897,167.536734 C136.105559,167.60971 136.222182,167.769094 136.240397,167.952884 L136.473847,170.551284 C136.494467,170.718847 136.424986,170.884828 136.291147,170.987734 L120.761647,183.583884 C120.663988,183.642945 120.550811,183.67124 120.436847,183.665084 Z M120.436847,180.620084 L120.792097,182.233934 L135.468997,170.327984 L135.347197,168.937434 L120.436847,180.620084 Z"/><polygon fill="#FFF" points="61.709 172.013 50.463 134.346 112.124 144.862 119.848 180.427"/><path fill="#231F20" d="M119.848147,180.934869 L119.777097,180.934869 L61.6378974,172.520384 C61.4379261,172.494224 61.2735492,172.349893 61.2217474,172.154984 L49.9755474,134.488334 C49.924286,134.320809 49.9669165,134.138661 50.0871974,134.011284 C50.203005,133.878162 50.3806752,133.816364 50.5540974,133.848884 L112.215347,144.354134 C112.41865,144.391123 112.579224,144.547683 112.621347,144.749984 L120.345497,180.325734 C120.379959,180.490444 120.330535,180.661526 120.213547,180.782484 C120.118782,180.882658 119.986005,180.937982 119.848147,180.934869 Z M62.0946474,171.556134 L119.198547,179.828384 L111.707847,145.318384 L51.1833974,134.985684 L62.0946474,171.556134 Z"/><path fill="#FFF" d="M155.119397,115.426634 L155.667497,115.517984 C157.315149,115.766877 158.814073,116.612053 159.879747,117.893084 C161.091723,119.749916 161.146782,122.133164 160.021847,124.043984 C157.606147,128.408484 151.698847,129.606184 147.171947,130.032484 C146.533462,130.133606 145.880213,130.084959 145.263747,129.890384 C144.671874,129.736626 144.244747,129.221448 144.203305,128.611334 C144.161864,128.001221 144.515402,127.433016 145.081047,127.200634 C145.555255,126.979617 146.06291,126.838983 146.583247,126.784484 C149.404947,126.317584 152.378897,125.972484 154.967147,124.673284 C156.469347,123.912034 158.570397,122.166234 157.474197,120.288484 C157.089325,119.689827 156.534429,119.219757 155.880647,118.938534 C153.292397,117.700234 150.805647,118.634034 148.268147,119.395284 C148.083075,119.46242 147.886001,119.49008 147.689597,119.476484 C147.18393,119.342264 146.863124,118.845674 146.948647,118.329534 C147.029847,117.213034 148.146347,116.472084 149.191797,116.076234 C151.079618,115.356429 153.12049,115.132772 155.119397,115.426634 L155.119397,115.426634 Z"/><path fill="#231F20" d="M146.400547,130.590734 C145.943216,130.598175 145.488611,130.518963 145.060747,130.357284 C144.219523,130.073402 143.660374,129.275792 143.680347,128.388184 C143.762911,127.685013 144.194067,127.070711 144.827297,126.754034 C145.353502,126.508141 145.915327,126.34713 146.491897,126.276984 L147.506897,126.114584 C149.985634,125.855122 152.409526,125.214913 154.693097,124.216534 C155.780789,123.741846 156.657819,122.88647 157.159547,121.810984 C157.290184,121.384375 157.231024,120.922186 156.997147,120.542234 C156.66269,120.02992 156.181658,119.630239 155.616747,119.395284 C153.434497,118.380284 151.292847,118.999434 149.029397,119.679484 L148.369647,119.882484 C148.115925,119.972051 147.846059,120.006649 147.577947,119.983984 C146.806863,119.807468 146.296784,119.073129 146.400547,118.288934 C146.481747,117.152134 147.415547,116.198034 148.968497,115.599184 C150.939409,114.843123 153.072983,114.612277 155.159997,114.929284 L155.159997,114.929284 C155.352847,114.929284 155.535547,114.990184 155.728397,115.020634 C157.496764,115.297155 159.103107,116.210423 160.245147,117.588584 C161.582616,119.607427 161.649623,122.21281 160.417697,124.297734 C158.448597,127.850234 154.114547,129.890384 147.222697,130.539984 C146.999397,130.560284 146.674597,130.590734 146.400547,130.590734 Z M153.180747,117.832184 C154.185562,117.821637 155.179163,118.043981 156.083647,118.481784 C156.831366,118.805408 157.46442,119.34651 157.900497,120.034734 C158.273301,120.643027 158.369282,121.381342 158.164397,122.064734 C157.677197,123.729334 155.758847,124.805234 155.180297,125.109734 C152.807595,126.171508 150.2837,126.856419 147.699747,127.139734 L146.684747,127.302134 C146.21795,127.350051 145.762033,127.473457 145.334797,127.667534 C144.938281,127.798343 144.680923,128.181352 144.70965,128.597898 C144.738378,129.014444 145.045878,129.358497 145.456597,129.433634 C145.998204,129.602547 146.572112,129.640807 147.131347,129.545284 C153.718697,128.936284 157.788847,127.058534 159.585397,123.820684 C160.624574,122.083398 160.585206,119.906314 159.483897,118.207734 C158.48823,117.038488 157.104457,116.267323 155.586297,116.035634 L155.058497,115.944284 C153.14543,115.65979 151.19133,115.873028 149.384647,116.563434 C148.836547,116.776584 147.537347,117.375434 147.466297,118.390434 C147.466297,118.674634 147.588097,118.979134 147.760647,118.999434 C147.888827,118.996007 148.015624,118.972018 148.136197,118.928384 L148.785797,118.735534 C150.199013,118.222142 151.679609,117.917817 153.180747,117.832184 L153.180747,117.832184 Z"/><path fill="#FFF" d="M152.987897,110.757634 C152.987897,110.757634 148.724897,132.072634 148.379797,133.310934 C148.034697,134.549234 137.945597,139.857684 129.927097,134.691334 L122.913447,112.990634 L152.987897,110.757634 Z"/><path fill="#231F20" d="M137.783197,137.431834 C134.909467,137.463564 132.088433,136.659569 129.663197,135.117634 C129.564723,135.053725 129.492637,134.956408 129.460197,134.843584 L122.436397,113.102284 C122.385019,112.954121 122.406529,112.790403 122.494437,112.66054 C122.582344,112.530677 122.726351,112.449881 122.882997,112.442534 L152.967597,110.250134 C153.125381,110.241109 153.278644,110.304657 153.383747,110.422684 C153.484302,110.54418 153.525257,110.704277 153.495397,110.859134 C153.322847,111.732034 149.222247,132.174134 148.877147,133.442884 C148.653847,134.285334 146.694897,135.381534 144.817147,136.081884 C142.573102,136.952406 140.190075,137.409754 137.783197,137.431834 L137.783197,137.431834 Z M130.353397,134.386834 C135.042697,137.320184 140.219197,136.416834 142.898797,135.696184 C145.943797,134.813134 147.740347,133.524084 147.892597,133.189134 C148.186947,132.082784 151.637947,114.919134 152.358597,111.346334 L123.593497,113.437234 L130.353397,134.386834 Z"/><path fill="#231F20" d="M152.987897,110.757634 C152.948637,111.999627 152.342776,113.15525 151.343597,113.893984 C148.887297,116.055934 143.944247,117.659634 138.148597,117.953984 C132.190547,118.197584 126.983597,116.938984 124.446097,114.848084 C123.514902,114.173226 122.92825,113.122451 122.842397,111.975634 C122.690147,108.372384 129.318097,105.175134 137.641097,104.870634 C145.964097,104.566134 152.845797,107.154384 152.987897,110.757634 Z"/><path fill="#231F20" d="M136.717447,118.431034 C131.388697,118.431034 126.668947,117.223184 124.172047,115.183034 C123.112682,114.44074 122.439216,113.264965 122.334598,111.975634 C122.321232,110.831393 122.775936,109.731302 123.593497,108.930634 C125.978747,106.352534 131.480047,104.515384 137.620797,104.271784 C143.761547,104.028184 149.415097,105.388284 151.993197,107.773534 C152.866807,108.488749 153.409618,109.53036 153.495397,110.656134 C153.471557,112.054276 152.795694,113.360945 151.668397,114.188334 C149.059847,116.502534 143.903647,118.085934 138.209497,118.319384 L136.717447,118.431034 Z M139.102697,105.327384 L137.661397,105.327384 C131.774397,105.570984 126.496397,107.266034 124.344597,109.671584 C123.709038,110.258369 123.342123,111.080259 123.329597,111.945184 C123.435788,112.927013 123.966071,113.81329 124.781047,114.371034 C127.288097,116.401034 132.535647,117.598734 138.138447,117.416034 C143.741247,117.233334 148.532047,115.700684 150.988347,113.528584 C151.87485,112.895111 152.418252,111.887006 152.460097,110.798234 L152.460097,110.798234 C152.37973,109.943621 151.959096,109.157219 151.292847,108.615984 C149.110597,106.565684 144.421297,105.327384 139.102697,105.327384 L139.102697,105.327384 Z"/><path fill="#E0E0E0" d="M151.343597,113.893984 C148.887297,116.055934 143.944247,117.659634 138.148597,117.953984 C132.190547,118.197584 126.983597,116.938984 124.446097,114.848084 C126.902397,112.675984 131.845447,111.072284 137.641097,110.838834 C143.599147,110.544484 148.806097,111.833534 151.343597,113.893984 Z"/><path fill="#231F20" d="M136.717447,118.431034 C131.388697,118.431034 126.668947,117.223184 124.172047,115.183034 C124.056276,115.091797 123.985892,114.954734 123.979169,114.807484 C123.977635,114.656966 124.040415,114.512942 124.151747,114.411634 C126.770447,112.097434 131.926647,110.514034 137.620797,110.280584 C143.538247,110.036984 148.917747,111.295584 151.658247,113.498134 C151.776672,113.591639 151.847348,113.732991 151.851097,113.883834 C151.849798,114.030819 151.787263,114.170604 151.678547,114.269534 C149.059847,116.583734 143.903647,118.167134 138.209497,118.400584 L136.717447,118.431034 Z M125.308847,114.777034 C127.968147,116.593884 132.901047,117.619034 138.158747,117.395734 C143.416447,117.172434 147.943347,115.863084 150.521447,113.914284 C147.851997,112.097434 142.908947,111.082434 137.661397,111.285434 C132.413847,111.488434 127.886947,112.818084 125.308847,114.777034 L125.308847,114.777034 Z"/><path fill="#FFF" d="M207.199047,90.1023841 C207.199047,90.1023841 228.686597,124.328184 226.301347,134.346234 C223.916097,144.364284 170.344397,130.073084 170.344397,130.073084 C168.612131,130.567051 166.862947,131.013651 165.096847,131.412884 C163.432247,131.788434 158.276047,133.584984 156.895647,132.184284 C154.612627,129.740474 154.258588,126.066806 156.032897,123.231984 C155.229728,122.790413 154.51144,122.209596 153.911547,121.516634 C153.310796,120.809231 153.122297,119.839808 153.414197,118.958834 C153.844823,118.155782 154.573946,117.554256 155.444197,117.284084 C160.194397,115.345434 166.071247,115.457084 171.156397,115.386034 L199.221147,121.607984 L185.011147,98.1614841"/><path fill="#231F20" d="M215.867147,138.365634 C200.205697,138.365634 172.902197,131.260634 170.334247,130.560284 C168.669647,131.037334 166.944147,131.473784 165.198347,131.859484 L164.061547,132.163984 C160.925197,133.026734 157.768547,133.757534 156.520097,132.498934 C154.211134,130.021365 153.733793,126.349507 155.332547,123.363934 C154.640198,122.949046 154.022579,122.420639 153.505547,121.800834 C152.789598,120.958697 152.5698,119.801869 152.926997,118.755834 C153.415545,117.822037 154.255445,117.120904 155.261497,116.807034 C159.686897,115.000334 165.066397,114.939434 169.806447,114.888684 L171.156397,114.888684 L171.278197,114.888684 L198.185847,120.856884 L184.605147,98.4253841 C184.531996,98.3121421 184.509038,98.1736513 184.541735,98.0428623 C184.574433,97.9120734 184.659862,97.8006795 184.777697,97.7351841 C184.890469,97.6640998 185.027056,97.6412621 185.156819,97.6717943 C185.286581,97.7023266 185.398654,97.7836727 185.467897,97.8975841 L199.677897,121.344084 C199.786109,121.518677 199.778406,121.741282 199.658386,121.907977 C199.538365,122.074672 199.329697,122.152582 199.129797,122.105334 L171.115797,115.893534 L169.826747,115.893534 C165.178047,115.944284 159.900047,115.995034 155.616747,117.730684 C154.862249,117.943375 154.223247,118.447273 153.840497,119.131384 C153.632195,119.838276 153.796518,120.60257 154.276947,121.161384 C154.856746,121.80556 155.543521,122.344679 156.306947,122.754934 C156.422101,122.828694 156.502614,122.945804 156.530247,123.079734 C156.554004,123.213963 156.524906,123.352177 156.449047,123.465434 C154.803042,126.094718 155.132149,129.502439 157.250897,131.768134 C158.184697,132.722234 161.980797,131.676784 163.797647,131.179434 L164.985197,130.864784 C166.761447,130.468934 168.517397,130.022334 170.202297,129.535134 C170.292538,129.515002 170.386107,129.515002 170.476347,129.535134 C170.922947,129.656934 215.237847,141.370034 224.403297,135.909334 C225.099626,135.555934 225.615303,134.926071 225.824297,134.173684 C228.128347,124.480434 206.996047,90.6606341 206.782897,90.3155341 C206.7085,90.2019634 206.683766,90.0629147 206.714435,89.9306548 C206.745104,89.7983948 206.82851,89.684422 206.945297,89.6151841 C207.184398,89.4719396 207.49399,89.5437292 207.645647,89.7775841 C208.528697,91.1884341 229.214397,124.287584 226.808847,134.437584 C226.533424,135.45293 225.850038,136.308999 224.920947,136.802534 C223.022897,137.959634 219.815497,138.365634 215.867147,138.365634 Z"/><polygon fill="#231F20" points="11.426 193.064 11.426 196.19 41.521 196.19 49.032 178.184 47.438 174.865"/><path fill="#231F20" d="M41.5205974,196.687534 L11.4258474,196.687534 C11.1455629,196.687534 10.9183474,196.460319 10.9183474,196.180034 L10.9183474,193.063984 C10.9217899,192.873588 11.0315285,192.701141 11.2025474,192.617384 L47.2147474,174.408284 C47.3419014,174.357972 47.4834434,174.357972 47.6105974,174.408284 C47.736657,174.45896 47.8408609,174.552384 47.9049474,174.672184 L49.4883474,178.001384 C49.5448388,178.130822 49.5448388,178.277946 49.4883474,178.407384 L41.9773474,196.413484 C41.887383,196.582167 41.7117717,196.687534 41.5205974,196.687534 Z M11.9333474,195.672534 L41.1754974,195.672534 L48.4733474,178.194234 L47.2045974,175.545084 L11.9333474,193.378634 L11.9333474,195.672534 Z"/><path fill="#FFF" d="M22.1543974,174.245884 C21.7585474,175.118784 11.4156974,193.063984 11.4156974,193.063984 L40.2619974,193.063984 L47.4380474,174.905634 L22.1543974,174.245884 Z"/><path fill="#231F20" d="M40.2721474,193.571564 L11.4258474,193.571564 C11.2444681,193.574753 11.076293,193.476977 10.9893974,193.317734 C10.8987413,193.160713 10.8987413,192.967255 10.9893974,192.810234 C13.8618474,187.826584 21.3829974,174.733084 21.7077974,174.032734 C21.8062427,173.86447 21.9804307,173.754656 22.1746974,173.738384 L47.4583474,174.357534 C47.623169,174.356832 47.776677,174.441261 47.8643474,174.580834 C47.9401889,174.727228 47.9401889,174.90134 47.8643474,175.047734 L40.6984474,193.256834 C40.6267218,193.433459 40.4620654,193.554991 40.2721474,193.571564 Z M12.3088974,192.556484 L39.9270474,192.556484 L46.7072474,175.352234 L22.4690474,174.763534 C21.2814974,176.935634 14.1764974,189.308484 12.3088974,192.556484 Z"/><path fill="#231F20" d="M27.9094474,186.07094 C26.9199656,186.087689 26.0623818,185.388758 25.8794474,184.416184 L6.37114741,79.0287341 C6.20262956,78.1373597 6.64597808,77.2423758 7.45719741,76.8363341 L66.6012474,47.4622341 C67.2553674,47.0492259 68.0873661,47.0438951 68.7467245,47.4484878 C69.406083,47.8530804 69.7781718,48.5972579 69.7062308,49.3675002 C69.6342898,50.1377426 69.130826,50.8001431 68.4079474,51.0756341 L10.6442974,79.7899841 L29.9292974,183.624484 C30.030148,184.154937 29.9155125,184.703712 29.6107453,185.149434 C29.3059781,185.595156 28.8361939,185.901095 28.3052974,185.999584 C28.1756259,186.034561 28.0431888,186.058332 27.9094474,186.07094 Z"/><path fill="#231F20" d="M32.2130474,184.670071 C31.7167086,184.67803 31.2873343,184.325943 31.1980474,183.837634 L12.3799474,81.6271341 C12.2998018,81.175253 12.532845,80.7258125 12.9483474,80.5309341 L71.1281474,53.2274341 C71.6331628,53.0017053 72.225933,53.2219263 72.4610702,53.7226303 C72.6962075,54.2233343 72.4871147,54.8201207 71.9908974,55.0645841 L14.5215974,82.0331341 L33.2077474,183.472234 C33.2581727,183.737461 33.2008549,184.011848 33.0484713,184.234709 C32.8960877,184.45757 32.6611957,184.61054 32.3957474,184.659784 L32.2130474,184.670071 Z"/><circle cx="12.664" cy="80.074" r="6.425" fill="#231F20"/><path fill="#231F20" d="M12.6641474,87.0066341 C9.86023312,87.0066341 7.33241029,85.3175969 6.25939874,82.7271179 C5.1863872,80.1366389 5.7794982,77.1548685 7.762165,75.1722017 C9.74483181,73.1895349 12.7266021,72.5964239 15.3170812,73.6694354 C17.9075602,74.742447 19.5965974,77.2702698 19.5965974,80.0741841 C19.5854485,83.898243 16.4882063,86.9954852 12.6641474,87.0066341 Z M12.6641474,74.1465841 C9.39042433,74.1465841 6.73654741,76.800461 6.73654741,80.0741841 C6.73654741,83.3479072 9.39042433,86.0017841 12.6641474,86.0017841 C15.9378705,86.0017841 18.5917474,83.3479072 18.5917474,80.0741841 C18.5917474,76.800461 15.9378705,74.1465841 12.6641474,74.1465841 L12.6641474,74.1465841 Z"/><circle cx="70.6" cy="51.218" r="6.425" fill="#231F20"/><path fill="#231F20" d="M70.6003474,58.1806416 C67.7914078,58.1847408 65.2567705,56.4958367 64.1789891,53.9018927 C63.1012077,51.3079486 63.6926791,48.3201493 65.677448,46.3324745 C67.6622168,44.3447997 70.6491476,43.7489576 73.2446657,44.8229427 C75.8401839,45.8969279 77.5327974,48.4290915 77.5327974,51.2380341 C77.5272254,55.0660562 74.4283572,58.1694615 70.6003474,58.1806416 L70.6003474,58.1806416 Z M70.6003474,45.3205841 C68.2019341,45.3205876 66.0398767,46.7659017 65.1229947,48.9821404 C64.2061128,51.1983791 64.7151162,53.7487399 66.4125031,55.4432204 C68.1098901,57.1377008 70.6611195,57.6423327 72.8757836,56.7216539 C75.0904477,55.8009751 76.5320543,53.6364439 76.5279562,51.2380341 C76.5306424,49.664179 75.9073191,48.1538619 74.7953862,47.040025 C73.6834533,45.9261881 72.1742049,45.3002841 70.6003474,45.3002841 L70.6003474,45.3205841 Z"/><polygon fill="#231F20" points="177.652 153.986 185.762 193.561 236.867 193.561 219.978 153.986"/><path fill="#231F20" d="M236.867497,194.068834 L185.762247,194.068834 C185.521049,194.068883 185.313137,193.89916 185.264897,193.662834 L177.144897,154.077834 C177.118178,153.929039 177.157838,153.776 177.253461,153.65891 C177.349084,153.54182 177.491114,153.472383 177.642247,153.468834 L219.967747,153.468834 C220.169408,153.47072 220.351616,153.589551 220.434647,153.773334 L237.324247,193.358334 C237.400392,193.511809 237.400392,193.69206 237.324247,193.845534 C237.221555,193.994757 237.048331,194.079444 236.867497,194.068834 Z M186.178397,193.053834 L236.096097,193.053834 L219.642947,154.483834 L178.281697,154.483834 L186.178397,193.053834 Z"/><polygon fill="#FFF" points="185.762 193.561 187.072 178.306 236.066 178.306 237.71 193.561"/><path fill="#231F20" d="M237.709947,194.068837 L185.762247,194.068837 C185.620311,194.069289 185.48467,194.010284 185.388237,193.906136 C185.291804,193.801988 185.243392,193.662216 185.254747,193.520734 L186.564097,178.295734 C186.594647,178.037687 186.811769,177.842277 187.071597,177.838971 L236.065647,177.838971 C236.323775,177.83712 236.542178,178.029314 236.573147,178.285584 L238.217447,193.510584 C238.236057,193.650852 238.191439,193.792143 238.095647,193.896284 C237.996717,194.005 237.856932,194.067535 237.709947,194.068837 L237.709947,194.068837 Z M186.310347,193.053834 L237.151697,193.053834 L235.608897,178.843834 L187.538497,178.843834 L186.310347,193.053834 Z"/><polygon fill="#FFF" points="187.072 178.306 177.652 153.986 219.978 153.986 236.066 178.306"/><path fill="#231F20" d="M236.065647,178.813384 L187.071597,178.813384 C186.864217,178.810691 186.679343,178.682083 186.604697,178.488584 L177.185497,154.128584 C177.109656,153.98219 177.109656,153.808078 177.185497,153.661684 C177.277773,153.521936 177.434183,153.438009 177.601647,153.438339 L219.927147,153.438339 C220.09508,153.436114 220.252341,153.520498 220.343297,153.661684 L236.441197,178.021684 C236.538069,178.180638 236.538069,178.38038 236.441197,178.539334 C236.370483,178.688373 236.229154,178.791505 236.065647,178.813384 L236.065647,178.813384 Z M187.416697,177.798384 L235.121697,177.798384 L219.703847,154.453384 L178.393347,154.453384 L187.416697,177.798384 Z"/><line x1="214.933" x2="224.464" y1="156.686" y2="173.769" fill="#FFF"/><path fill="#D1D3D4" d="M224.464197,174.276334 C224.281437,174.27478 224.112489,174.178787 224.017597,174.022584 L214.486747,156.929984 C214.349859,156.686082 214.436107,156.377404 214.679597,156.239784 C214.926777,156.110397 215.232028,156.200177 215.369797,156.442784 L224.910797,173.525234 C225.047686,173.769136 224.961437,174.077815 224.717947,174.215434 C224.639106,174.254794 224.552315,174.275624 224.464197,174.276334 L224.464197,174.276334 Z"/><line x1="206.052" x2="215.593" y1="156.686" y2="173.769" fill="#FFF"/><path fill="#D1D3D4" d="M215.593097,174.276336 C215.410337,174.27478 215.241389,174.178787 215.146497,174.022584 L205.615647,156.929984 C205.478759,156.686082 205.565007,156.377404 205.808497,156.239784 C206.055677,156.110397 206.360928,156.200177 206.498697,156.442784 L216.039697,173.525234 C216.125849,173.682687 216.122428,173.873936 216.030699,174.028207 C215.93897,174.182478 215.772578,174.276825 215.593097,174.276336 L215.593097,174.276336 Z"/><line x1="197.181" x2="206.722" y1="156.686" y2="173.769" fill="#FFF"/><path fill="#D1D3D4" d="M206.721997,174.276383 C206.538157,174.278893 206.367309,174.181821 206.275397,174.022584 L196.734397,156.929984 C196.597509,156.686082 196.683757,156.377404 196.927247,156.239784 C197.174427,156.110397 197.479678,156.200177 197.617447,156.442784 L207.158447,173.525234 C207.244599,173.682687 207.241178,173.873936 207.149449,174.028207 C207.05772,174.182478 206.891328,174.276825 206.711847,174.276383 L206.721997,174.276383 Z"/><line x1="188.31" x2="196.491" y1="156.686" y2="174.012" fill="#FFF"/><path fill="#D1D3D4" d="M196.490797,174.519942 C196.293667,174.521009 196.114507,174.40555 196.034047,174.225584 L187.853147,156.899534 C187.750369,156.733211 187.752274,156.522638 187.858046,156.358202 C187.963817,156.193766 188.154643,156.104714 188.348612,156.129271 C188.54258,156.153828 188.705192,156.287627 188.766647,156.473234 L196.947547,173.799284 C197.005957,173.920151 197.013028,174.059496 196.967152,174.185654 C196.921276,174.311812 196.826351,174.414068 196.703947,174.469184 C196.637037,174.500275 196.564539,174.517536 196.490797,174.519942 Z"/><ellipse cx="221.521" cy="167.973" fill="#FFF" rx="2.943" ry="1.604"/><path fill="#D1D3D4" d="M221.520697,170.084384 C219.592197,170.084384 218.079847,169.150584 218.079847,167.973184 C218.079847,166.795784 219.561747,165.861984 221.520697,165.861984 C223.479647,165.861984 224.971697,166.775484 224.971697,167.973184 C224.971697,169.170884 223.459347,170.084384 221.520697,170.084384 Z M221.520697,166.876984 C220.130147,166.876984 219.094847,167.455534 219.094847,167.973184 C219.094847,168.490834 220.018497,169.069384 221.520697,169.069384 C223.022897,169.069384 223.956697,168.429934 223.956697,167.973184 C223.956697,167.516434 222.921397,166.876984 221.520697,166.876984 Z"/><ellipse cx="203.778" cy="169.211" fill="#FFF" rx="2.943" ry="1.604"/><path fill="#D1D3D4" d="M203.778497,171.312534 C201.809397,171.312534 200.327497,170.409184 200.327497,169.211484 C200.327497,168.013784 201.849997,167.100284 203.778497,167.100284 C205.706997,167.100284 207.229497,168.023934 207.229497,169.211484 C207.229497,170.399034 205.747597,171.312534 203.778497,171.312534 Z M203.778497,168.115284 C202.276297,168.115284 201.342497,168.754734 201.342497,169.211484 C201.342497,169.668234 202.357497,170.297534 203.778497,170.297534 C205.199497,170.297534 206.214497,169.729134 206.214497,169.211484 C206.214497,168.693834 205.290847,168.115284 203.778497,168.115284 Z"/><ellipse cx="191.73" cy="163.172" fill="#FFF" rx="2.943" ry="1.604"/><path fill="#D1D3D4" d="M191.730447,165.283434 C189.801947,165.283434 188.289597,164.349634 188.289597,163.172234 C188.289597,161.994834 189.771497,161.061034 191.730447,161.061034 C193.689397,161.061034 195.181447,161.974534 195.181447,163.172234 C195.181447,164.369934 193.689397,165.283434 191.730447,165.283434 Z M191.730447,162.076034 C190.339897,162.076034 189.304597,162.654584 189.304597,163.172234 C189.304597,163.689884 190.228247,164.268434 191.730447,164.268434 C193.232647,164.268434 194.166447,163.628984 194.166447,163.172234 C194.166447,162.715484 193.131147,162.076034 191.730447,162.076034 Z"/><ellipse cx="208.996" cy="163.172" fill="#FFF" rx="2.943" ry="1.604"/><path fill="#D1D3D4" d="M208.995597,165.283434 C207.067097,165.283434 205.544597,164.349634 205.544597,163.172234 C205.544597,161.994834 207.026497,161.061034 208.995597,161.061034 C210.964697,161.061034 212.446597,161.974534 212.446597,163.172234 C212.446597,164.369934 210.944397,165.283434 208.995597,165.283434 Z M208.995597,162.076034 C207.605047,162.076034 206.559597,162.654584 206.559597,163.172234 C206.559597,163.689884 207.493397,164.268434 208.995597,164.268434 C210.497797,164.268434 211.431597,163.628984 211.431597,163.172234 C211.431597,162.715484 210.386147,162.076034 208.995597,162.076034 Z"/><rect width="252.096" height="10.363" x=".799" y="200.717" fill="#FFF"/><path fill="#231F20" d="M252.894347,211.587734 L0.839397409,211.587734 C0.559112898,211.587734 0.331897409,211.360519 0.331897409,211.080234 L0.331897409,200.717084 C0.331897409,200.4368 0.559112898,200.209584 0.839397409,200.209584 L252.894347,200.209584 C253.174632,200.209584 253.401847,200.4368 253.401847,200.717084 L253.401847,211.080234 C253.401847,211.360519 253.174632,211.587734 252.894347,211.587734 Z M1.30629741,210.572734 L252.386847,210.572734 L252.386847,201.224584 L1.30629741,201.224584 L1.30629741,210.572734 Z"/><rect width="241.245" height="10.363" x="6.219" y="211.08" fill="#231F20"/><path fill="#231F20" d="M247.484397 221.950884 6.21889741 221.950884C5.9386129 221.950884 5.71139741 221.723669 5.71139741 221.443384L5.71139741 211.080234C5.71139741 210.79995 5.9386129 210.572734 6.21889741 210.572734L247.484397 210.572734C247.764682 210.572734 247.991897 210.79995 247.991897 211.080234L247.991897 221.443384C247.991897 221.577981 247.938429 221.707066 247.843254 221.802241 247.748079 221.897416 247.618995 221.950884 247.484397 221.950884ZM6.74669741 220.935884 246.956597 220.935884 246.956597 211.587734 6.72639741 211.587734 6.74669741 220.935884ZM80.4864474 71.6699895C80.0616978 71.6713638 79.6810083 71.4081211 79.5323474 71.0102341L72.6303474 52.7402341C72.4389882 52.2161837 72.7064506 51.6359263 73.2291974 51.4410341 73.7503965 51.2486238 74.3294353 51.5110008 74.5283974 52.0297341L81.4303974 70.2997341C81.5259967 70.5514289 81.5176775 70.8307943 81.4072706 71.0763544 81.2968637 71.3219146 81.0934161 71.5135478 80.8416974 71.6090841 80.7272729 71.6481469 80.6073492 71.6687052 80.4864474 71.6699895Z"/><path fill="#231F20" d="M102.180962,48.8501881 L106.372912,48.8501881 C109.175757,48.8501881 111.447912,51.122507 111.447912,53.9253521 L111.447912,72.8855521 L97.0653618,72.8855521 L97.0653618,53.9659521 C97.0544371,52.6058909 97.5898917,51.2983609 98.5516312,50.3366215 C99.5133706,49.374882 100.820901,48.8394274 102.180962,48.8501881 Z" transform="rotate(73.88 104.257 60.868)"/><path fill="#231F20" d="M94.6761474,71.6699841 C94.4532065,71.668873 94.258243,71.5195392 94.1990974,71.3045841 L90.1593974,57.4498341 C90.1097116,57.3260678 90.1097116,57.1879004 90.1593974,57.0641341 C90.2237507,56.9471299 90.3341977,56.8624539 90.4638974,56.8306841 L108.683147,51.5628341 C111.665268,50.7005153 114.782019,52.4179086 115.646047,55.3995341 L116.803147,59.4595341 C117.659462,62.4409822 115.944297,65.553689 112.966447,66.4224341 L94.7471974,71.6801341 C94.7232118,71.6793859 94.6993831,71.6759818 94.6761474,71.6699841 L94.6761474,71.6699841 Z M91.2961974,57.6528341 L95.0212474,70.5433341 L112.753297,65.4175841 C115.198469,64.7056157 116.609077,62.1520077 115.909947,59.7031341 L114.742697,55.6431341 C114.035443,53.1941957 111.4778,51.7813591 109.028247,52.4864841 L91.2961974,57.6528341 Z"/><path fill="#FFF" d="M77.5956061,58.0341555 L96.3832561,58.0341555 L96.3832561,64.2459555 C96.3832561,69.4368246 92.1752253,73.6448555 86.9843561,73.6448555 L86.9843561,73.6448555 C81.793487,73.6448555 77.5854561,69.4368246 77.5854561,64.2459555 L77.5854561,58.0341555 L77.5956061,58.0341555 Z" transform="rotate(73.88 86.984 65.84)"/><path fill="#231F20" d="M88.5658474,75.2935381 C83.6378452,75.2877753 79.463379,71.6605919 78.7696674,66.7816572 C78.0759559,61.9027226 81.0739567,57.2557215 85.8050474,55.8765841 L91.7326474,54.1713841 C91.8618823,54.1307809 92.0020876,54.1446492 92.1208634,54.2097843 C92.2396392,54.2749195 92.3267074,54.385685 92.3619474,54.5164841 L97.5790474,72.5631841 C97.6517083,72.8315925 97.4993318,73.1094554 97.2339474,73.1924841 L91.3063474,74.9078341 C90.4155068,75.164524 89.4929321,75.2943679 88.5658474,75.2935381 Z M91.5296474,55.2878841 L86.0993974,56.8509841 C81.3777167,58.2117605 78.6517922,63.1411406 80.0093974,67.8637341 L80.0093974,67.8637341 C81.3702998,72.5802785 86.2926304,75.3048157 91.0119974,73.9537341 L96.4523974,72.3804841 L91.5296474,55.2878841 Z"/><rect width="18.788" height="2.812" x="88.396" y="61.315" fill="#FFF" rx=".873" transform="rotate(73.88 97.79 62.72)"/><path fill="#231F20" d="M99.6496474,72.4413841 C99.0297294,72.4372667 98.4874105,72.0232829 98.3199974,71.4263841 L93.5900974,55.0544341 C93.3871138,54.3237273 93.8070512,53.5651306 94.5340474,53.3492341 L95.5490474,53.0548841 C95.9017404,52.9485774 96.2823819,52.9887532 96.6051097,53.1663489 C96.9278375,53.3439447 97.1654676,53.6440012 97.2643974,53.9988341 L102.004447,70.3606341 C102.213875,71.0945779 101.792583,71.8601513 101.060497,72.0759841 L100.045497,72.3703341 C99.9181203,72.4147462 99.7845188,72.438726 99.6496474,72.4413841 L99.6496474,72.4413841 Z M95.9448974,54.0191341 L95.8433974,54.0191341 L94.8283974,54.3134841 C94.7361391,54.3432377 94.6571621,54.4042653 94.6050974,54.4860341 C94.5748749,54.578357 94.5748749,54.6779112 94.6050974,54.7702341 L99.2943974,71.1523341 L99.2943974,71.1523341 C99.3203506,71.2471748 99.3834317,71.3275534 99.4693855,71.3753055 C99.5553394,71.4230576 99.6569112,71.434153 99.7511474,71.4060841 L100.766147,71.1117341 C100.960139,71.0529195 101.072447,70.850766 101.019897,70.6549841 L96.2899974,54.2830341 C96.2589419,54.1910375 96.1934621,54.1146444 96.1072974,54.0698841 C96.0582481,54.0396787 96.0024179,54.0222318 95.9448974,54.0191341 L95.9448974,54.0191341 Z"/><path fill="#FFF" d="M23.1693974,177.229984 C24.8071548,177.951689 26.5674272,178.354726 28.3560474,178.417534 C30.1969231,178.392885 32.0018179,177.904132 33.6035974,176.996534 L34.7302474,184.558284 C34.7302474,184.558284 32.9235474,188.080334 29.1883474,188.110784 C24.5700974,188.110784 23.1693974,185.481934 23.1693974,185.481934 L23.1693974,177.229984 Z"/><path fill="#231F20" d="M29.0969974,188.618284 C24.2960474,188.618284 22.7735474,185.837184 22.7126474,185.725534 C22.6734156,185.650275 22.6525471,185.566801 22.6517474,185.481934 L22.6517474,177.229984 C22.6520349,177.057438 22.7399711,176.896859 22.8851974,176.803684 C23.036478,176.718695 23.2211168,176.718695 23.3723974,176.803684 C24.949169,177.487093 26.6388875,177.872528 28.3560474,177.940484 C30.09953,177.905377 31.8075836,177.441763 33.3295474,176.590534 C33.4781881,176.509295 33.6579567,176.509295 33.8065974,176.590534 C33.9598737,176.66348 34.0665304,176.808229 34.0907974,176.976234 L35.2275974,184.548134 C35.2529456,184.648052 35.2529456,184.752717 35.2275974,184.852634 C35.1463974,185.004884 33.1975974,188.648734 29.2289474,188.679184 L29.0969974,188.618284 Z M23.6667474,185.349984 C23.9610974,185.796584 25.3820974,187.603284 29.0969974,187.603284 L29.1781974,187.603284 C31.2707777,187.467974 33.1550228,186.289367 34.1922974,184.466934 L33.1772974,177.778084 C31.6622226,178.51743 30.0012219,178.909274 28.3154474,178.925034 C26.7185135,178.871251 25.1412262,178.555793 23.6464474,177.991234 L23.6667474,185.349984 Z"/><ellipse cx="28.376" cy="177.23" fill="#231F20" rx="5.217" ry="1.665"/><path fill="#231F20" d="M28.3763474,179.402084 C25.6155474,179.402084 22.6517474,178.722034 22.6517474,177.229984 C22.6517474,175.737934 25.6155474,175.057884 28.3763474,175.057884 C31.1371474,175.057884 34.1009474,175.737934 34.1009474,177.229984 C34.1009474,178.722034 31.1269974,179.402084 28.3763474,179.402084 Z M28.3763474,176.072884 C25.3313474,176.072884 23.6667474,176.895034 23.6667474,177.229984 C23.6667474,177.564934 25.3110474,178.387084 28.3763474,178.387084 C31.4416474,178.387084 33.0859474,177.564934 33.0859474,177.229984 C33.0859474,176.895034 31.4314974,176.072884 28.3763474,176.072884 Z"/><circle cx="230.047" cy="186.466" r="1.847" fill="#FFF"/><path fill="#D1D3D4" d="M230.046697 188.821284C228.746177 188.821284 227.691897 187.767004 227.691897 186.466484 227.691897 185.165964 228.746177 184.111684 230.046697 184.111684 231.347218 184.111684 232.401497 185.165964 232.401497 186.466484 232.401497 187.767004 231.347218 188.821284 230.046697 188.821284L230.046697 188.821284ZM230.046697 185.126684C229.504799 185.126684 229.016259 185.453116 228.808884 185.953765 228.601508 186.454414 228.716136 187.030686 229.099316 187.413866 229.482496 187.797046 230.058768 187.911673 230.559417 187.704298 231.060066 187.496922 231.386497 187.008383 231.386497 186.466484 231.380972 185.728834 230.784348 185.13221 230.046697 185.126684ZM224.464197 186.436034 218.587347 186.436034C218.307063 186.436034 218.079847 186.208819 218.079847 185.928534 218.079847 185.64825 218.307063 185.421034 218.587347 185.421034L224.464197 185.421034C224.744482 185.421034 224.971697 185.64825 224.971697 185.928534 224.971697 186.208819 224.744482 186.436034 224.464197 186.436034Z"/><line x1="185.417" x2="183.367" y1="110.758" y2="72.776" fill="#231F20"/><path fill="#231F20" d="M185.417147,111.265134 C185.148336,111.265618 184.925776,111.056411 184.909647,110.788084 L182.879647,72.8067841 C182.879647,72.5264996 183.106863,72.2992841 183.387147,72.2992841 C183.667432,72.2992841 183.894647,72.5264996 183.894647,72.8067841 L185.924647,110.777934 C185.93297,110.912591 185.887333,111.04502 185.797819,111.145961 C185.708306,111.246902 185.582283,111.308046 185.447597,111.315884 L185.417147,111.265134 Z"/></g></svg>