<svg xmlns="http://www.w3.org/2000/svg" width="268" height="217" viewBox="0 0 268 217"><g fill="none" transform="translate(.344 .234)"><polygon fill="#FFF" points="242.403 .508 242.403 183.522 266.804 208.917 266.804 .508"/><path fill="#231F20" d="M266.803979,209.42495 C266.666818,209.42495 266.535398,209.369856 266.438579,209.2727 L242.078579,183.8977 C241.988447,183.801224 241.937746,183.674472 241.936375,183.54245 L241.936375,0.507500011 C241.933751,0.373844846 241.984943,0.244718639 242.078512,0.14924052 C242.17208,0.0537623999 242.300146,1.42108547e-14 242.433829,1.42108547e-14 L266.793829,1.42108547e-14 C267.074113,1.42108547e-14 267.301329,0.2272155 267.301329,0.507500011 L267.301329,208.9276 C267.300306,209.132479 267.176192,209.316648 266.986679,209.3945 C266.927767,209.414227 266.866104,209.42495 266.803979,209.42495 L266.803979,209.42495 Z M242.910879,183.31915 L266.306629,207.67915 L266.306629,1.01500001 L242.910879,1.01500001 L242.910879,183.31915 Z"/><rect width="217.504" height="183.015" x="24.909" y=".508" fill="#FFF"/><path fill="#231F20" d="M242.403379,184.02965 L24.9091788,184.02965 C24.6288943,184.02965 24.4016788,183.802435 24.4016788,183.52215 L24.4016788,0.507500011 C24.4016788,0.2272155 24.6288943,1.0802971e-08 24.9091788,1.0802971e-08 L242.403379,1.0802971e-08 C242.683663,1.0802971e-08 242.910879,0.2272155 242.910879,0.507500011 L242.910879,183.52215 C242.910879,183.802435 242.683663,184.02965 242.403379,184.02965 Z M25.4065288,183.01465 L241.906029,183.01465 L241.906029,1.01500001 L25.4065288,1.01500001 L25.4065288,183.01465 Z"/><path fill="#D1D3D4" d="M128.581279 178.5588 37.1297788 178.5588C36.8517618 178.5534 36.6276787 178.329317 36.6222788 178.0513L36.6222788 9.68310001C36.6222788 9.4028155 36.8494943 9.17560001 37.1297788 9.17560001L128.581279 9.17560001C128.861563 9.17560001 129.088779 9.4028155 129.088779 9.68310001L129.088779 178.0513C129.083379 178.329317 128.859296 178.5534 128.581279 178.5588L128.581279 178.5588ZM37.6372788 177.5438 128.073779 177.5438 128.073779 10.1906 37.6372788 10.1906 37.6372788 177.5438ZM230.213229 178.5588 138.731279 178.5588C138.453262 178.5534 138.229179 178.329317 138.223779 178.0513L138.223779 9.68310001C138.223779 9.4028155 138.450994 9.17560001 138.731279 9.17560001L230.182779 9.17560001C230.463063 9.17560001 230.690279 9.4028155 230.690279 9.68310001L230.690279 178.0513C230.685865 178.31815 230.479296 178.537904 230.213229 178.5588ZM139.269229 177.5438 229.705729 177.5438 229.705729 10.1906 139.269229 10.1906 139.269229 177.5438Z"/><polygon fill="#FFF" points="266.804 208.917 .509 208.917 24.909 183.522 242.403 183.522"/><path fill="#231F20" d="M266.803979,209.42495 L0.508578839,209.42495 C0.306918134,209.423065 0.124710415,209.304233 0.0416788391,209.12045 C-0.0396690442,208.934174 9.86645758e-05,208.717143 0.143178839,208.57235 L24.5031788,183.19735 C24.5961296,183.093425 24.729152,183.034304 24.8685788,183.034945 L242.403379,183.034945 C242.542806,183.034304 242.675828,183.093425 242.768779,183.19735 L267.128779,208.57235 C267.271859,208.717143 267.311627,208.934174 267.230279,209.12045 C267.15382,209.291671 266.990742,209.408155 266.803979,209.42495 Z M1.70627884,208.4201 L265.606279,208.4201 L242.180079,184.0601 L25.1223288,184.0601 L1.70627884,208.4201 Z"/><polygon fill="#FFF" points=".509 .508 .509 208.917 24.909 183.522 24.909 .508"/><path fill="#231F20" d="M0.508578839,209.42495 C0.444732539,209.435551 0.379575139,209.435551 0.315728839,209.42495 C0.126215394,209.347098 0.00210152525,209.162929 0.00107883908,208.95805 L0.00107883908,0.507500011 C0.00107883908,0.2272155 0.228294329,1.42108547e-14 0.508578839,1.42108547e-14 L24.8685788,1.42108547e-14 C25.0022618,1.42108547e-14 25.1303276,0.0537623999 25.2238962,0.14924052 C25.3174647,0.244718639 25.3686571,0.373844846 25.3660326,0.507500011 L25.3660326,183.52215 C25.3646618,183.654172 25.3139607,183.780924 25.2238288,183.8774 L0.863828839,209.2524 C0.772868611,209.354604 0.645145441,209.416641 0.508578839,209.42495 L0.508578839,209.42495 Z M1.00592884,1.01500001 L1.00592884,207.669 L24.3509288,183.309 L24.3509288,1.01500001 L1.00592884,1.01500001 Z"/><path fill="#231F20" d="M25.3659288,132.67065 C23.2242788,133.05635 7.92822884,132.8026 8.23272884,135.8476 C8.53722884,138.8926 15.9873288,169.3426 18.0985288,177.51335 C20.2097288,185.6841 25.9444788,192.73835 31.3747288,195.78335 C36.8049788,198.82835 53.2987288,185.57245 56.9730288,184.61835 C60.6473288,183.66425 25.3659288,132.67065 25.3659288,132.67065 Z"/><path fill="#231F20" d="M33.3438288,196.7273 C32.5714491,196.753309 31.8055384,196.578443 31.1209788,196.2198 C26.0459788,193.3575 19.9559788,186.50625 17.6011788,177.63515 C15.4595288,169.3629 8.02972884,139.00425 7.72522884,135.89835 C7.68881697,135.497981 7.82127778,135.100598 8.09062884,134.80215 C9.58267884,133.07665 15.8046288,132.6605 22.0367288,132.38645 C23.5287788,132.3154 24.8076788,132.2545 25.2847288,132.1733 C25.4777225,132.142675 25.6711567,132.225575 25.7820788,132.38645 C31.3544288,140.50645 59.0842288,180.8933 57.6733788,184.6285 C57.5762608,184.88492 57.3604281,185.078033 57.0948288,185.14615 C56.0087788,185.41005 53.5321788,186.963 50.6597288,188.7494 C45.1279788,192.2004 37.8707288,196.7273 33.3438288,196.7273 Z M25.1324788,133.21875 C24.5031788,133.2898 23.4475788,133.34055 22.0874788,133.3913 C17.9361288,133.58415 10.2018288,133.92925 8.89247884,135.4213 C8.80235247,135.508765 8.75427197,135.630816 8.76052884,135.75625 C9.06502884,138.7505 16.5354288,169.33245 18.6161788,177.37125 C20.8390288,185.948 26.7361788,192.59625 31.6487788,195.3266 C35.0997788,197.26525 44.1535788,191.62185 50.1522288,187.8765 C52.2321418,186.431688 54.4486734,185.194238 56.7700288,184.1819 C57.2572288,181.16735 37.7793788,151.54965 25.1324788,133.21875 Z"/><path fill="#FFF" d="M82.6626788,113.95405 C82.6626788,113.95405 11.4604288,111.0613 11.1559288,116.1363 C10.8514288,121.2113 46.3459788,196.02695 51.5326288,197.12315 C56.7192788,198.21935 57.2572288,193.28645 59.2466288,193.7838 C61.2360288,194.28115 81.3127288,188.0998 87.6666288,182.6188 C94.0205288,177.1378 76.9685288,135.7055 77.7094788,130.5696 C78.4504288,125.4337 88.5090788,114.68485 82.6626788,113.95405 Z"/><path fill="#231F20" d="M52.9434788,197.8032 C52.4345471,197.801535 51.9273559,197.743668 51.4311288,197.63065 C47.9293788,196.89985 34.4603288,169.94145 28.8270788,158.3806 C19.8950788,140.03955 10.4860288,118.98845 10.6484288,116.1363 C10.7194788,115.02995 10.8615788,112.4417 47.0260288,112.63455 C64.6667288,112.71575 82.5510288,113.44655 82.6829788,113.4567 L82.6829788,113.4567 C83.5270064,113.476593 84.298237,113.939331 84.7129788,114.6747 C85.6366288,116.53215 83.6370788,119.9527 81.5258788,123.57625 C79.9932288,126.1848 78.4199788,128.89485 78.1560788,130.68125 C77.9023288,132.356 79.8612788,138.7302 82.1247288,146.0991 C86.6617788,160.88765 92.2747288,179.2896 87.9305288,183.03495 C81.5360288,188.51595 61.2664788,194.80895 59.0842288,194.2507 C58.6376288,194.1492 58.2417788,194.5552 57.5718788,195.2657 C56.5094221,196.787267 54.7976576,197.725734 52.9434788,197.8032 Z M44.8234788,113.5582 C23.7013288,113.5582 11.7953788,114.62395 11.7040288,116.14645 C11.5619288,118.4302 19.6819288,137.1671 29.7811788,157.90355 C42.5194288,184.1413 49.9492288,196.3213 51.6341288,196.6461 C54.5370288,197.2551 55.7753288,195.8747 56.8613788,194.6161 C57.6124788,193.7838 58.3128288,193.0124 59.3785788,193.2763 C61.0837788,193.69245 80.9676288,187.70395 87.3113788,182.26355 C91.1785288,178.95465 85.1697288,159.36515 81.2213788,146.4036 C78.8259788,138.59825 76.9380788,132.4372 77.2121288,130.529 C77.4861788,128.6208 79.1406288,125.7179 80.7138788,123.018 C82.5104288,119.973 84.5505788,116.45095 83.8705288,115.0807 C83.5991612,114.667129 83.1370273,114.418875 82.6423788,114.42095 C67.9654788,113.8627 55.2475288,113.5988 44.7828788,113.5988 L44.8234788,113.5582 Z"/><path fill="#FFF" d="M212.278179,180.9339 C212.278179,180.9339 223.138679,180.6294 224.549529,179.9189 C225.960379,179.2084 234.100679,168.6524 236.008879,166.1352 C237.917079,163.618 238.424579,160.70495 239.733929,160.1061 C241.043279,159.50725 241.845129,158.49225 242.342479,160.1061 C242.839829,161.71995 240.129779,173.3011 238.282479,179.6144 C236.435179,185.9277 234.364579,194.40295 232.852229,195.4078 C231.339879,196.41265 227.320479,195.1033 226.214129,193.99695 C224.958925,192.980559 223.597713,192.102577 222.154129,191.37825 C222.154129,191.37825 209.172279,191.47975 208.959129,191.1854 C208.745979,190.89105 212.278179,180.9339 212.278179,180.9339 Z"/><path fill="#231F20" d="M231.350029,196.3213 C229.376815,196.270054 227.469817,195.598876 225.899479,194.40295 C224.729502,193.447541 223.46023,192.620642 222.113529,191.9365 C208.989579,192.038 208.827179,191.7944 208.634329,191.5102 C208.441479,191.226 208.299379,191.0027 211.801129,180.8121 C211.862615,180.610317 212.046974,180.471024 212.257879,180.467 C216.419379,180.35535 223.361979,179.98995 224.316079,179.5129 C225.270179,179.03585 231.542879,171.2305 235.602879,165.88145 C236.361384,164.837467 236.998193,163.710282 237.500929,162.5218 C238.140379,161.17185 238.647879,160.09595 239.530929,159.68995 C239.790953,159.573301 240.042004,159.437598 240.282029,159.28395 C240.870729,158.949 241.418829,158.63435 241.977079,158.8475 C242.422711,159.085377 242.739027,159.509613 242.839829,160.0046 C243.448829,161.9534 240.251579,174.783 238.779829,179.80725 C238.485479,180.82225 238.180979,181.9286 237.876479,183.0248 C235.846479,190.22115 234.466079,194.99165 233.146579,195.8747 C232.602205,196.190941 231.979115,196.345833 231.350029,196.3213 L231.350029,196.3213 Z M222.215029,190.93165 C222.288674,190.916327 222.364684,190.916327 222.438329,190.93165 C223.918077,191.678694 225.310377,192.587604 226.589679,193.6417 C227.604679,194.6567 231.360179,195.80365 232.588329,194.9815 C233.816479,194.15935 235.552129,187.572 236.912229,182.7 C237.216729,181.6038 237.521229,180.5076 237.815579,179.4723 C239.926779,172.0831 242.251129,161.5474 241.875579,160.2482 C241.733479,159.8016 241.611679,159.7407 241.611679,159.7407 C241.611679,159.7407 241.043279,159.964 240.789529,160.11625 C240.535779,160.2685 240.261729,160.42075 239.957229,160.56285 C239.409129,160.80645 238.942229,161.78085 238.434729,162.9075 C237.886676,164.154285 237.206095,165.338497 236.404729,166.4397 C235.998729,166.97765 226.447579,179.52305 224.762679,180.3655 C223.392429,181.04555 214.724329,181.3805 212.582679,181.3805 C211.496629,184.55745 209.923379,189.2975 209.537679,190.72865 C211.273329,190.8606 217.921579,190.87075 222.133829,190.8403 L222.215029,190.93165 Z"/><path fill="#231F20" d="M94.6396788,196.22995 C94.6396788,196.22995 149.896279,189.2163 153.834479,188.88135 C157.772679,188.5464 213.841279,192.79925 215.871279,192.49475 C217.901279,192.19025 218.439229,179.52305 218.439229,179.52305 C218.439229,179.52305 164.167179,164.90705 148.779779,165.648 C139.878229,166.0743 111.021779,165.648 111.021779,165.648 L94.6396788,196.22995 Z"/><path fill="#231F20" d="M94.6396788,196.737623 C94.4607238,196.742161 94.293044,196.650335 94.2006318,196.497014 C94.1082196,196.343694 94.105335,196.152539 94.1930788,195.9965 L110.544729,165.4044 C110.635711,165.238002 110.81188,165.136216 111.001479,165.1405 C111.285679,165.1405 139.939129,165.55665 148.718879,165.1405 C164.014929,164.4097 216.317879,178.437 218.540729,179.03585 C218.771,179.093691 218.928278,179.306229 218.916921,179.54335 C218.733579,183.48155 218.063679,192.6673 215.922029,193.00225 C214.988229,193.14435 204.878829,192.47445 188.456129,191.3884 C173.231129,190.3734 155.976129,189.22645 153.875079,189.3584 C150.018079,189.65275 95.2588288,196.63595 94.7005788,196.707 L94.6396788,196.737623 Z M111.326279,166.1555 L95.5836288,195.5905 C103.226579,194.5755 150.180479,188.63775 153.834479,188.3637 C155.955829,188.2013 172.530779,189.2975 188.557629,190.3937 C201.509029,191.25645 214.896879,192.14965 215.800229,192.0177 C216.703579,191.88575 217.576479,186.28295 217.911429,179.92905 C212.958229,178.60955 163.243529,165.47545 148.800079,166.1758 C140.456779,166.55135 114.442329,166.1961 111.326279,166.1555 Z"/><path fill="#FFF" d="M170.774829,176.15325 C170.774829,176.15325 176.205079,184.90255 176.803929,186.7194 C177.402779,188.53625 177.412929,193.50975 178.610629,195.7732 C179.808329,198.03665 214.064579,197.59005 213.922479,196.2401 C213.780379,194.89015 199.133929,188.8306 195.287079,186.0901 C191.440229,183.3496 181.361279,168.9163 181.361279,168.9163 L170.774829,176.15325 Z"/><path fill="#231F20" d="M196.058479,197.83365 C187.481729,197.83365 178.894829,197.3769 178.174179,196.0168 C177.453529,194.6567 177.098279,192.1395 176.844529,190.008 C176.757404,188.950231 176.584282,187.901314 176.326879,186.87165 C175.859979,185.49125 172.205979,179.4317 170.338379,176.41715 C170.193333,176.189469 170.256399,175.887651 170.480479,175.7371 L181.046629,168.50015 C181.274275,168.343167 181.585699,168.397327 181.746979,168.62195 C181.848479,168.76405 191.846229,183.0654 195.581429,185.7044 C198.591884,187.517031 201.706569,189.15063 204.909279,190.5967 C212.186829,194.1289 214.318329,195.286 214.419829,196.1792 C214.460429,196.5446 214.216829,196.8085 213.689029,196.9709 C212.217279,197.42765 204.148029,197.83365 196.058479,197.83365 Z M171.454879,176.29535 C172.551079,178.0716 176.743029,184.92285 177.280979,186.557 C177.563428,187.648839 177.753565,188.762496 177.849379,189.8862 C177.958392,191.821681 178.365815,193.728696 179.057229,195.53975 C179.605329,196.1386 185.218279,196.8288 196.210729,196.85925 C204.645379,196.91 211.435729,196.4837 213.191679,196.06755 C210.375702,194.381587 207.464556,192.859929 204.472829,191.5102 C201.217012,190.037939 198.051416,188.373798 194.992729,186.52655 C191.440229,184.0195 182.914229,172.0425 181.209029,169.61665 L171.454879,176.29535 Z"/><path fill="#231F20" d="M72.6040288,189.2163 C73.5175288,189.8253 77.5064788,195.6717 94.6396788,196.27055 C111.772879,196.8694 139.989879,145.01305 139.989879,145.01305 L169.769979,179.96965 L183.442029,171.32185 C183.442029,171.32185 164.735579,119.33355 156.290779,113.99465 C147.845979,108.65575 133.960779,112.5838 127.870779,116.5017 C121.780779,120.4196 92.5690788,160.5527 92.5690788,160.5527 L72.6040288,189.2163 Z"/><path fill="#231F20" d="M94.9340288,196.7476 L94.6193788,196.7476 C79.2522788,196.20965 74.3193788,191.50005 72.7055288,189.95725 C72.5329788,189.79485 72.4111788,189.67305 72.3299788,189.61215 C72.21399,189.539257 72.1332036,189.42175 72.1066788,189.28735 C72.0859479,189.153187 72.1148152,189.016067 72.1878788,188.90165 L92.2036788,160.23805 C93.4115288,158.5836 121.638679,119.973 127.647479,116.04495 C133.301029,112.37065 147.582079,107.86405 156.554679,113.5379 C165.060379,118.90725 183.157829,168.98735 183.959679,171.11885 C184.039831,171.341382 183.955629,171.589778 183.756679,171.7177 L170.074479,180.3655 C169.859202,180.496911 169.580552,180.454041 169.414729,180.264 L140.121829,145.8758 C135.249901,154.56431 129.934433,162.99656 124.196479,171.13915 C112.016479,188.13025 102.191279,196.7476 94.9340288,196.7476 Z M73.2840788,189.0945 L73.4058788,189.20615 C74.9588288,190.68805 79.6684288,195.19465 94.6498288,195.72245 L94.9441788,195.72245 C111.600329,195.72245 139.269229,145.23635 139.553429,144.7187 C139.629778,144.573393 139.775469,144.477544 139.939129,144.46495 C140.107707,144.442315 140.276162,144.5074 140.385729,144.6375 L169.820729,179.249 L182.782279,171.05795 C181.056779,166.30775 163.801779,119.29295 155.976129,114.38035 C151.743579,111.70075 139.228629,109.6809 128.165129,116.87725 C122.278129,120.7038 93.2897288,160.40045 92.9953788,160.80645 L73.2840788,189.0945 Z"/><path fill="#FFF" d="M87.2606288,153.6913 C87.2606288,153.09245 94.7005788,143.28755 96.5580288,142.37405 C98.3420293,141.411491 100.073376,140.354387 101.744679,139.20725 L98.9635788,132.89395 C98.9635788,132.89395 96.7610288,133.777 97.2177788,131.81805 C97.6745288,129.8591 93.7363288,127.1186 93.7363288,127.1186 C93.7363288,127.1186 88.6004288,131.6861 88.4786288,136.9438 C88.3771288,141.17635 76.9989788,147.95655 76.9989788,147.95655 L87.2606288,153.6913 Z"/><path fill="#231F20" d="M87.2606288,154.1582 C87.1723761,154.158625 87.0853256,154.137733 87.0068788,154.0973 L76.7553788,148.36255 C76.5963738,148.272438 76.4981026,148.103789 76.4981026,147.921025 C76.4981026,147.738261 76.5963738,147.569612 76.7553788,147.4795 C79.8003788,145.6322 87.9203788,140.1309 87.9812788,136.89305 C88.1132288,131.4831 93.1983788,126.88515 93.4115288,126.74305 C93.597216,126.600908 93.8551416,126.600908 94.0408288,126.74305 C94.4671288,127.0374 98.2327788,129.7373 97.7151288,131.9703 C97.6237788,132.356 97.7151288,132.52855 97.7151288,132.56915 C97.7151288,132.60975 98.4053288,132.56915 98.7301288,132.46765 C98.9823925,132.367855 99.2685339,132.484099 99.3797288,132.73155 L102.160829,139.04485 C102.257986,139.265998 102.185811,139.524979 101.988279,139.664 C100.298927,140.828078 98.5471233,141.898813 96.7407288,142.8714 C95.0659788,143.69355 88.0929288,152.8793 87.7173788,153.8131 C87.6943302,153.962361 87.6047063,154.093063 87.4737788,154.16835 C87.4028739,154.181105 87.330001,154.177635 87.2606288,154.1582 Z M78.0038288,147.89565 L87.0576288,152.97065 C88.4989288,150.4636 94.6904288,142.69885 96.3448788,141.897 C97.9816996,141.013914 99.5706995,140.044929 101.105229,138.9941 L98.6793788,133.48265 C98.1341011,133.665432 97.5350204,133.586803 97.0553788,133.2695 C96.6474465,132.846464 96.517329,132.22742 96.7204288,131.67595 C96.9741788,130.57975 95.1674788,128.7832 93.7769288,127.73775 C92.7111788,128.75275 89.0774788,132.67065 88.9861288,136.9235 C88.8947788,140.79065 80.7037288,146.2209 78.0038288,147.89565 L78.0038288,147.89565 Z"/><path fill="#FFF" d="M72.7562788,76.5513 C62.7280788,64.21905 46.0719288,70.4613 41.1999288,83.80855 C39.2714288,89.117 37.4139788,93.95855 33.8208788,98.36365 C30.6134788,102.3323 25.5993788,105.83405 25.4065288,111.41655 C25.2745788,115.31415 27.8729788,118.9174 31.2224788,120.9068 C34.5719788,122.8962 38.5507788,123.5255 42.3874788,123.73865 C51.0663397,124.215329 59.748714,122.866812 67.8741288,119.78015 C71.1830288,118.52155 75.0501788,116.51185 76.7959788,113.22325 C78.9376288,109.214 76.5929788,106.169 75.6997788,102.05825 C74.9689788,98.658 76.0753288,95.1867 76.8061288,91.78645 C78.0444288,86.16335 76.3493788,81.00715 72.7562788,76.5513 Z"/><path fill="#231F20" d="M45.7674288,124.3375 C44.6407788,124.3375 43.5039788,124.3375 42.3773288,124.24615 C38.9973788,124.0533 34.6531788,123.55595 30.9281288,121.34325 C27.2030788,119.13055 24.7366288,115.17205 24.8381288,111.39625 C25.0512788,107.0013 27.9541788,103.9563 30.7961788,100.9113 C31.7299788,99.8963 32.6130288,99.0031 33.3945788,98.0287 C36.8455788,93.7657 38.6725788,89.16775 40.6924288,83.6157 C43.3618788,76.29755 49.6650288,70.8064 56.7497288,69.61885 C62.9919788,68.60385 68.8079288,70.9079 73.1115288,76.2062 L73.1115288,76.2062 C77.0903288,81.0985 78.5113288,86.3562 77.3237788,91.8981 C77.2019788,92.45635 77.0700288,93.02475 76.9380788,93.583 C76.2986288,96.35395 75.6287288,99.2264 76.2174288,101.9466 C76.4659933,102.998624 76.7743777,104.035609 77.1410788,105.0525 C78.0545788,107.76255 78.9173288,110.3305 77.2628788,113.4364 C75.8012788,116.1769 72.7156788,118.46065 68.0771288,120.22675 C60.949884,122.933225 53.3912396,124.325968 45.7674288,124.3375 L45.7674288,124.3375 Z M59.6221788,70.4004 C58.7139379,70.4033758 57.8074987,70.4814586 56.9121288,70.63385 C50.1826788,71.7605 44.1840288,76.9979 41.6871288,83.9811 C39.6571288,89.6245 37.7692288,94.2935 34.2268788,98.68845 C33.4148788,99.70345 32.4709288,100.71845 31.5675788,101.63195 C28.8575288,104.4841 26.0561288,107.4276 25.9241788,111.43685 C25.8023788,114.84725 27.9541788,118.3896 31.4863788,120.4805 C35.0185788,122.5714 39.2105288,123.0586 42.4788288,123.23115 C51.0602544,123.683349 59.6421168,122.349238 67.6812788,119.31325 C72.0762288,117.6385 74.9892788,115.507 76.3290788,112.9898 C77.7805288,110.2696 77.0192788,108.0163 76.1362288,105.40775 C75.7572904,104.35515 75.4420701,103.280689 75.1922788,102.1902 C74.5528288,99.2467 75.2430288,96.2626 75.9129288,93.39015 C76.0448788,92.8319 76.1768288,92.27365 76.2986288,91.7154 C77.4151288,86.50845 76.0651788,81.5654 72.2893788,76.86595 L72.2893788,76.86595 C68.8891288,72.64355 64.4535788,70.4004 59.6221788,70.4004 L59.6221788,70.4004 Z"/><path fill="#E0E0E0" d="M35.4956288,113.95405 C31.4356288,119.19145 32.1765788,143.521 41.8292288,156.1882 C51.4818788,168.8554 56.5162788,185.3593 78.4402788,193.8041 L95.7866288,158.4009 C95.7866288,158.4009 81.4548288,145.7337 80.8762788,141.70415 C80.2977288,137.6746 83.0788288,131.55415 81.0792788,126.21525 C72.6040288,103.84465 39.5251788,108.7268 35.4956288,113.95405 Z"/><path fill="#FFF" d="M63.0528788,108.63545 L63.0021288,118.4708 C63.0021288,118.4708 63.8039788,122.5308 57.2369288,120.988 C50.6698788,119.4452 47.7466788,111.35565 47.7466788,111.35565 L48.3353788,96.98325 C48.3353788,96.98325 58.6071788,91.48195 57.1455788,80.9158 C59.7985116,85.919789 65.3003082,88.7274906 70.9089788,87.9396 C70.9089788,87.9396 71.0713788,97.3791 70.2898288,102.46425 C69.5082788,107.5494 63.0528788,108.63545 63.0528788,108.63545 Z"/><path fill="#231F20" d="M59.8657788,121.85075 C58.9406152,121.834727 58.0206459,121.708657 57.1252788,121.4752 C50.3653788,119.8715 47.3914288,111.8733 47.2696288,111.5282 C47.2590281,111.464354 47.2590281,111.399196 47.2696288,111.33535 L47.8583288,96.96295 C47.8650004,96.7814744 47.9700516,96.6180613 48.1323788,96.53665 C48.2237288,96.4859 58.0692288,91.0658 56.6685288,80.98685 C56.6380236,80.7420977 56.7879063,80.5108501 57.0237788,80.43875 C57.2617393,80.3571409 57.5231681,80.4660696 57.6327788,80.6925 C60.1575129,85.5100908 65.4437718,88.2142155 70.8277788,87.44225 C70.9710456,87.4247116 71.1150028,87.4690061 71.2236288,87.56405 C71.3345654,87.658022 71.4008698,87.7943146 71.4063288,87.9396 C71.4063288,88.3253 71.5585788,97.47045 70.7871788,102.5353 C70.0766788,107.2043 65.0524288,108.7065 63.5502288,109.0516 L63.4994788,118.4708 L63.4994788,118.4708 C63.6363214,119.370354 63.3388657,120.281547 62.6976288,120.9271 C61.9126424,121.59678 60.8946526,121.928812 59.8657788,121.85075 Z M48.2541788,111.27445 C48.5992788,112.14735 51.4920288,119.1001 57.3891788,120.5008 C59.6627788,121.03875 61.2766288,120.93725 62.0378788,120.1963 C62.4435971,119.75559 62.6266408,119.154161 62.5352288,118.56215 L62.5352288,108.63545 C62.5410301,108.389406 62.7192663,108.181463 62.9615288,108.1381 C63.0224288,108.1381 69.0515288,107.0419 69.7823288,102.38305 C70.2781447,97.7754923 70.4849327,93.1414066 70.4014788,88.508 C65.4831635,89.0250749 60.6647702,86.8676432 57.7748788,82.85445 C57.8357788,91.4515 50.3146288,96.3844 48.8225788,97.2776 L48.2541788,111.27445 Z"/><path fill="#FFF" d="M51.4412788,96.4453 C50.7323279,94.1564375 48.5190801,92.6752966 46.1328288,92.8928 C43.2806788,93.3394 43.3212788,96.5671 44.2144788,98.64785 C44.7665519,99.9228784 45.8053118,100.92438 47.0996467,101.429533 C48.3939815,101.934686 49.8365253,101.901587 51.1063288,101.3376"/><path fill="#231F20" d="M48.9849788,102.29171 C46.7050559,102.295869 44.6432605,100.937321 43.7475788,98.8407 C43.0266731,97.3140531 42.993425,95.5519046 43.6562288,93.99915 C44.1555532,93.1107208 45.0496425,92.5146613 46.0617788,92.39545 C48.7052453,92.1326639 51.1644712,93.779239 51.9284788,96.3235 C51.9719938,96.5048123 51.9154744,96.6955668 51.7802108,96.823908 C51.6449472,96.9522492 51.4514893,96.9986791 51.2727107,96.945708 C51.0939322,96.8927369 50.9569938,96.7484123 50.9134788,96.5671 C50.2487614,94.5465739 48.2949714,93.2370744 46.1734288,93.39015 C45.4725817,93.4610567 44.850818,93.8705108 44.5088288,94.48635 C43.9889947,95.7647733 44.036965,97.2038816 44.6407788,98.44485 C45.1349697,99.5995025 46.072601,100.507008 47.2427714,100.963241 C48.4129417,101.419473 49.717398,101.386126 50.8627288,100.8707 C51.1179495,100.762173 51.4133575,100.87407 51.5326288,101.12445 C51.5869171,101.248228 51.5895875,101.388549 51.540048,101.514303 C51.4905084,101.640057 51.392852,101.740855 51.2687288,101.79435 C50.5494213,102.114323 49.7722018,102.283584 48.9849788,102.29171 Z"/><path fill="#FFF" d="M64.6362788,93.02475 C64.6362788,93.02475 68.2699788,98.01855 67.4884288,98.9422 C66.7068788,99.86585 64.4434288,99.3685 64.4434288,99.3685"/><path fill="#231F20" d="M65.7020288,100.00795 C65.2251081,100.002409 64.7496029,99.9548581 64.2810288,99.86585 C64.0007444,99.8069902 63.8212441,99.5320595 63.8801039,99.251775 C63.9389636,98.9714905 64.2138943,98.7919903 64.4941788,98.85085 C65.1539288,98.99295 66.6561288,99.11475 67.0925788,98.5971 C67.2549788,98.1302 65.9151788,95.64345 64.2201288,93.2988 C64.1381345,93.192507 64.1036319,93.0570919 64.1247661,92.9245226 C64.1459003,92.7919534 64.2207984,92.6739789 64.3317788,92.59845 C64.5568157,92.4393157 64.8677279,92.4888814 65.0321288,92.7101 C66.7982288,95.13595 68.7267288,98.24185 67.8639788,99.2467 C67.2862586,99.7994228 66.4986011,100.076767 65.7020288,100.00795 Z"/><ellipse cx="61.706" cy="90.373" fill="#231F20" rx="1" ry="1.857" transform="rotate(-1.68 61.706 90.373)"/><ellipse cx="68.536" cy="91.167" fill="#231F20" rx="1" ry="1.857" transform="rotate(-1.68 68.536 91.167)"/><path fill="#231F20" d="M63.0528788,108.63545 C63.0528788,108.63545 59.3176788,109.3155 54.8719788,106.40245 C54.8719788,106.40245 56.5162788,113.3146 62.9919788,113.95405 L63.0528788,108.63545 Z"/><path fill="#231F20" d="M63.0224288,114.46155 L63.0224288,114.46155 C56.2219288,113.79165 54.4456788,106.58515 54.4253788,106.5141 C54.3735731,106.312879 54.4550861,106.100945 54.6283788,105.9863 C54.8000741,105.870247 55.0250836,105.870247 55.1967788,105.9863 C57.4579252,107.613798 60.2258714,108.380472 63.0021288,108.14825 C63.1502707,108.127097 63.3006201,108.167434 63.4182788,108.2599 C63.5356408,108.357637 63.6027458,108.503031 63.6010129,108.65575 L63.6010129,113.97435 C63.601625,114.113777 63.5425039,114.246799 63.4385788,114.33975 C63.3243692,114.439291 63.1722855,114.483803 63.0224288,114.46155 Z M55.7854788,107.5291 C56.5365788,109.38655 58.4346288,112.71575 62.5250788,113.38565 L62.5250788,109.20385 C60.1671339,109.277377 57.8347402,108.697791 55.7854788,107.5291 L55.7854788,107.5291 Z"/><path fill="#FFF" d="M58.9624288,96.4453 C58.9624288,96.4453 58.9624288,106.42275 67.7218788,103.2052"/><path fill="#231F20" d="M64.5550788,104.35215 C63.4484491,104.378236 62.3617213,104.055059 61.4491788,103.4285 C58.4955288,101.3985 58.4041788,96.6483 58.4041788,96.4453 C58.4095787,96.1672829 58.6336618,95.9431999 58.9116788,95.9378 L58.9116788,95.9378 C59.1919633,95.9378 59.4191788,96.1650155 59.4191788,96.4453 C59.4191788,96.4453 59.4191788,100.84025 61.9769788,102.5962 C63.3269288,103.54015 65.1843788,103.6112 67.4985788,102.72815 C67.7594342,102.64206 68.0414379,102.779147 68.1348714,103.037463 C68.2283048,103.295779 68.0992488,103.581548 67.8436788,103.68225 C66.7944163,104.093876 65.6817499,104.32053 64.5550788,104.35215 Z"/><path fill="#FFF" d="M119.324479,144.97245 C118.877879,144.8202 107.408379,141.92745 107.408379,141.92745 C107.408379,141.92745 126.571579,111.6094 127.018179,111.47745 C127.464779,111.3455 143.461179,108.12795 143.461179,108.12795 L119.324479,144.97245 Z"/><path fill="#231F20" d="M119.324479,145.47995 L119.162079,145.47995 C118.816979,145.35815 111.864229,143.61235 107.286579,142.43495 C107.129539,142.394864 107.00109,142.282182 106.940896,142.131698 C106.880703,141.981214 106.896006,141.811031 106.982079,141.6737 C126.267079,111.2237 126.642629,111.07145 126.855779,110.99025 C127.322679,110.838 140.690229,108.16855 143.369829,107.6306 C143.571199,107.591555 143.776273,107.677569 143.88954,107.84858 C144.002808,108.019591 144.001994,108.241972 143.887479,108.41215 L119.750779,145.25665 C119.652855,145.395305 119.494219,145.478399 119.324479,145.47995 L119.324479,145.47995 Z M108.210229,141.6331 C110.544729,142.2218 117.345229,143.93715 119.101179,144.3939 L142.385279,108.8689 C136.396779,110.0666 128.408729,111.68045 127.292229,111.9139 C126.145279,113.3958 115.487779,130.123 108.210229,141.6331 Z"/><polygon fill="#FFF" points="107.408 141.958 93.736 134.528 112.24 107.712 127.018 111.488"/><path fill="#231F20" d="M107.408379,142.4654 C107.323512,142.4646 107.240038,142.443732 107.164779,142.4045 L93.4927288,134.9747 C93.3690233,134.906014 93.2804296,134.787889 93.2491288,134.6499 C93.21011,134.51079 93.2362372,134.361492 93.3201788,134.2439 L111.823629,107.4276 C111.941701,107.252635 112.157353,107.171257 112.361579,107.2246 L127.139979,110.99025 C127.300912,111.027852 127.433456,111.141461 127.495229,111.29475 C127.549225,111.450114 127.530595,111.621515 127.444479,111.76165 L107.834679,142.21165 C107.745005,142.363252 107.584396,142.458853 107.408379,142.4654 L107.408379,142.4654 Z M94.4772788,134.3454 L107.266279,141.288 L126.246779,111.80225 L112.483379,108.29035 L94.4772788,134.3454 Z"/><path fill="#FFF" d="M51.4412788,149.3471 C51.4412788,149.3471 64.9610788,171.6771 75.6287288,175.7371 C86.2963788,179.7971 116.665179,148.6163 116.665179,148.6163 C116.665179,148.6163 120.380079,150.3215 124.206629,145.29725 C126.543611,142.188092 128.401397,138.746227 129.718079,135.08635 C129.718079,135.08635 131.697329,131.02635 130.946229,128.5802 C130.306779,126.45885 128.286929,130.6102 128.286929,130.6102 C128.286929,130.6102 124.886679,135.89835 122.866829,135.401 C120.846979,134.90365 122.572479,129.514 121.963479,127.9306 C121.354479,126.3472 118.370379,131.9906 117.670029,134.39615 C116.969679,136.8017 113.244629,141.23725 111.630779,142.63795 C110.016929,144.03865 85.9512788,160.5121 83.9212788,160.35985 C81.8912788,160.2076 67.2651288,142.41465 67.2651288,142.41465 L51.4412788,149.3471 Z"/><path fill="#231F20" d="M77.7399288,176.55925 C76.9581627,176.571778 76.1807096,176.441056 75.4460288,176.17355 C64.7479288,172.11355 51.5630788,150.53465 51.0048288,149.611 C50.9440049,149.478951 50.9440049,149.326899 51.0048288,149.19485 C51.0493346,149.059351 51.1488008,148.948833 51.2788788,148.89035 L67.0519788,141.94775 C67.2611369,141.858417 67.5041045,141.91607 67.6508288,142.08985 C74.6543288,150.6666 82.6728288,159.6595 83.9517288,159.8625 C85.9817288,159.8625 109.245529,144.16045 111.356729,142.33345 C112.990879,140.9023 116.594129,136.54795 117.243729,134.3251 C117.730929,132.63005 120.156779,127.281 121.679279,127.2201 C122.062841,127.203205 122.405817,127.457262 122.501429,127.8291 C122.714863,128.865542 122.732077,129.932814 122.552179,130.9756 C122.410079,132.5793 122.217229,134.7717 123.059679,134.98485 C124.186329,135.24875 126.591879,132.4778 127.921529,130.4072 C128.439179,129.3313 129.515079,127.4231 130.550379,127.5043 C130.854879,127.5043 131.260879,127.71745 131.484179,128.4584 C132.286029,131.10755 130.316929,135.16755 130.225579,135.3401 C128.908537,139.034964 127.032668,142.506006 124.663379,145.6322 C121.273279,150.0982 117.923779,149.56025 116.858029,149.23545 C113.965279,152.09775 89.4936288,176.55925 77.7399288,176.55925 Z M52.1822288,149.6313 C54.2122288,152.9199 66.3008788,171.68725 75.8012788,175.28035 C79.9830788,176.8536 88.2857788,172.7327 99.8161788,163.34395 C108.616229,156.17805 116.218579,148.42345 116.299779,148.34225 C116.448201,148.190643 116.676457,148.149883 116.868179,148.24075 C117.010279,148.30165 120.288729,149.6922 123.800629,145.07395 C126.100532,142.004225 127.93383,138.611256 129.241029,135.00515 C129.241029,134.90365 131.139079,131.0771 130.459029,128.8035 C130.441547,128.706602 130.399624,128.615769 130.337229,128.5396 C129.666881,129.243872 129.127277,130.06187 128.743679,130.9553 C128.114379,131.9703 124.998329,136.56825 122.745029,136.0303 C121.070279,135.61415 121.293579,133.13755 121.486429,130.9553 C121.602046,130.100715 121.619075,129.235673 121.537179,128.3772 C120.704879,129.0065 118.756079,132.58945 118.147079,134.6702 C117.416279,137.1874 113.670929,141.6534 111.965729,143.1556 C110.636079,144.32285 86.5907288,160.92825 83.8806788,160.92825 L83.8806788,160.92825 C81.7593288,160.776 70.8176288,147.6216 67.1128788,143.0947 L52.1822288,149.6313 Z"/><path fill="#231F20" d="M67.2143788 142.912C67.0203133 142.912286 66.8430174 142.802071 66.7576288 142.6278L58.8812288 126.2863C58.7607065 126.036847 58.8652257 125.736922 59.1146789 125.6164 59.3641321 125.495878 59.6640565 125.600397 59.7845788 125.84985L67.6711288 142.19135C67.7301961 142.310955 67.7387407 142.449275 67.6948435 142.575241 67.6509463 142.701207 67.5582873 142.804259 67.4376788 142.86125 67.3689213 142.897286 67.2919579 142.914778 67.2143788 142.912L67.2143788 142.912ZM51.4412788 149.8546C51.2472133 149.854886 51.0699174 149.744671 50.9845288 149.5704 50.8931788 149.3674 41.1796288 129.3516 39.2206788 126.875 39.0479477 126.65608 39.0842079 126.338803 39.3018788 126.1645 39.4059853 126.078843 39.540405 126.03912 39.6743486 126.054427 39.8082922 126.069735 39.9302831 126.138763 40.0123788 126.2457 42.0423788 128.81365 51.4920288 148.30165 51.8980288 149.13395 52.0151197 149.38359 51.9114601 149.681048 51.6645788 149.80385 51.5958213 149.839886 51.5188579 149.857378 51.4412788 149.8546L51.4412788 149.8546Z"/><path fill="#FFF" d="M97.2177788 196.3213C96.9374944 196.363343 96.6761966 196.170209 96.6341539 195.889925 96.5921113 195.609641 96.7852444 195.348343 97.0655288 195.3063 108.900429 191.43915 126.622329 165.7901 126.805029 165.5262 126.966309 165.301577 127.277732 165.247417 127.505379 165.4044 127.617204 165.478602 127.694295 165.594847 127.719143 165.726731 127.743991 165.858615 127.714485 165.994943 127.637329 166.10475 126.906529 167.1705 109.539879 192.29175 97.3801788 196.27055L97.2177788 196.3213ZM93.7363288 127.078C94.9960621 126.152878 96.3584205 125.376334 97.7963288 124.7638 101.115379 123.3022 105.540779 123.65745 104.434429 125.0886 103.328079 126.51975 95.8272288 129.6358 95.8272288 129.6358 95.8272288 129.6358 96.4768288 133.05635 92.5589288 134.5687"/><path fill="#231F20" d="M92.5183288,135.0762 C92.2380443,135.126651 91.9699301,134.940335 91.9194788,134.66005 C91.8690276,134.379766 92.0553443,134.111651 92.3356288,134.0612 C95.7967788,132.73155 95.3197288,129.8185 95.2892788,129.6967 C95.2510512,129.462858 95.3764759,129.232912 95.5937788,129.13845 C98.5575788,127.9103 103.236729,125.7179 103.987829,124.75365 C104.018435,124.717505 104.042481,124.676283 104.058879,124.63185 C103.774679,124.20555 100.719529,123.98225 97.9688788,125.1901 C96.6062383,125.79088 95.3101431,126.532478 94.1017288,127.4028 C93.9022791,127.590988 93.5906785,127.590988 93.3912288,127.4028 C93.1989991,127.208922 93.1989991,126.896328 93.3912288,126.70245 C94.679022,125.7288 96.0797185,124.914283 97.5628788,124.2766 C100.313529,123.06875 104.008129,122.9571 104.870879,124.0533 C105.175947,124.450436 105.145778,125.010719 104.799829,125.3728 C103.784829,126.74305 97.9384288,129.26025 96.3347288,129.9403 C96.4311958,132.262044 94.9384596,134.352711 92.7111788,135.0153 C92.6508897,135.046572 92.5856439,135.067176 92.5183288,135.0762 L92.5183288,135.0762 Z"/><path fill="#D1D3D4" d="M51.5326288,188.120178 C51.3109052,188.118249 51.1149839,187.97539 51.0454288,187.76485 C45.3512788,169.8501 17.9462788,120.5211 17.6519288,120.02375 C17.5534873,119.785101 17.6498858,119.510579 17.8759204,119.385871 C18.1019551,119.261162 18.3855917,119.326009 18.5349788,119.53655 C18.8191788,120.0339 46.2749288,169.45425 52.0299788,187.46035 C52.1092562,187.726423 51.9600156,188.006814 51.6950288,188.08965 C51.643555,188.110824 51.5882771,188.121189 51.5326288,188.120178 L51.5326288,188.120178 Z"/><rect width="266.306" height="6.608" x=".509" y="208.928" fill="#FFF"/><path fill="#231F20" d="M266.803979,216.0326 L0.508578839,216.0326 C0.228294329,216.0326 0.00107883908,215.805385 0.00107883908,215.5251 L0.00107883908,208.9276 C0.00107883908,208.647316 0.228294329,208.4201 0.508578839,208.4201 L266.803979,208.4201 C267.084263,208.4201 267.311479,208.647316 267.311479,208.9276 L267.311479,215.5251 C267.311479,215.805385 267.084263,216.0326 266.803979,216.0326 Z M1.00592884,215.0176 L266.306629,215.0176 L266.306629,209.42495 L1.00592884,209.42495 L1.00592884,215.0176 Z"/><path fill="#D1D3D4" d="M80.0236788 46.5276505C79.8712668 46.527945 79.7264482 46.4611057 79.6278288 46.3449 79.4527216 46.1286389 79.484415 45.811704 79.6988788 45.6344L102.495779 26.8163C102.693117 26.62287 103.008941 26.62287 103.206279 26.8163 103.381386 27.0325612 103.349693 27.349496 103.135229 27.5268L80.3484788 46.41595C80.2564786 46.4897841 80.1416312 46.5292629 80.0236788 46.5276505ZM164.207779 58.7076C163.996216 58.7055126 163.808144 58.5723946 163.735841 58.3735593 163.663537 58.174724 163.722173 57.9518944 163.882979 57.8144L192.952579 33.4544C193.169498 33.2757054 193.489373 33.3027371 193.673229 33.5153 193.851923 33.7322194 193.824892 34.0520946 193.612329 34.23595L164.532579 58.59595C164.439788 58.6683371 164.325465 58.7076 164.207779 58.7076L164.207779 58.7076ZM91.4221288 73.8615503C91.2726383 73.8615503 91.1310044 73.7946209 91.0364288 73.67885 90.8577342 73.4619306 90.8847659 73.1420554 91.0973288 72.9582L109.072979 57.8144C109.212589 57.696547 109.404469 57.6621277 109.576337 57.7241074 109.748206 57.7860871 109.873954 57.9350497 109.906212 58.1148824 109.938471 58.2947151 109.872339 58.478097 109.732729 58.59595L91.7469288 73.73975C91.6567882 73.8180142 91.5415044 73.8612456 91.4221288 73.8615503ZM208.350129 143.9676C208.203144 143.966301 208.063359 143.903765 207.964429 143.79505 207.783216 143.580786 207.805726 143.261152 208.015179 143.0744L219.504979 133.05635C219.639551 132.927093 219.834199 132.882107 220.01184 132.939208 220.189482 132.996309 220.321461 133.146286 220.355513 133.329746 220.389565 133.513205 220.320197 133.700554 220.174879 133.8176L208.685079 143.8458C208.590929 143.924009 208.472524 143.967065 208.350129 143.9676L208.350129 143.9676ZM171.008279 109.264803C170.791548 109.26786 170.596765 109.132981 170.523428 108.929012 170.450091 108.725043 170.514389 108.497012 170.683479 108.3614L203.386779 81.14925C203.488298 81.0613097 203.62107 81.0181679 203.754891 81.0296383 203.888713 81.0411087 204.012206 81.106216 204.097279 81.21015 204.275973 81.4270694 204.248942 81.7469446 204.036379 81.9308L171.333079 109.14295C171.242043 109.219697 171.127332 109.262714 171.008279 109.264803Z"/></g></svg>