<svg id="_350_tv_presenter_flatline" data-name="#350_tv_presenter_flatline" xmlns="http://www.w3.org/2000/svg" viewBox="0 0 400 300" width="406" height="306" class="illustration styles_illustrationTablet__1DWOa"><path d="M243.55,136.36s-5.42,1.07-12.72,2.94-32.41,11.75-35.08,12.55S208,250.55,208,250.55h86.53s13.62-95.62,12.55-97.56-34.69-11.51-36.31-12.47S250.82,134.76,243.55,136.36Z" fill="#e0e0e0"></path><path d="M265.58,145.62c-.22,4.76-.8,10.5-1.58,16.69-1,7.75-2.34,16.22-3.74,24.41-3.64,21.14-7.78,40.39-7.78,40.39-2.67-6.07-5.33-19.26-7.61-33.29-1.74-10.75-3.25-22-4.37-30.92-1.27-10.14-2-17.28-2-17.28Z" fill="#fff"></path><path d="M252.48,227.63a.51.51,0,0,1-.47-.31c-2.33-5.29-4.91-16.54-7.64-33.42-1.45-8.9-2.92-19.3-4.38-30.93-1.26-10-2-17.22-2-17.3a.47.47,0,0,1,.13-.39.53.53,0,0,1,.38-.18h27.11a.51.51,0,0,1,.37.16.55.55,0,0,1,.15.38c-.21,4.41-.74,10-1.59,16.74-.89,6.94-2.15,15.16-3.74,24.42C257.17,207.71,253,227,253,227.22a.53.53,0,0,1-.46.41Zm-13.43-81.49c.2,1.89.91,8.29,2,16.7,1.46,11.62,2.93,22,4.37,30.9,2.48,15.28,4.82,25.89,7,31.61,1.07-5.11,4.43-21.36,7.42-38.72,1.59-9.25,2.84-17.46,3.73-24.38.82-6.4,1.34-11.82,1.56-16.11Z" fill="#231f20"></path><path d="M255.21,159.41l5,27.31c-3.64,21.14-7.78,40.39-7.78,40.39-2.67-6.07-5.33-19.26-7.61-33.29l5.71-34.23-5.88-5.33,2.59-8.64.62-2.05,6.33,2.05,6.31,2Z" fill="#d1d3d4"></path><path d="M252.48,227.63a.51.51,0,0,1-.47-.31c-2.33-5.29-4.91-16.54-7.64-33.42a.43.43,0,0,1,0-.16l5.65-34-5.66-5.14a.5.5,0,0,1-.15-.53l3.21-10.69a.5.5,0,0,1,.65-.34l12.64,4.1a.48.48,0,0,1,.31.28.51.51,0,0,1,0,.42l-5.27,11.6,5,27.14a.54.54,0,0,1,0,.18C257.17,207.71,253,227,253,227.22a.53.53,0,0,1-.46.41Zm-7.08-33.81c2.47,15.24,4.8,25.83,6.93,31.53,1.07-5.1,4.42-21.31,7.4-38.63l-5-27.22a.51.51,0,0,1,0-.3l5.1-11.22-11.59-3.76-3,9.88,5.63,5.11a.51.51,0,0,1,.16.47Z" fill="#231f20"></path><path d="M265.58,145.62c-.22,4.76-.8,10.5-1.58,16.69-3.33-4.75-12.28-9.32-12.28-9.32-3.36,1.58-9.21,7.73-11.22,9.91-1.27-10.14-2-17.28-2-17.28Z" fill="#fff"></path><path d="M240.5,163.42l-.16,0A.49.49,0,0,1,240,163c-1.26-10-2-17.22-2-17.3a.47.47,0,0,1,.13-.39.53.53,0,0,1,.38-.18h27.11a.51.51,0,0,1,.37.16.55.55,0,0,1,.15.38c-.21,4.41-.74,10-1.59,16.74a.51.51,0,0,1-.39.43.53.53,0,0,1-.55-.2c-2.92-4.18-10.45-8.3-11.85-9-3.37,1.73-9.12,7.82-10.84,9.68A.52.52,0,0,1,240.5,163.42Zm-1.45-17.28c.19,1.8.85,7.74,1.83,15.6,2.61-2.78,7.55-7.77,10.62-9.22a.53.53,0,0,1,.46,0c.34.18,7.92,4.08,11.68,8.48.72-5.86,1.19-10.85,1.4-14.87Z" fill="#231f20"></path><path d="M276.07,104.56s7.36-19.08,3.76-23.63-5.73-2.62-5.73-2.62,3.6-3.33-1.8-8.22c-2.52-2.29-6.16-3.27-9.31-4-3.51-.85-7.71-1.94-11.07-.06a1.89,1.89,0,0,0,1.32.79,19.91,19.91,0,0,0-12.39.63c-3.81,1.47-7.52,4.78-7.6,9.1-2.19-.35-4.05,1.91-4.63,4.19-.79,3.08-.4,5.81,0,8.85.39,3.21.38,6.51.69,9.73.41,4.13.91,8.25,1.54,12.35C230.83,111.64,269.52,114.72,276.07,104.56Z" fill="#fff"></path><path d="M243.66,112.61c-6.91,0-12.29-.41-12.87-.45a.51.51,0,0,1-.47-.44c-.6-3.92-1.11-8-1.54-12.38-.14-1.45-.22-2.94-.29-4.38-.09-1.76-.19-3.58-.4-5.33l-.05-.4c-.36-2.88-.7-5.6.08-8.65.59-2.32,2.38-4.6,4.64-4.61.39-4.55,4.44-7.69,7.9-9a20.52,20.52,0,0,1,10.77-1.08.49.49,0,0,1,.24-.31c3.45-1.93,7.73-.89,11.18-.06l.26.07c3.43.83,7,1.84,9.54,4.15,2.08,1.88,3.14,3.78,3.14,5.65a4.62,4.62,0,0,1-.44,2h.29c1.46.12,3,1.2,4.59,3.21,3.74,4.72-3.38,23.34-3.68,24.13l-.05.1C272.29,111.37,255.66,112.61,243.66,112.61Zm-12.38-1.45c4.13.28,38.3,2.35,44.32-6.84,2-5.27,6.61-19.54,3.82-23.07-1.73-2.19-3-2.74-3.82-2.82a1.58,1.58,0,0,0-1.16.27.52.52,0,0,1-.69-.77,3.68,3.68,0,0,0,1-2.59c0-1.55-1-3.19-2.8-4.87-2.37-2.14-5.79-3.11-9.09-3.91l-.27-.06c-3.2-.78-6.8-1.66-9.78-.37l.09.05a4.05,4.05,0,0,1,.47.12.52.52,0,0,1-.2,1,2,2,0,0,1-.59-.15A19.36,19.36,0,0,0,241,67.9c-3.3,1.28-7.18,4.31-7.26,8.63a.54.54,0,0,1-.19.39.55.55,0,0,1-.41.11c-1.86-.31-3.52,1.71-4,3.81-.73,2.85-.42,5.36-.06,8.27l.05.39c.22,1.79.32,3.63.41,5.41.07,1.42.15,2.9.29,4.33C230.22,103.48,230.71,107.38,231.28,111.16Zm44.79-6.6h0Z" fill="#231f20"></path><path d="M268.51,108c1.21-7.53,13.7-9.38,13.09-.51a13.13,13.13,0,0,1-3.33,8.33c-2.14,2.18-5.6,3.21-8.38,2" fill="#fff"></path><path d="M272.49,118.85a6.79,6.79,0,0,1-2.82-.59.52.52,0,0,1-.26-.68.53.53,0,0,1,.69-.26,7.16,7.16,0,0,0,7.8-1.85,12.65,12.65,0,0,0,3.18-8c.31-4.37-2.66-5.19-3.95-5.34-3.32-.39-7.47,2-8.11,6a.52.52,0,0,1-1-.16c.74-4.56,5.47-7.25,9.25-6.82,2.54.29,5.16,2.13,4.86,6.43a13.6,13.6,0,0,1-3.48,8.65A8.73,8.73,0,0,1,272.49,118.85Z" fill="#231f20"></path><path d="M237.38,108c-1.21-7.53-13.7-9.38-13.08-.51a13.08,13.08,0,0,0,3.33,8.33c2.14,2.18,5.59,3.21,8.38,2" fill="#fff"></path><path d="M233.4,118.85a8.74,8.74,0,0,1-6.14-2.66,13.66,13.66,0,0,1-3.48-8.65c-.3-4.3,2.32-6.14,4.87-6.43,3.78-.43,8.51,2.26,9.24,6.82a.51.51,0,0,1-.43.59.5.5,0,0,1-.59-.43c-.64-4-4.79-6.35-8.1-6-1.29.15-4.26,1-4,5.34a12.67,12.67,0,0,0,3.19,8,7.15,7.15,0,0,0,7.8,1.85.52.52,0,0,1,.68.26.51.51,0,0,1-.26.68A6.79,6.79,0,0,1,233.4,118.85Z" fill="#231f20"></path><path d="M238.47,145.62s3.39,7.37,13.25,7.37a15.92,15.92,0,0,0,13.86-7.37l-.42-5.26-1-12.23-.92-11.43H240.77L240,126l-.23,3Z" fill="#fff"></path><path d="M251.72,153.5c-10.08,0-13.68-7.58-13.71-7.66a.47.47,0,0,1,0-.26l2.29-28.93a.52.52,0,0,1,.52-.47h22.51a.53.53,0,0,1,.52.47l2.3,28.93a.72.72,0,0,1-.06.29A16.62,16.62,0,0,1,251.72,153.5Zm-12.72-8c.48.95,3.88,6.95,12.72,6.95a15.52,15.52,0,0,0,13.33-7l-2.25-28.29H241.24Z" fill="#231f20"></path><path d="M239.79,129.08a20,20,0,0,0,7.4,6.48c4.84,2.68,12.09,5.7,18,4.8l-1-12.23a55.21,55.21,0,0,1-13,.08c-3.8-.33-7.71-.7-11.19-2.17Z" fill="#231f20"></path><path d="M262.92,141c-5.93,0-12.4-3.05-16-5a20.25,20.25,0,0,1-7.58-6.66.52.52,0,0,1-.08-.3l.23-3a.49.49,0,0,1,.24-.39.48.48,0,0,1,.45,0c3.51,1.47,7.51,1.82,11,2.13a54,54,0,0,0,12.87-.09.53.53,0,0,1,.38.11.5.5,0,0,1,.18.35l1,12.23a.49.49,0,0,1-.42.53A14.82,14.82,0,0,1,262.92,141ZM240.3,129a19.33,19.33,0,0,0,7.13,6.17c3.84,2.13,11.1,5.53,17.2,4.81l-.89-11.24a55.73,55.73,0,0,1-12.57,0,40.18,40.18,0,0,1-10.71-2Z" fill="#231f20"></path><path d="M251.37,131h2a17.25,17.25,0,0,0,17.25-17.25V92c0-1.58.65-3.11-.57-4.29s-3.45-1.43-5-1.6a15,15,0,0,0-5.14.15,6.51,6.51,0,0,0-4.14,2.86c-1.07,1.86-.51,3.54-.79,5.53s-2.39,4.68-4.63,3.87a4.74,4.74,0,0,0,1.58-3,4.19,4.19,0,0,0-1.23-3.26c-.48-.47-1.14-1-.92-1.66a4.19,4.19,0,0,1,.49-.7,1.55,1.55,0,0,0-.17-1.67,4.3,4.3,0,0,0-1.37-1.13c-1.81-1.14-4.85-1.23-7-1.34a9.88,9.88,0,0,0-5,.76c-4,2-2.61,7.42-2.61,11v16.34A17.25,17.25,0,0,0,251.37,131Z" fill="#fff"></path><path d="M253.38,131.53h-2a17.79,17.79,0,0,1-17.77-17.77V97.42c0-.67,0-1.42-.1-2.21-.23-3.3-.52-7.4,3-9.2a10.31,10.31,0,0,1,5.24-.81H242c2.16.1,5.12.24,7,1.4a5,5,0,0,1,1.51,1.27,2.08,2.08,0,0,1,.19,2.24,2,2,0,0,1-.25.33,1.52,1.52,0,0,0-.19.27c-.1.27.32.67.66,1l.13.13a4.58,4.58,0,0,1,.32,6.24,2.32,2.32,0,0,0,1-.34,5,5,0,0,0,2.13-3.21,11.78,11.78,0,0,0,.08-1.86,7.14,7.14,0,0,1,.77-3.85,7,7,0,0,1,4.47-3.11,15.74,15.74,0,0,1,5.32-.16c1.59.17,4,.42,5.34,1.74,1.08,1,.94,2.34.81,3.48a11.69,11.69,0,0,0-.08,1.18v21.8A17.79,17.79,0,0,1,253.38,131.53ZM240.66,86.2a8,8,0,0,0-3.7.73c-2.9,1.49-2.65,5.06-2.44,8.21.06.81.11,1.57.11,2.28v16.34a16.75,16.75,0,0,0,16.74,16.73h2a16.75,16.75,0,0,0,16.74-16.73V92a10.88,10.88,0,0,1,.09-1.29c.13-1.2.17-2-.5-2.63-1.11-1.07-3.29-1.3-4.74-1.45a14.91,14.91,0,0,0-5,.13,5.27,5.27,0,0,0-4.44,6,13.94,13.94,0,0,1-.1,2,6,6,0,0,1-2.62,3.95,3.05,3.05,0,0,1-2.7.33.51.51,0,0,1-.18-.85,4.17,4.17,0,0,0,1.42-2.68,3.65,3.65,0,0,0-1.07-2.85l-.13-.12c-.49-.48-1.23-1.19-.91-2.09a1.81,1.81,0,0,1,.37-.58,1.66,1.66,0,0,0,.16-.21,1.06,1.06,0,0,0-.15-1.1,4,4,0,0,0-1.22-1c-1.62-1-4.42-1.15-6.47-1.25h-.28Q241.19,86.2,240.66,86.2Z" fill="#231f20"></path><path d="M252.73,115.79a19.83,19.83,0,0,1-2.48-.15,1.12,1.12,0,0,1-.87-.58c-1.28-2.14,2.09-11.21,2.78-13a.51.51,0,1,1,1,.37c-1.52,4-3.65,10.78-2.85,12.1,0,.08.08.09.11.09a22.89,22.89,0,0,0,4.87,0,.52.52,0,0,1,.58.45.5.5,0,0,1-.45.57A22.07,22.07,0,0,1,252.73,115.79Z" fill="#231f20"></path><path d="M253.87,126a7.8,7.8,0,0,1-1.49-.14c-7.07-1.28-9.22-6.15-9.31-6.35a.51.51,0,0,1,0-.48.52.52,0,0,1,.41-.24l18.94-.93a.55.55,0,0,1,.45.21.53.53,0,0,1,.06.49C262.94,118.6,260.07,126,253.87,126Zm-9.48-6.22c.82,1.32,3.13,4.16,8.18,5.07,5.28,1,8.18-4,9.11-5.92Z" fill="#231f20"></path><ellipse cx="244.9" cy="99.62" rx="1.34" ry="3.26" fill="#231f20"></ellipse><ellipse cx="261.15" cy="99.62" rx="1.34" ry="3.26" fill="#231f20"></ellipse><path d="M195.75,151.85s-5.52,1.83-6.59,3.59-13.9,44.83-15.5,57.38-2.3,27.78,2.51,30.45,45.14-2,54.66-4.63l-2.67-25.37-25.11,3.53S197.08,156.12,195.75,151.85Z" fill="#e0e0e0"></path><path d="M234.56,214.41h0L190.93,213a.51.51,0,0,1-.5-.53.57.57,0,0,1,.53-.5l43.62,1.43a.52.52,0,0,1,0,1Z" fill="#231f20"></path><path d="M195.43,244a.51.51,0,0,1-.51-.44.52.52,0,0,1,.44-.58l35.84-4.93v-1.92a.52.52,0,1,1,1,0v2.37a.52.52,0,0,1-.45.51l-36.28,5Z" fill="#231f20"></path><path d="M203.8,213.7a.51.51,0,0,1-.51-.45l-6.62-51.61a.52.52,0,0,1,1-.13l6.61,51.61a.5.5,0,0,1-.44.57Z" fill="#231f20"></path><polygon points="231.71 236.15 237.41 235.08 234.56 213.89 230.83 213.89 231.71 236.15" fill="#231f20"></polygon><path d="M231.71,236.64a.5.5,0,0,1-.31-.1.54.54,0,0,1-.19-.37l-.88-22.26a.54.54,0,0,1,.14-.36.48.48,0,0,1,.36-.16h3.73a.5.5,0,0,1,.49.44L237.9,235a.5.5,0,0,1-.4.56l-5.7,1.07Zm-.36-22.25.84,21.16,4.66-.87-2.73-20.29Z" fill="#231f20"></path><polygon points="254.44 241.69 248.27 241.05 253.56 178.7 262.02 179.58 254.44 241.69" fill="#231f20"></polygon><path d="M254.44,242.18h-.06l-6.16-.64a.48.48,0,0,1-.44-.53l5.29-62.35a.5.5,0,0,1,.54-.45l8.46.87a.49.49,0,0,1,.34.19.54.54,0,0,1,.11.37l-7.59,62.11A.5.5,0,0,1,254.44,242.18Zm-5.63-1.58,5.19.54L261.47,180l-7.45-.77Z" fill="#231f20"></path><circle cx="258.32" cy="174.07" r="10.27" fill="#231f20"></circle><path d="M258.34,184.84c-.38,0-.75,0-1.13-.05a10.78,10.78,0,1,1,7.9-2.36A10.66,10.66,0,0,1,258.34,184.84Zm0-20.54a9.77,9.77,0,0,0-1,19.49A9.77,9.77,0,0,0,268,175.08a9.8,9.8,0,0,0-8.72-10.73C259,164.32,258.64,164.3,258.31,164.3Zm10.22,10.83h0Z" fill="#231f20"></path><rect x="243.03" y="182.11" width="27.17" height="16.77" transform="translate(20.96 -25.39) rotate(5.91)" fill="#fff"></rect><path d="M269.27,200.75h-.06l-27-2.8a.49.49,0,0,1-.35-.19.55.55,0,0,1-.11-.38l1.73-16.67a.53.53,0,0,1,.56-.47l27,2.8a.48.48,0,0,1,.35.19.47.47,0,0,1,.11.38l-1.72,16.68A.52.52,0,0,1,269.27,200.75ZM242.81,197l26,2.69L270.42,184l-26-2.69Z" fill="#231f20"></path><path d="M253.68,188.58l-.68,6.58-2-.21.68-6.57-2.34-.24.18-1.71,6.68.69-.17,1.71Z" fill="#d1d3d4"></path><path d="M260.35,195.92l-2-.21-2.27-8.6,2.24.23,1.31,6.07h.05l2.51-5.68,2.22.23Z" fill="#d1d3d4"></path><path d="M234.56,213.89s6.23-5.52,8.37-6.41,17.8-2.67,18.87-.71,2.85,4.45,0,5.7a4.29,4.29,0,0,1,0,4.8s2.31,3,.18,5.52a4.14,4.14,0,0,1-.71,4.32c-1.79,2.09-10,6-12.32,6.37s-11.54,1.6-11.54,1.6Z" fill="#fff"></path><path d="M237.41,235.59a.5.5,0,0,1-.31-.1.52.52,0,0,1-.2-.34L234.05,214a.51.51,0,0,1,.17-.45c.26-.23,6.32-5.59,8.51-6.5,1.48-.62,18.14-3,19.52-.49l.32.57c.75,1.33,1.61,2.84,1.16,4.18a2.64,2.64,0,0,1-1.2,1.4,4.89,4.89,0,0,1-.13,4.57c.82,1.23,1.67,3.63.17,5.64a4.64,4.64,0,0,1-.91,4.57c-1.83,2.15-10.21,6.16-12.63,6.54-2.26.35-11.46,1.59-11.55,1.6Zm-2.3-21.49,2.74,20.4c2-.27,9.08-1.23,11-1.53,2.25-.35,10.32-4.21,12-6.19a3.61,3.61,0,0,0,.64-3.77.51.51,0,0,1,.08-.55c1.83-2.14-.12-4.76-.2-4.87a.52.52,0,0,1,0-.57,3.8,3.8,0,0,0,0-4.23.51.51,0,0,1-.1-.45.52.52,0,0,1,.29-.34,1.89,1.89,0,0,0,1.16-1.06c.3-.9-.43-2.2-1.08-3.35-.11-.19-.22-.38-.32-.57-.73-1.29-15.35-.26-18.22.94C241.3,208.72,236.2,213.14,235.11,214.1Z" fill="#231f20"></path><path d="M307.11,153s6,17.41,8.46,25.71,8.54,71.85,8.54,71.85H294.56s1.07-80.42,3.91-87.65A19,19,0,0,1,307.11,153Z" fill="#e0e0e0"></path><path d="M294.56,251.06h-.07a.52.52,0,0,1-.44-.58c.09-.71,9.24-71.63,8.89-86.67a.51.51,0,0,1,.51-.52.54.54,0,0,1,.52.5c.36,15.11-8.81,86.11-8.9,86.82A.52.52,0,0,1,294.56,251.06Z" fill="#231f20"></path><path d="M350.36,251.06H49.64a.51.51,0,0,1-.52-.51V49.45a.51.51,0,0,1,.52-.51H350.36a.51.51,0,0,1,.52.51v201.1A.51.51,0,0,1,350.36,251.06ZM50.15,250h299.7V50H50.15Z" fill="#231f20"></path><polygon points="156.85 89.92 71.35 89.92 79.35 63.47 164.85 63.47 156.85 89.92" fill="#d1d3d4"></polygon><path d="M84.59,81l2.61-8.63h2.09l-2.06,6.81h3.34L90,81Z" fill="#fff"></path><path d="M91,81l2.6-8.63h2.1L93.09,81Z" fill="#fff"></path><path d="M99.15,81H97.06l-.65-8.63h2.34l.14,6.12h0l3.84-6.12h2.3Z" fill="#fff"></path><path d="M103.18,81l2.61-8.63h5.8l-.54,1.76h-3.78l-.5,1.63h3.58l-.5,1.67h-3.58l-.55,1.79h4L109.19,81Z" fill="#fff"></path><path d="M119.1,81l-1.77-5.64h0L115.64,81h-2l2.61-8.63h2.37L120.36,78h0l1.65-5.63h2L121.46,81Z" fill="#fff"></path><path d="M123.24,81l2.61-8.63h5.8l-.53,1.76h-3.79l-.49,1.63h3.58l-.51,1.67h-3.58l-.54,1.79h4L129.26,81Z" fill="#fff"></path><path d="M139.77,81h-2.06l.06-5.84h0L134.27,81H132.2l.16-8.63h2.24l-.37,5.74h0l3.27-5.74h2.17l-.19,5.74h0l3.12-5.74h2.17Z" fill="#fff"></path><path d="M149.61,74.63a1.24,1.24,0,0,0-.54-.55,1.61,1.61,0,0,0-.77-.2,3.28,3.28,0,0,0-.43,0,1.36,1.36,0,0,0-.43.14,1.59,1.59,0,0,0-.37.27,1,1,0,0,0-.24.42.65.65,0,0,0,0,.36.53.53,0,0,0,.19.26,2,2,0,0,0,.36.2l.49.19c.27.1.54.2.82.32a2.43,2.43,0,0,1,.72.47,1.63,1.63,0,0,1,.43.73,1.93,1.93,0,0,1-.07,1.07,3.75,3.75,0,0,1-.66,1.29,4,4,0,0,1-1,.89,4.56,4.56,0,0,1-1.22.53,5.18,5.18,0,0,1-1.28.17,4.47,4.47,0,0,1-1.7-.32,2.64,2.64,0,0,1-1.16-.92l1.79-1.39a1.59,1.59,0,0,0,.64.65,1.86,1.86,0,0,0,.95.26,2.4,2.4,0,0,0,.46-.05,1.23,1.23,0,0,0,.43-.16,1.21,1.21,0,0,0,.58-.73.64.64,0,0,0,0-.41.75.75,0,0,0-.26-.31,1.78,1.78,0,0,0-.48-.26l-.68-.25a5.78,5.78,0,0,1-.72-.31,1.85,1.85,0,0,1-.56-.47,1.47,1.47,0,0,1-.29-.7,2.13,2.13,0,0,1,.11-1,3.31,3.31,0,0,1,.66-1.23,4,4,0,0,1,1-.84,4.37,4.37,0,0,1,1.21-.48,5.56,5.56,0,0,1,1.25-.16,4.07,4.07,0,0,1,1.42.27,2.61,2.61,0,0,1,1.09.79Z" fill="#fff"></path><g id="LZBuvx"><path d="M109.79,106.51h5.6c1.6.21,3.2.36,4.79.62a48.32,48.32,0,0,1,39.44,39c.32,1.77.5,3.56.74,5.34v5.59c-.13,1.17-.25,2.34-.42,3.5a46.22,46.22,0,0,1-11.26,24.74c-10.81,12.19-24.41,17.9-40.7,16.48A45.36,45.36,0,0,1,79.9,188.89C68.78,178.17,63.72,165,65.07,149.6a44.66,44.66,0,0,1,7.74-21.52,47.58,47.58,0,0,1,31.64-20.83C106.22,106.92,108,106.75,109.79,106.51Zm24.91,26.15a86.23,86.23,0,0,1,2.73,19.68h19.06a43.69,43.69,0,0,0-8.79-24.71Zm-66,19.66H87.76a85.5,85.5,0,0,1,2.76-19.82c-2.25-.76-4.44-1.42-6.57-2.25s-4.2-1.81-6.37-2.76A43.81,43.81,0,0,0,68.69,152.32Zm87.8,3.94H137.42a85.71,85.71,0,0,1-2.76,19.8c2.25.77,4.45,1.43,6.58,2.26s4.2,1.81,6.36,2.76A44,44,0,0,0,156.49,156.26Zm-87.81,0a43.66,43.66,0,0,0,8.8,24.7l13-5a86.16,86.16,0,0,1-2.73-19.68Zm42-3.9V135.41L94,133.52a80.91,80.91,0,0,0-2.4,18.81Zm22.9,0a81,81,0,0,0-2.45-19c-2.87.43-5.59.91-8.33,1.22s-5.49.44-8.23.65v17.11Zm-41.95,3.88a81.26,81.26,0,0,0,2.46,19c2.85-.43,5.57-.91,8.31-1.22s5.49-.45,8.25-.66V156.23Zm22.92,0v16.91L131.16,175a81.36,81.36,0,0,0,2.4-18.8ZM95.12,129.6a82.85,82.85,0,0,0,15.5,1.72V110.56a11.74,11.74,0,0,0-5.54,2.65C99.9,117.48,97.32,123.33,95.12,129.6Zm.1,49.42a40.65,40.65,0,0,0,6.18,12.53,17.48,17.48,0,0,0,6.77,5.7c.77.33,1.59.55,2.46.84V177.32C108,177,97.75,178.17,95.22,179Zm19.34-68.45v20.77a84.4,84.4,0,0,0,15.66-1.79c-1.24-2.78-2.31-5.49-3.62-8.08a23.4,23.4,0,0,0-7.58-9A10.77,10.77,0,0,0,114.56,110.57Zm0,66.66V198c.3-.05.54-.08.78-.14a12.29,12.29,0,0,0,4.82-2.53c5.16-4.29,7.74-10.13,9.91-16.34A83.46,83.46,0,0,0,114.54,177.23ZM124.23,112c4.45,4.86,7.19,10.63,9.32,16.8A52.64,52.64,0,0,0,145,124.39,42.54,42.54,0,0,0,124.23,112Zm9.31,67.83c-2.13,6.23-4.9,12-9.33,16.82A42.7,42.7,0,0,0,145,184.17,52.76,52.76,0,0,0,133.54,179.8ZM80.23,124.43a53,53,0,0,0,11.4,4.33c2.12-6.19,4.89-11.95,9.5-16.86A42.11,42.11,0,0,0,80.23,124.43ZM101,196.62c-4.46-4.86-7.21-10.65-9.34-16.82a52.92,52.92,0,0,0-11.44,4.37A42.64,42.64,0,0,0,101,196.62Z" fill="#d1d3d4"></path></g></svg>